<svg xmlns="http://www.w3.org/2000/svg" 
xmlns:xlink="http://www.w3.org/1999/xlink" 
width="auto" 

viewBox="0 0 357.75 587.999999" 
height="300" 
preserveAspectRatio="xMidYMid meet" version="1.0"><defs><clipPath id="cb59a2120c"><path d="M 0 425.75 L 96.683594 425.75 L 96.683594 587.636719 L 0 587.636719 Z M 0 425.75 " clip-rule="nonzero"/></clipPath><clipPath id="6ee10a67ee"><path d="M 203 37 L 328 37 L 328 158 L 203 158 Z M 203 37 " clip-rule="nonzero"/></clipPath><clipPath id="026da40ae9"><path d="M 255.914062 0.207031 L 356.632812 77.011719 L 281.648438 175.347656 L 180.929688 98.542969 Z M 255.914062 0.207031 " clip-rule="nonzero"/></clipPath><clipPath id="64e5876c62"><path d="M 255.914062 0.207031 L 356.632812 77.011719 L 281.648438 175.347656 L 180.929688 98.542969 Z M 255.914062 0.207031 " clip-rule="nonzero"/></clipPath><clipPath id="31662193d6"><path d="M 200 36 L 329 36 L 329 161 L 200 161 Z M 200 36 " clip-rule="nonzero"/></clipPath><clipPath id="6837db29af"><path d="M 255.914062 0.207031 L 356.632812 77.011719 L 281.648438 175.347656 L 180.929688 98.542969 Z M 255.914062 0.207031 " clip-rule="nonzero"/></clipPath><clipPath id="125ac1c426"><path d="M 255.914062 0.207031 L 356.632812 77.011719 L 281.648438 175.347656 L 180.929688 98.542969 Z M 255.914062 0.207031 " clip-rule="nonzero"/></clipPath></defs><path fill="#ed80ff" d="M 78.917969 504.394531 C 44.878906 523.878906 40.152344 581.429688 40.152344 581.429688 C 40.152344 581.429688 35.425781 523.878906 1.390625 504.394531 C 35.425781 484.90625 40.152344 427.355469 40.152344 427.355469 C 40.152344 427.355469 44.878906 484.90625 78.917969 504.394531 Z M 78.917969 504.394531 C 44.878906 523.878906 40.152344 581.429688 40.152344 581.429688 C 40.152344 581.429688 35.425781 523.878906 1.390625 504.394531 C 35.425781 484.90625 40.152344 427.355469 40.152344 427.355469 C 40.152344 427.355469 44.878906 484.90625 78.917969 504.394531 Z M 78.917969 504.394531 " fill-opacity="1" fill-rule="nonzero"/><g clip-path="url(#cb59a2120c)"><path fill="#000000" d="M 96.273438 515.359375 C 70.332031 499.484375 61.964844 461.246094 59.585938 445.746094 C 59.4375 444.773438 58.039062 444.773438 57.890625 445.746094 C 57.023438 451.378906 55.367188 460.015625 52.363281 469.492188 C 50.667969 465.582031 49.261719 461.75 48.109375 458.195312 C 42.777344 441.710938 41.546875 427.382812 41.535156 427.242188 C 41.476562 426.519531 40.875 425.964844 40.152344 425.964844 C 39.429688 425.964844 38.828125 426.519531 38.769531 427.242188 C 38.757812 427.382812 37.53125 441.710938 32.195312 458.195312 C 27.308594 473.292969 17.878906 493.351562 0.699219 503.1875 C 0.265625 503.433594 0 503.894531 0 504.394531 C 0 504.890625 0.265625 505.351562 0.699219 505.597656 C 17.878906 515.433594 27.308594 535.492188 32.195312 550.589844 C 37.53125 567.074219 38.757812 581.402344 38.769531 581.546875 C 38.828125 582.265625 39.429688 582.820312 40.152344 582.820312 C 40.875 582.820312 41.476562 582.265625 41.535156 581.542969 C 41.546875 581.402344 42.753906 567.269531 48.011719 550.894531 C 53.894531 564.667969 56.671875 578.515625 57.890625 586.429688 C 58.039062 587.402344 59.4375 587.402344 59.585938 586.433594 C 61.964844 570.929688 70.332031 532.691406 96.273438 516.816406 C 96.816406 516.484375 96.816406 515.691406 96.273438 515.359375 Z M 40.152344 571.375 C 39.152344 565.648438 37.5 557.980469 34.855469 549.792969 C 30.007812 534.796875 20.773438 515.027344 4.074219 504.394531 C 20.773438 493.757812 30.007812 473.988281 34.855469 458.992188 C 37.5 450.804688 39.152344 443.136719 40.152344 437.410156 C 41.152344 443.136719 42.804688 450.804688 45.449219 458.992188 C 50.296875 473.988281 59.53125 493.757812 76.230469 504.394531 C 59.53125 515.027344 50.296875 534.796875 45.449219 549.792969 C 42.804688 557.980469 41.152344 565.652344 40.152344 571.375 Z M 40.152344 571.375 " fill-opacity="1" fill-rule="nonzero"/></g><g clip-path="url(#6ee10a67ee)"><g clip-path="url(#026da40ae9)"><g clip-path="url(#64e5876c62)"><path fill="#d0ff96" d="M 305.667969 39.5625 L 297.328125 82.230469 L 327.746094 113.289062 L 284.589844 118.542969 L 264.453125 157.070312 L 246.121094 117.652344 L 203.253906 110.402344 L 235.082031 80.789062 L 228.726562 37.78125 L 266.726562 58.898438 Z M 305.667969 39.5625 L 297.328125 82.230469 L 327.746094 113.289062 L 284.589844 118.542969 L 264.453125 157.070312 L 246.121094 117.652344 L 203.253906 110.402344 L 235.082031 80.789062 L 228.726562 37.78125 L 266.726562 58.898438 Z M 305.667969 39.5625 " fill-opacity="1" fill-rule="nonzero"/></g></g></g><g clip-path="url(#31662193d6)"><g clip-path="url(#6837db29af)"><g clip-path="url(#125ac1c426)"><path fill="#000000" d="M 328.679688 113.917969 C 328.734375 113.839844 328.777344 113.753906 328.8125 113.664062 C 328.953125 113.257812 328.851562 112.808594 328.550781 112.5 L 298.546875 81.867188 L 306.773438 39.78125 C 306.855469 39.359375 306.691406 38.925781 306.351562 38.667969 C 306.007812 38.40625 305.550781 38.363281 305.164062 38.554688 L 266.757812 57.625 L 229.273438 36.792969 C 228.898438 36.585938 228.4375 36.609375 228.085938 36.851562 C 228.003906 36.910156 227.933594 36.972656 227.871094 37.046875 L 227.871094 37.042969 L 226.214844 39.214844 C 226.046875 39.449219 225.96875 39.742188 226.015625 40.039062 L 232.203125 81.925781 L 202.484375 109.578125 C 202.4375 109.621094 202.398438 109.671875 202.363281 109.722656 L 202.359375 109.71875 L 200.785156 111.785156 C 200.78125 111.789062 200.777344 111.792969 200.773438 111.796875 L 200.738281 111.84375 L 200.738281 111.847656 C 200.542969 112.125 200.476562 112.484375 200.578125 112.820312 C 200.699219 113.234375 201.046875 113.539062 201.46875 113.609375 L 243.75 120.757812 L 261.832031 159.640625 C 261.910156 159.808594 262.027344 159.953125 262.171875 160.0625 C 262.359375 160.203125 262.585938 160.285156 262.828125 160.292969 C 263.21875 160.300781 263.578125 160.109375 263.789062 159.792969 L 265.304688 157.8125 C 265.304688 157.808594 265.304688 157.808594 265.308594 157.804688 L 265.347656 157.753906 L 265.34375 157.75 C 265.382812 157.703125 265.421875 157.652344 265.453125 157.59375 L 284.253906 121.617188 L 326.285156 116.503906 C 326.582031 116.46875 326.84375 116.316406 327.027344 116.089844 L 327.027344 116.09375 L 328.683594 113.921875 Z M 284.453125 117.421875 C 284.085938 117.46875 283.761719 117.691406 283.589844 118.019531 L 264.511719 154.523438 L 247.144531 117.175781 C 247.066406 117.007812 246.949219 116.863281 246.804688 116.753906 C 246.660156 116.644531 246.492188 116.570312 246.308594 116.539062 L 205.695312 109.671875 L 235.847656 81.613281 C 236.121094 81.359375 236.25 80.992188 236.195312 80.621094 L 230.175781 39.878906 L 266.179688 59.882812 C 266.503906 60.0625 266.898438 60.074219 267.230469 59.90625 L 304.121094 41.589844 L 296.21875 82.015625 C 296.148438 82.378906 296.261719 82.753906 296.519531 83.019531 L 325.339844 112.445312 Z M 284.453125 117.421875 " fill-opacity="1" fill-rule="nonzero"/></g></g></g></svg>