<svg xmlns="http://www.w3.org/2000/svg" 
xmlns:xlink="http://www.w3.org/1999/xlink" 
width="100%" 
viewBox="0 0 1005.75 1457.999935" 
height="1100"

>
preserveAspectRatio="xMidYMid meet" version="1.0"><defs><clipPath id="e7ccad191f"><path d="M 135 322 L 231 322 L 231 480 L 135 480 Z M 135 322 " clip-rule="nonzero"/></clipPath><clipPath id="d960b02f4b"><path d="M 143.089844 317.148438 L 242.703125 330.285156 L 219.074219 509.4375 L 119.460938 496.300781 Z M 143.089844 317.148438 " clip-rule="nonzero"/></clipPath><clipPath id="e2ad7eb032"><path d="M 143.089844 317.148438 L 242.703125 330.285156 L 219.074219 509.4375 L 119.460938 496.300781 Z M 143.089844 317.148438 " clip-rule="nonzero"/></clipPath><clipPath id="ab7023e7dc"><path d="M 134 320 L 236 320 L 236 499 L 134 499 Z M 134 320 " clip-rule="nonzero"/></clipPath><clipPath id="49fb7eb932"><path d="M 143.089844 317.148438 L 242.703125 330.285156 L 219.074219 509.4375 L 119.460938 496.300781 Z M 143.089844 317.148438 " clip-rule="nonzero"/></clipPath><clipPath id="bbf5d0fa5f"><path d="M 143.089844 317.148438 L 242.703125 330.285156 L 219.074219 509.4375 L 119.460938 496.300781 Z M 143.089844 317.148438 " clip-rule="nonzero"/></clipPath><clipPath id="51cc239b90"><path d="M 410 22 L 519 22 L 519 131 L 410 131 Z M 410 22 " clip-rule="nonzero"/></clipPath><clipPath id="037ba2e61c"><path d="M 498.996094 165.3125 L 387.925781 92.671875 L 448.253906 0.425781 L 559.324219 73.066406 Z M 498.996094 165.3125 " clip-rule="nonzero"/></clipPath><clipPath id="79b5eb6c33"><path d="M 498.996094 165.3125 L 387.925781 92.671875 L 448.253906 0.425781 L 559.324219 73.066406 Z M 498.996094 165.3125 " clip-rule="nonzero"/></clipPath><clipPath id="45be48d8ea"><path d="M 409 21 L 539 21 L 539 145 L 409 145 Z M 409 21 " clip-rule="nonzero"/></clipPath><clipPath id="60ede429f2"><path d="M 498.996094 165.3125 L 387.925781 92.671875 L 448.253906 0.425781 L 559.324219 73.066406 Z M 498.996094 165.3125 " clip-rule="nonzero"/></clipPath><clipPath id="13d2365df0"><path d="M 498.996094 165.3125 L 387.925781 92.671875 L 448.253906 0.425781 L 559.324219 73.066406 Z M 498.996094 165.3125 " clip-rule="nonzero"/></clipPath><clipPath id="1a19779030"><path d="M 505 256 L 603 256 L 603 357 L 505 357 Z M 505 256 " clip-rule="nonzero"/></clipPath><clipPath id="ab17327eda"><path d="M 559.648438 388.730469 L 452.1875 321.578125 L 499.472656 245.910156 L 606.933594 313.0625 Z M 559.648438 388.730469 " clip-rule="nonzero"/></clipPath><clipPath id="3788ee347c"><path d="M 559.648438 388.730469 L 452.1875 321.578125 L 499.472656 245.910156 L 606.933594 313.0625 Z M 559.648438 388.730469 " clip-rule="nonzero"/></clipPath><clipPath id="f5d6aad3de"><path d="M 498 246 L 604 246 L 604 358 L 498 358 Z M 498 246 " clip-rule="nonzero"/></clipPath><clipPath id="d9e3822afe"><path d="M 559.648438 388.730469 L 452.1875 321.578125 L 499.472656 245.910156 L 606.933594 313.0625 Z M 559.648438 388.730469 " clip-rule="nonzero"/></clipPath><clipPath id="6744d20aec"><path d="M 559.648438 388.730469 L 452.1875 321.578125 L 499.472656 245.910156 L 606.933594 313.0625 Z M 559.648438 388.730469 " clip-rule="nonzero"/></clipPath><clipPath id="0e523febdd"><path d="M 27 760 L 155 760 L 155 889 L 27 889 Z M 27 760 " clip-rule="nonzero"/></clipPath><clipPath id="fe60f10442"><path d="M 0.00390625 787.414062 L 130.242188 722.632812 L 192.019531 846.832031 L 61.78125 911.613281 Z M 0.00390625 787.414062 " clip-rule="nonzero"/></clipPath><clipPath id="a77d524e8f"><path d="M 0.00390625 787.414062 L 130.242188 722.632812 L 192.019531 846.832031 L 61.78125 911.613281 Z M 0.00390625 787.414062 " clip-rule="nonzero"/></clipPath><clipPath id="e4ca4a792b"><path d="M 26 744 L 165 744 L 165 890 L 26 890 Z M 26 744 " clip-rule="nonzero"/></clipPath><clipPath id="3be43a20ba"><path d="M 0.00390625 787.414062 L 130.242188 722.632812 L 192.019531 846.832031 L 61.78125 911.613281 Z M 0.00390625 787.414062 " clip-rule="nonzero"/></clipPath><clipPath id="29d310564b"><path d="M 0.00390625 787.414062 L 130.242188 722.632812 L 192.019531 846.832031 L 61.78125 911.613281 Z M 0.00390625 787.414062 " clip-rule="nonzero"/></clipPath><clipPath id="abbc68c198"><path d="M 648.015625 1295.683594 L 744.742188 1295.683594 L 744.742188 1457.644531 L 648.015625 1457.644531 Z M 648.015625 1295.683594 " clip-rule="nonzero"/></clipPath><clipPath id="fa11d2b955"><path d="M 851 907 L 976 907 L 976 1027 L 851 1027 Z M 851 907 " clip-rule="nonzero"/></clipPath><clipPath id="69d567c849"><path d="M 904.046875 869.949219 L 1004.8125 946.789062 L 929.792969 1045.167969 L 829.027344 968.328125 Z M 904.046875 869.949219 " clip-rule="nonzero"/></clipPath><clipPath id="fee8c4d2fc"><path d="M 904.046875 869.949219 L 1004.8125 946.789062 L 929.792969 1045.167969 L 829.027344 968.328125 Z M 904.046875 869.949219 " clip-rule="nonzero"/></clipPath><clipPath id="ed4ec351be"><path d="M 848 906 L 978 906 L 978 1031 L 848 1031 Z M 848 906 " clip-rule="nonzero"/></clipPath><clipPath id="9da170b7c9"><path d="M 904.046875 869.949219 L 1004.8125 946.789062 L 929.792969 1045.167969 L 829.027344 968.328125 Z M 904.046875 869.949219 " clip-rule="nonzero"/></clipPath><clipPath id="31c4c3616b"><path d="M 904.046875 869.949219 L 1004.8125 946.789062 L 929.792969 1045.167969 L 829.027344 968.328125 Z M 904.046875 869.949219 " clip-rule="nonzero"/></clipPath></defs><g clip-path="url(#e7ccad191f)"><g clip-path="url(#d960b02f4b)"><g clip-path="url(#e2ad7eb032)"><path fill="#d0ff96" d="M 190.355469 365.570312 L 230.269531 371.734375 L 138.886719 479.742188 L 174.53125 391.257812 L 135.863281 385.382812 L 169.734375 322.570312 L 213.1875 328.300781 Z M 190.355469 365.570312 L 230.269531 371.734375 L 138.886719 479.742188 L 174.53125 391.257812 L 135.863281 385.382812 L 169.734375 322.570312 L 213.1875 328.300781 Z M 190.355469 365.570312 " fill-opacity="1" fill-rule="nonzero"/></g></g></g><g clip-path="url(#ab7023e7dc)"><g clip-path="url(#49fb7eb932)"><g clip-path="url(#bbf5d0fa5f)"><path fill="#000000" d="M 235.492188 384.96875 C 235.304688 384.46875 234.863281 384.113281 234.339844 384.035156 L 223.644531 382.421875 L 231.917969 372.546875 C 232.257812 372.136719 232.355469 371.578125 232.167969 371.082031 C 231.976562 370.585938 231.535156 370.226562 231.011719 370.148438 L 203.535156 366.007812 L 218.1875 342.636719 C 218.453125 342.214844 218.484375 341.683594 218.273438 341.230469 C 218.058594 340.777344 217.632812 340.464844 217.136719 340.398438 L 208.289062 339.234375 L 214.863281 328.753906 C 215.128906 328.328125 215.160156 327.796875 214.945312 327.347656 C 214.734375 326.894531 214.304688 326.582031 213.808594 326.515625 L 169.429688 320.664062 C 168.820312 320.582031 168.222656 320.890625 167.9375 321.433594 L 134.273438 385.433594 C 134.050781 385.859375 134.046875 386.367188 134.269531 386.796875 C 134.492188 387.222656 134.90625 387.515625 135.382812 387.578125 L 143.234375 388.613281 L 137.601562 399.320312 C 137.378906 399.746094 137.375 400.253906 137.597656 400.679688 C 137.816406 401.105469 138.234375 401.398438 138.710938 401.460938 L 167.957031 405.320312 L 135.8125 482.820312 C 135.535156 483.488281 135.785156 484.261719 136.40625 484.640625 C 136.585938 484.746094 136.78125 484.8125 136.976562 484.839844 C 137.460938 484.902344 137.964844 484.722656 138.296875 484.328125 L 150.136719 470.191406 L 139.136719 496.703125 C 138.859375 497.375 139.113281 498.148438 139.734375 498.523438 C 139.914062 498.632812 140.105469 498.699219 140.304688 498.726562 C 140.789062 498.789062 141.289062 498.609375 141.621094 498.210938 L 235.246094 386.429688 C 235.585938 386.023438 235.683594 385.464844 235.492188 384.96875 Z M 142.199219 475.085938 L 176.691406 391.925781 C 176.867188 391.503906 176.835938 391.023438 176.605469 390.628906 C 176.378906 390.234375 175.980469 389.964844 175.527344 389.90625 L 137.855469 384.9375 L 170.0625 323.710938 L 211.15625 329.128906 L 188.863281 364.691406 C 188.597656 365.109375 188.566406 365.636719 188.773438 366.085938 C 188.980469 366.535156 189.398438 366.851562 189.886719 366.925781 L 227.984375 372.664062 Z M 142.199219 475.085938 " fill-opacity="1" fill-rule="nonzero"/></g></g></g><g clip-path="url(#51cc239b90)"><g clip-path="url(#037ba2e61c)"><g clip-path="url(#79b5eb6c33)"><path fill="#ccaeeb" d="M 419.027344 47.046875 C 402.734375 71.957031 409.746094 105.476562 434.65625 121.769531 C 459.570312 138.0625 493.089844 131.050781 509.378906 106.140625 C 525.671875 81.226562 518.660156 47.707031 493.75 31.417969 C 468.839844 15.125 435.320312 22.136719 419.027344 47.046875 Z M 490.914062 94.0625 C 481.28125 108.789062 461.464844 112.9375 446.734375 103.304688 C 432.007812 93.671875 427.859375 73.851562 437.492188 59.125 C 447.125 44.394531 466.945312 40.25 481.671875 49.882812 C 496.402344 59.515625 500.546875 79.332031 490.914062 94.0625 Z M 490.914062 94.0625 " fill-opacity="1" fill-rule="nonzero"/></g></g></g><g clip-path="url(#45be48d8ea)"><g clip-path="url(#60ede429f2)"><g clip-path="url(#13d2365df0)"><path fill="#000000" d="M 418.015625 46.386719 C 401.359375 71.855469 408.527344 106.125 433.996094 122.78125 C 434.585938 123.164062 435.175781 123.53125 435.773438 123.890625 L 435.75 123.929688 L 452.816406 135.089844 C 478.285156 151.746094 512.558594 144.578125 529.214844 119.109375 C 545.871094 93.640625 538.699219 59.371094 513.230469 42.714844 L 494.410156 30.40625 C 468.941406 13.75 434.671875 20.917969 418.015625 46.386719 Z M 488.585938 29.644531 L 477.628906 46.398438 C 475.621094 45.507812 473.554688 44.828125 471.460938 44.359375 L 482.777344 27.058594 C 484.746094 27.796875 486.683594 28.65625 488.585938 29.644531 Z M 490.976562 122.207031 C 487.324219 124.34375 483.445312 126.023438 479.433594 127.226562 L 516.695312 70.25 C 517.203125 74.410156 517.21875 78.636719 516.726562 82.835938 Z M 515.746094 88.515625 C 514.386719 94.421875 511.984375 100.1875 508.476562 105.546875 C 504.972656 110.910156 500.652344 115.421875 495.785156 119.035156 Z M 476.121094 128.105469 C 473.132812 128.796875 470.085938 129.230469 467.015625 129.398438 L 484.496094 102.671875 C 487.304688 100.492188 489.804688 97.816406 491.855469 94.679688 C 493.910156 91.539062 495.355469 88.175781 496.230469 84.730469 L 513.707031 58.003906 C 514.785156 60.882812 515.609375 63.847656 516.175781 66.863281 Z M 488.980469 58.375 C 496.347656 68.421875 497.152344 82.402344 489.941406 93.425781 C 482.832031 104.296875 469.964844 109.175781 457.953125 106.695312 C 450.414062 96.386719 450.019531 82.371094 457.019531 71.667969 C 463.890625 61.164062 476.6875 55.863281 488.980469 58.375 Z M 457.226562 108.890625 L 445.886719 126.226562 C 443.914062 125.5 441.96875 124.644531 440.0625 123.664062 L 451.03125 106.894531 C 453.050781 107.773438 455.125 108.4375 457.226562 108.890625 Z M 459.679688 109.320312 C 462.136719 109.65625 464.617188 109.710938 467.0625 109.496094 L 454.566406 128.605469 C 452.398438 128.207031 450.246094 127.671875 448.121094 126.992188 Z M 470.058594 109.09375 C 473.433594 108.484375 476.707031 107.359375 479.753906 105.738281 L 464.230469 129.476562 C 461.835938 129.480469 459.433594 129.324219 457.042969 129 Z M 497.140625 79.160156 C 497.402344 75.71875 497.121094 72.265625 496.328125 68.929688 L 509.347656 49.023438 C 510.601562 51.085938 511.707031 53.226562 512.664062 55.421875 Z M 495.496094 66.023438 C 494.710938 63.695312 493.667969 61.449219 492.371094 59.328125 L 503.929688 41.65625 C 505.402344 43.332031 506.757812 45.089844 507.992188 46.914062 Z M 490.996094 57.257812 C 489.738281 55.511719 488.300781 53.875 486.683594 52.378906 L 497.652344 35.609375 C 499.316406 36.960938 500.875 38.402344 502.335938 39.917969 Z M 480.550781 26.28125 L 469.023438 43.910156 C 466.582031 43.550781 464.117188 43.472656 461.683594 43.664062 L 474.128906 24.632812 C 476.289062 25.042969 478.433594 25.59375 480.550781 26.28125 Z M 471.660156 24.226562 L 458.710938 44.027344 C 455.390625 44.589844 452.160156 45.652344 449.140625 47.191406 L 464.5 23.710938 C 466.886719 23.71875 469.28125 23.890625 471.660156 24.226562 Z M 419.929688 47.636719 C 424.21875 41.078125 429.730469 35.789062 435.964844 31.863281 L 411.90625 68.648438 C 413.003906 61.363281 415.640625 54.195312 419.929688 47.636719 Z M 411.398438 73.605469 L 440.300781 29.414062 C 443.507812 27.792969 446.863281 26.515625 450.308594 25.578125 L 411.898438 84.3125 C 411.375 80.78125 411.203125 77.195312 411.398438 73.605469 Z M 412.484375 87.59375 L 453.550781 24.800781 C 456.242188 24.25 458.976562 23.90625 461.726562 23.773438 L 444.550781 50.03125 C 441.484375 52.296875 438.757812 55.132812 436.550781 58.507812 C 434.34375 61.882812 432.835938 65.515625 431.992188 69.238281 L 414.816406 95.496094 C 413.835938 92.921875 413.058594 90.28125 412.484375 87.59375 Z M 415.871094 98.0625 L 431.230469 74.578125 C 431.03125 77.960938 431.351562 81.347656 432.167969 84.613281 L 419.21875 104.414062 C 417.957031 102.367188 416.839844 100.246094 415.871094 98.0625 Z M 420.578125 106.511719 L 433.023438 87.484375 C 433.828125 89.789062 434.886719 92.015625 436.191406 94.109375 L 424.664062 111.738281 C 423.183594 110.074219 421.820312 108.328125 420.578125 106.511719 Z M 426.265625 113.464844 L 437.582031 96.164062 C 438.851562 97.890625 440.300781 99.511719 441.921875 100.992188 L 430.964844 117.75 C 429.296875 116.40625 427.730469 114.972656 426.265625 113.464844 Z M 432.78125 119.148438 L 443.679688 102.488281 C 444.460938 103.101562 445.269531 103.691406 446.117188 104.246094 C 447.042969 104.851562 447.988281 105.402344 448.945312 105.902344 L 438.046875 122.570312 C 437.101562 122.035156 436.167969 121.46875 435.25 120.867188 C 434.40625 120.316406 433.585938 119.742188 432.78125 119.148438 Z M 495.839844 34.199219 L 484.941406 50.867188 C 484.097656 50.1875 483.214844 49.542969 482.289062 48.941406 C 481.441406 48.386719 480.578125 47.878906 479.699219 47.410156 L 490.597656 30.75 C 491.460938 31.246094 492.316406 31.769531 493.160156 32.320312 C 494.078125 32.921875 494.972656 33.550781 495.839844 34.199219 Z M 495.839844 34.199219 " fill-opacity="1" fill-rule="nonzero"/></g></g></g><g clip-path="url(#1a19779030)"><g clip-path="url(#ab17327eda)"><g clip-path="url(#3788ee347c)"><path fill="#07b4aa" d="M 505.710938 256.929688 L 602.890625 317.660156 L 510.777344 356.945312 Z M 505.710938 256.929688 L 602.890625 317.660156 L 510.777344 356.945312 Z M 505.710938 256.929688 " fill-opacity="1" fill-rule="nonzero"/></g></g></g><g clip-path="url(#f5d6aad3de)"><g clip-path="url(#d9e3822afe)"><g clip-path="url(#6744d20aec)"><path fill="#000000" d="M 498.613281 247.015625 L 503.679688 347.03125 C 503.695312 347.335938 503.855469 347.613281 504.113281 347.773438 C 504.371094 347.933594 504.691406 347.957031 504.972656 347.839844 L 509.292969 345.996094 L 509.847656 356.992188 C 509.863281 357.296875 510.027344 357.570312 510.285156 357.734375 C 510.542969 357.894531 510.859375 357.917969 511.140625 357.800781 L 603.257812 318.515625 C 603.574219 318.378906 603.792969 318.074219 603.820312 317.730469 C 603.847656 317.386719 603.679688 317.054688 603.386719 316.871094 L 592.917969 310.332031 L 597.085938 308.554688 C 597.40625 308.417969 597.621094 308.117188 597.648438 307.769531 C 597.675781 307.425781 597.507812 307.09375 597.214844 306.910156 L 500.035156 246.179688 C 499.738281 245.996094 499.367188 245.992188 499.070312 246.167969 C 498.773438 246.34375 498.59375 246.671875 498.613281 247.015625 Z M 578.15625 303.296875 L 576.003906 303.496094 L 575.242188 301.476562 Z M 562.992188 293.820312 L 560.839844 294.019531 L 560.078125 292 Z M 547.828125 284.34375 L 545.675781 284.542969 L 544.914062 282.523438 Z M 532.660156 274.867188 L 530.507812 275.066406 L 529.746094 273.046875 Z M 517.496094 265.390625 L 515.34375 265.589844 L 514.578125 263.566406 Z M 521.089844 341.824219 C 520.941406 341.429688 520.550781 341.1875 520.132812 341.226562 L 510.953125 342.082031 L 510.65625 336.226562 L 511.433594 338.28125 C 511.578125 338.671875 511.972656 338.914062 512.386719 338.875 L 522.875 337.902344 L 526.597656 347.753906 C 526.746094 348.148438 527.136719 348.390625 527.550781 348.351562 L 528.832031 348.234375 L 524.246094 350.1875 Z M 522.535156 350.917969 L 519.722656 352.117188 L 517.816406 347.066406 C 517.667969 346.671875 517.277344 346.429688 516.859375 346.46875 L 511.203125 346.992188 L 511.046875 343.9375 L 519.601562 343.140625 Z M 528.085938 346.4375 L 524.367188 336.582031 C 524.21875 336.191406 523.828125 335.945312 523.410156 335.984375 L 512.921875 336.960938 L 510.347656 330.148438 L 510 323.273438 L 510.988281 323.183594 L 514.707031 333.039062 C 514.855469 333.429688 515.246094 333.675781 515.664062 333.636719 L 526.152344 332.660156 L 529.871094 342.515625 C 530.019531 342.90625 530.410156 343.152344 530.828125 343.113281 L 541.316406 342.136719 L 541.566406 342.800781 L 534.433594 345.84375 Z M 542.804688 340.816406 C 542.65625 340.425781 542.265625 340.179688 541.847656 340.21875 L 531.359375 341.195312 L 527.640625 331.339844 C 527.492188 330.949219 527.101562 330.703125 526.683594 330.742188 L 516.195312 331.71875 L 512.476562 321.863281 C 512.328125 321.472656 511.9375 321.226562 511.519531 321.265625 L 509.90625 321.414062 L 509.753906 318.359375 L 514.261719 317.941406 L 517.984375 327.796875 C 518.132812 328.1875 518.523438 328.433594 518.9375 328.394531 L 529.425781 327.417969 L 533.148438 337.273438 C 533.296875 337.664062 533.6875 337.910156 534.101562 337.871094 L 544.589844 336.894531 L 546.09375 340.871094 L 543.277344 342.074219 Z M 546.078125 335.574219 C 545.933594 335.183594 545.539062 334.9375 545.125 334.976562 L 534.636719 335.953125 L 530.917969 326.097656 C 530.769531 325.707031 530.378906 325.460938 529.960938 325.5 L 519.472656 326.476562 L 515.75 316.621094 C 515.601562 316.230469 515.210938 315.984375 514.796875 316.023438 L 509.660156 316.5 L 509.503906 313.445312 L 517.539062 312.699219 L 521.257812 322.554688 C 521.40625 322.945312 521.796875 323.191406 522.214844 323.152344 L 532.703125 322.175781 L 536.421875 332.03125 C 536.570312 332.421875 536.960938 332.667969 537.378906 332.628906 L 547.867188 331.652344 L 550.617188 338.941406 L 547.804688 340.140625 Z M 549.355469 330.332031 C 549.207031 329.941406 548.816406 329.695312 548.398438 329.734375 L 537.910156 330.710938 L 534.191406 320.855469 C 534.042969 320.464844 533.652344 320.21875 533.238281 320.257812 L 522.746094 321.234375 L 519.027344 311.378906 C 518.878906 310.988281 518.488281 310.742188 518.070312 310.78125 L 509.410156 311.589844 L 509.195312 307.382812 L 509.367188 307.835938 C 509.515625 308.226562 509.90625 308.472656 510.324219 308.433594 L 520.8125 307.457031 L 524.535156 317.3125 C 524.683594 317.703125 525.074219 317.949219 525.488281 317.910156 L 535.980469 316.933594 L 539.699219 326.789062 C 539.847656 327.179688 540.238281 327.425781 540.652344 327.386719 L 551.140625 326.410156 L 554.863281 336.265625 C 554.976562 336.566406 555.234375 336.78125 555.535156 336.84375 L 552.332031 338.210938 Z M 556.351562 334.945312 L 552.632812 325.089844 C 552.484375 324.699219 552.09375 324.453125 551.675781 324.492188 L 541.1875 325.46875 L 537.46875 315.613281 C 537.320312 315.222656 536.929688 314.980469 536.511719 315.019531 L 526.023438 315.992188 L 522.300781 306.136719 C 522.226562 305.941406 522.09375 305.785156 521.925781 305.679688 C 521.757812 305.574219 521.554688 305.523438 521.347656 305.539062 L 510.855469 306.515625 L 508.890625 301.304688 L 508.457031 292.78125 L 508.921875 292.738281 L 512.644531 302.59375 C 512.792969 302.984375 513.183594 303.230469 513.597656 303.191406 L 524.089844 302.214844 L 527.808594 312.070312 C 527.957031 312.464844 528.347656 312.707031 528.765625 312.667969 L 539.253906 311.691406 L 542.972656 321.546875 C 543.121094 321.9375 543.511719 322.183594 543.929688 322.144531 L 554.417969 321.167969 L 558.136719 331.023438 C 558.285156 331.414062 558.675781 331.660156 559.09375 331.621094 L 569.582031 330.644531 L 569.652344 330.824219 L 561.003906 334.515625 Z M 571.070312 329.328125 C 570.921875 328.933594 570.53125 328.691406 570.117188 328.730469 L 559.628906 329.703125 L 555.90625 319.847656 C 555.757812 319.457031 555.367188 319.214844 554.949219 319.253906 L 544.464844 320.230469 L 540.742188 310.375 C 540.59375 309.980469 540.203125 309.738281 539.789062 309.777344 L 529.296875 310.753906 L 525.578125 300.898438 C 525.429688 300.503906 525.039062 300.261719 524.621094 300.300781 L 514.132812 301.273438 L 510.410156 291.417969 C 510.261719 291.027344 509.871094 290.78125 509.453125 290.820312 L 508.363281 290.921875 L 508.207031 287.867188 L 512.199219 287.496094 L 515.917969 297.351562 C 516.066406 297.742188 516.457031 297.988281 516.875 297.949219 L 527.363281 296.972656 L 531.085938 306.832031 C 531.234375 307.222656 531.625 307.464844 532.039062 307.425781 L 542.53125 306.453125 L 546.25 316.304688 C 546.398438 316.699219 546.789062 316.941406 547.207031 316.902344 L 557.691406 315.925781 L 561.414062 325.78125 C 561.5625 326.175781 561.953125 326.417969 562.371094 326.378906 L 572.859375 325.402344 L 574.175781 328.894531 L 571.363281 330.09375 Z M 574.347656 324.085938 C 574.199219 323.691406 573.808594 323.449219 573.390625 323.488281 L 562.902344 324.464844 L 559.183594 314.609375 C 559.035156 314.214844 558.644531 313.972656 558.226562 314.011719 L 547.738281 314.988281 L 544.019531 305.132812 C 543.871094 304.742188 543.480469 304.496094 543.0625 304.535156 L 532.574219 305.511719 L 528.851562 295.65625 C 528.707031 295.261719 528.3125 295.019531 527.898438 295.058594 L 517.40625 296.03125 L 513.6875 286.175781 C 513.539062 285.785156 513.148438 285.542969 512.730469 285.578125 L 508.113281 286.007812 L 507.960938 282.953125 L 515.472656 282.253906 L 519.195312 292.109375 C 519.34375 292.503906 519.734375 292.746094 520.148438 292.707031 L 530.640625 291.734375 L 534.359375 301.589844 C 534.507812 301.980469 534.898438 302.222656 535.316406 302.183594 L 545.804688 301.210938 L 549.523438 311.066406 C 549.671875 311.457031 550.0625 311.699219 550.480469 311.660156 L 560.96875 310.683594 L 564.6875 320.539062 C 564.835938 320.933594 565.226562 321.175781 565.644531 321.136719 L 576.132812 320.164062 L 578.703125 326.964844 L 575.886719 328.164062 Z M 577.621094 318.84375 C 577.476562 318.453125 577.082031 318.207031 576.667969 318.246094 L 566.179688 319.222656 L 562.457031 309.367188 C 562.308594 308.976562 561.917969 308.730469 561.5 308.769531 L 551.015625 309.746094 L 547.292969 299.890625 C 547.144531 299.5 546.753906 299.253906 546.339844 299.292969 L 535.851562 300.269531 L 532.128906 290.414062 C 531.980469 290.023438 531.589844 289.777344 531.171875 289.816406 L 520.683594 290.792969 L 516.960938 280.933594 C 516.8125 280.542969 516.421875 280.300781 516.007812 280.339844 L 507.867188 281.09375 L 507.703125 277.863281 C 507.867188 277.960938 508.058594 278.007812 508.257812 277.988281 L 518.75 277.011719 L 522.46875 286.871094 C 522.617188 287.261719 523.007812 287.503906 523.425781 287.464844 L 533.914062 286.492188 L 537.636719 296.347656 C 537.785156 296.738281 538.175781 296.984375 538.589844 296.945312 L 549.082031 295.96875 L 552.800781 305.824219 C 552.949219 306.214844 553.339844 306.460938 553.757812 306.421875 L 564.242188 305.445312 L 567.964844 315.300781 C 568.113281 315.691406 568.503906 315.933594 568.921875 315.898438 L 579.410156 314.921875 L 583.128906 324.777344 C 583.164062 324.867188 583.210938 324.945312 583.265625 325.019531 L 580.414062 326.234375 Z M 584.617188 323.457031 L 580.898438 313.601562 C 580.75 313.210938 580.359375 312.964844 579.941406 313.003906 L 569.453125 313.980469 L 565.734375 304.125 C 565.585938 303.734375 565.195312 303.488281 564.777344 303.527344 L 554.289062 304.503906 L 550.570312 294.648438 C 550.421875 294.257812 550.03125 294.011719 549.613281 294.050781 L 539.125 295.027344 L 535.402344 285.171875 C 535.257812 284.78125 534.863281 284.535156 534.449219 284.574219 L 523.957031 285.550781 L 520.238281 275.695312 C 520.089844 275.300781 519.699219 275.058594 519.28125 275.097656 L 508.792969 276.070312 L 507.429688 272.460938 L 506.921875 262.46875 L 510.578125 272.148438 C 510.726562 272.542969 511.117188 272.785156 511.535156 272.746094 L 522.023438 271.773438 L 525.746094 281.628906 C 525.894531 282.019531 526.285156 282.261719 526.699219 282.226562 L 537.191406 281.25 L 540.910156 291.105469 C 541.058594 291.496094 541.449219 291.742188 541.867188 291.703125 L 552.355469 290.726562 L 556.074219 300.582031 C 556.222656 300.972656 556.613281 301.21875 557.03125 301.179688 L 567.519531 300.203125 L 571.238281 310.058594 C 571.386719 310.449219 571.78125 310.695312 572.195312 310.65625 L 582.683594 309.679688 L 586.40625 319.535156 C 586.554688 319.925781 586.945312 320.171875 587.359375 320.132812 L 596.78125 319.253906 L 587.574219 323.183594 Z M 511.636719 355.566406 L 511.296875 348.851562 L 516.324219 348.382812 L 518.011719 352.847656 Z M 599.445312 318.117188 L 599.339844 317.835938 C 599.191406 317.445312 598.800781 317.199219 598.382812 317.238281 L 587.894531 318.214844 L 584.171875 308.359375 C 584.027344 307.96875 583.632812 307.722656 583.21875 307.761719 L 572.730469 308.738281 L 569.007812 298.882812 C 568.859375 298.492188 568.46875 298.246094 568.050781 298.285156 L 557.566406 299.261719 L 553.84375 289.40625 C 553.695312 289.015625 553.304688 288.769531 552.890625 288.808594 L 542.402344 289.785156 L 538.679688 279.929688 C 538.53125 279.539062 538.140625 279.292969 537.722656 279.332031 L 527.234375 280.308594 L 523.511719 270.453125 C 523.363281 270.0625 522.972656 269.816406 522.558594 269.855469 L 512.066406 270.832031 L 508.34375 260.972656 C 508.269531 260.777344 508.136719 260.617188 507.96875 260.515625 C 507.800781 260.410156 507.597656 260.355469 507.390625 260.375 L 506.820312 260.429688 L 506.730469 258.660156 L 511.976562 261.941406 L 513.855469 266.90625 C 514 267.300781 514.394531 267.542969 514.808594 267.503906 L 520.09375 267.015625 L 527.144531 271.421875 L 529.019531 276.386719 C 529.167969 276.777344 529.558594 277.023438 529.976562 276.984375 L 535.261719 276.492188 L 542.3125 280.898438 L 544.1875 285.863281 C 544.335938 286.253906 544.726562 286.5 545.144531 286.460938 L 550.425781 285.96875 L 557.476562 290.375 L 559.351562 295.339844 C 559.5 295.730469 559.890625 295.976562 560.308594 295.9375 L 565.589844 295.445312 L 572.640625 299.851562 L 574.515625 304.816406 C 574.664062 305.207031 575.054688 305.453125 575.472656 305.414062 L 580.757812 304.921875 L 587.804688 309.328125 L 589.679688 314.292969 C 589.828125 314.683594 590.21875 314.929688 590.636719 314.890625 L 595.921875 314.398438 L 600.890625 317.503906 Z M 590.40625 310.953125 L 593.320312 312.773438 L 591.167969 312.972656 Z M 590.40625 310.953125 " fill-opacity="1" fill-rule="nonzero"/></g></g></g><g clip-path="url(#0e523febdd)"><g clip-path="url(#fe60f10442)"><g clip-path="url(#a77d524e8f)"><path fill="#ff9003" d="M 141.777344 783.414062 L 154.449219 808.886719 C 154.996094 809.992188 154.546875 811.332031 153.445312 811.882812 L 115.160156 830.921875 C 114.054688 831.472656 113.605469 832.8125 114.15625 833.917969 L 133.199219 872.199219 C 133.746094 873.304688 133.296875 874.644531 132.191406 875.195312 L 106.71875 887.867188 C 105.617188 888.414062 104.273438 887.964844 103.726562 886.859375 L 84.683594 848.578125 C 84.132812 847.472656 82.792969 847.023438 81.6875 847.574219 L 43.40625 866.613281 C 42.300781 867.164062 40.960938 866.714844 40.410156 865.609375 L 27.742188 840.136719 C 27.191406 839.03125 27.640625 837.691406 28.746094 837.144531 L 67.027344 818.101562 C 68.132812 817.550781 68.582031 816.210938 68.035156 815.105469 L 48.992188 776.824219 C 48.441406 775.71875 48.890625 774.378906 49.996094 773.828125 L 75.46875 761.15625 C 76.574219 760.609375 77.914062 761.058594 78.464844 762.164062 L 97.507812 800.445312 C 98.054688 801.550781 99.394531 802 100.5 801.453125 L 138.785156 782.410156 C 139.886719 781.859375 141.230469 782.308594 141.777344 783.414062 Z M 141.777344 783.414062 L 154.449219 808.886719 C 154.996094 809.992188 154.546875 811.332031 153.445312 811.882812 L 115.160156 830.921875 C 114.054688 831.472656 113.605469 832.8125 114.15625 833.917969 L 133.199219 872.199219 C 133.746094 873.304688 133.296875 874.644531 132.191406 875.195312 L 106.71875 887.867188 C 105.617188 888.414062 104.273438 887.964844 103.726562 886.859375 L 84.683594 848.578125 C 84.132812 847.472656 82.792969 847.023438 81.6875 847.574219 L 43.40625 866.613281 C 42.300781 867.164062 40.960938 866.714844 40.410156 865.609375 L 27.742188 840.136719 C 27.191406 839.03125 27.640625 837.691406 28.746094 837.144531 L 67.027344 818.101562 C 68.132812 817.550781 68.582031 816.210938 68.035156 815.105469 L 48.992188 776.824219 C 48.441406 775.71875 48.890625 774.378906 49.996094 773.828125 L 75.46875 761.15625 C 76.574219 760.609375 77.914062 761.058594 78.464844 762.164062 L 97.507812 800.445312 C 98.054688 801.550781 99.394531 802 100.5 801.453125 L 138.785156 782.410156 C 139.886719 781.859375 141.230469 782.308594 141.777344 783.414062 Z M 141.777344 783.414062 " fill-opacity="1" fill-rule="nonzero"/></g></g></g><g clip-path="url(#e4ca4a792b)"><g clip-path="url(#3be43a20ba)"><g clip-path="url(#29d310564b)"><path fill="#000000" d="M 149.03125 766.050781 L 110.746094 785.09375 C 109.640625 785.644531 108.300781 785.191406 107.753906 784.089844 L 88.710938 745.804688 C 88.160156 744.699219 86.820312 744.25 85.714844 744.800781 L 60.242188 757.472656 C 59.136719 758.019531 58.6875 759.359375 59.238281 760.464844 L 62.128906 766.277344 L 49.394531 772.613281 C 47.621094 773.496094 46.894531 775.65625 47.777344 777.425781 L 63.324219 808.679688 L 38.992188 820.785156 C 37.886719 821.335938 37.4375 822.675781 37.988281 823.777344 L 40.878906 829.59375 L 28.140625 835.929688 C 26.371094 836.808594 25.644531 838.96875 26.527344 840.742188 L 39.199219 866.214844 C 40.078125 867.984375 42.238281 868.710938 44.007812 867.828125 L 82.292969 848.785156 C 82.726562 848.570312 83.253906 848.75 83.46875 849.179688 L 102.511719 887.464844 C 103.394531 889.238281 105.550781 889.960938 107.324219 889.082031 L 132.796875 876.410156 C 134.570312 875.527344 135.292969 873.371094 134.414062 871.597656 L 130.917969 864.570312 L 142.4375 858.835938 C 143.542969 858.289062 143.992188 856.949219 143.445312 855.84375 L 128.5 825.804688 L 154.046875 813.097656 C 155.820312 812.214844 156.542969 810.054688 155.664062 808.285156 L 152.167969 801.253906 L 163.6875 795.523438 C 164.792969 794.972656 165.242188 793.632812 164.695312 792.53125 L 152.023438 767.054688 C 151.472656 765.953125 150.132812 765.5 149.03125 766.050781 Z M 153.234375 809.492188 C 153.449219 809.925781 153.273438 810.453125 152.839844 810.667969 L 114.554688 829.710938 C 112.785156 830.589844 112.058594 832.75 112.941406 834.523438 L 131.984375 872.804688 C 132.199219 873.238281 132.023438 873.765625 131.589844 873.980469 L 106.117188 886.652344 C 105.683594 886.867188 105.15625 886.691406 104.941406 886.257812 L 85.898438 847.972656 C 85.015625 846.203125 82.855469 845.476562 81.085938 846.359375 L 42.800781 865.402344 C 42.367188 865.617188 41.839844 865.4375 41.625 865.007812 L 28.957031 839.53125 C 28.738281 839.101562 28.917969 838.574219 29.351562 838.355469 L 67.632812 819.316406 C 69.40625 818.433594 70.128906 816.273438 69.25 814.503906 L 50.207031 776.21875 C 49.992188 775.785156 50.167969 775.257812 50.601562 775.042969 L 76.074219 762.371094 C 76.507812 762.15625 77.035156 762.335938 77.25 762.765625 L 96.292969 801.050781 C 97.171875 802.824219 99.332031 803.546875 101.105469 802.664062 L 139.386719 783.625 C 139.820312 783.40625 140.347656 783.585938 140.5625 784.019531 Z M 149.097656 798.128906 L 142.6875 817.230469 L 146.121094 815.523438 L 150.804688 801.566406 Z M 124.871094 878.835938 L 129.554688 864.878906 L 127.847656 861.445312 L 121.4375 880.546875 Z M 144.011719 787.902344 L 132.460938 822.320312 L 135.894531 820.609375 L 145.71875 791.339844 Z M 114.644531 883.925781 L 124.46875 854.652344 L 122.761719 851.21875 L 111.210938 885.632812 Z M 138.785156 782.410156 L 137.046875 783.273438 L 122.234375 827.40625 L 125.667969 825.699219 L 140.253906 782.238281 C 139.773438 782.132812 139.257812 782.171875 138.785156 782.410156 Z M 117.671875 840.988281 L 102.859375 885.121094 L 103.726562 886.859375 C 103.960938 887.335938 104.347656 887.679688 104.792969 887.886719 L 119.382812 844.425781 Z M 126.816406 788.359375 L 97.773438 874.894531 L 99.480469 878.328125 L 114.292969 834.195312 L 114.15625 833.917969 C 113.605469 832.8125 114.054688 831.472656 115.160156 830.921875 L 115.441406 830.785156 L 130.253906 786.652344 Z M 120.023438 791.738281 L 116.589844 793.449219 L 92.6875 864.667969 L 94.394531 868.101562 Z M 110.636719 796.410156 L 107.203125 798.117188 L 88.015625 855.28125 L 89.726562 858.714844 Z M 97.507812 800.445312 L 97.324219 800.082031 L 81.324219 847.753906 L 81.6875 847.574219 C 82.519531 847.160156 83.480469 847.3125 84.140625 847.878906 L 99.648438 801.679688 C 98.777344 801.734375 97.917969 801.277344 97.507812 800.445312 Z M 71.097656 852.839844 L 74.53125 851.132812 L 93.945312 793.289062 L 92.238281 789.855469 Z M 60.867188 857.929688 L 64.304688 856.21875 L 88.859375 783.0625 L 87.152344 779.625 Z M 54.074219 861.308594 L 83.773438 772.832031 L 82.0625 769.398438 L 67.25 813.53125 L 68.035156 815.105469 C 68.582031 816.210938 68.132812 817.550781 67.027344 818.101562 L 65.453125 818.882812 L 50.640625 863.015625 Z M 55.226562 823.972656 L 41.003906 866.34375 C 41.664062 866.878906 42.597656 867.015625 43.40625 866.613281 L 43.847656 866.394531 L 58.660156 822.261719 Z M 78.464844 762.164062 C 78.0625 761.355469 77.234375 760.902344 76.386719 760.929688 L 62.164062 803.304688 L 63.871094 806.738281 L 78.683594 762.605469 Z M 66.25 765.742188 L 57.078125 793.078125 L 58.785156 796.511719 L 69.683594 764.035156 Z M 37.535156 859.824219 L 48.433594 827.351562 L 45 829.058594 L 35.824219 856.390625 Z M 56.167969 770.757812 L 52.0625 782.992188 L 53.769531 786.429688 L 59.601562 769.050781 Z M 32.519531 849.742188 L 38.351562 832.363281 L 34.917969 834.074219 L 30.808594 846.308594 Z M 32.519531 849.742188 " fill-opacity="1" fill-rule="nonzero"/></g></g></g><path fill="#ed80ff" d="M 726.96875 1374.363281 C 692.917969 1393.855469 688.1875 1451.4375 688.1875 1451.4375 C 688.1875 1451.4375 683.457031 1393.855469 649.40625 1374.363281 C 683.457031 1354.871094 688.1875 1297.289062 688.1875 1297.289062 C 688.1875 1297.289062 692.917969 1354.871094 726.96875 1374.363281 Z M 726.96875 1374.363281 C 692.917969 1393.855469 688.1875 1451.4375 688.1875 1451.4375 C 688.1875 1451.4375 683.457031 1393.855469 649.40625 1374.363281 C 683.457031 1354.871094 688.1875 1297.289062 688.1875 1297.289062 C 688.1875 1297.289062 692.917969 1354.871094 726.96875 1374.363281 Z M 726.96875 1374.363281 " fill-opacity="1" fill-rule="nonzero"/><g clip-path="url(#abbc68c198)"><path fill="#000000" d="M 744.335938 1385.335938 C 718.378906 1369.453125 710.011719 1331.195312 707.628906 1315.6875 C 707.480469 1314.71875 706.082031 1314.71875 705.933594 1315.6875 C 705.066406 1321.324219 703.410156 1329.964844 700.40625 1339.445312 C 698.707031 1335.535156 697.300781 1331.703125 696.148438 1328.144531 C 690.8125 1311.652344 689.585938 1297.320312 689.574219 1297.175781 C 689.511719 1296.457031 688.910156 1295.902344 688.1875 1295.902344 C 687.464844 1295.902344 686.863281 1296.457031 686.804688 1297.175781 C 686.792969 1297.320312 685.5625 1311.652344 680.226562 1328.144531 C 675.339844 1343.25 665.90625 1363.316406 648.714844 1373.15625 C 648.285156 1373.40625 648.015625 1373.863281 648.015625 1374.363281 C 648.015625 1374.863281 648.285156 1375.320312 648.714844 1375.570312 C 665.90625 1385.410156 675.339844 1405.476562 680.226562 1420.582031 C 685.5625 1437.074219 686.792969 1451.40625 686.804688 1451.550781 C 686.863281 1452.269531 687.464844 1452.824219 688.1875 1452.824219 C 688.910156 1452.824219 689.511719 1452.269531 689.574219 1451.550781 C 689.585938 1451.410156 690.792969 1437.269531 696.050781 1420.886719 C 701.9375 1434.664062 704.714844 1448.519531 705.933594 1456.4375 C 706.082031 1457.410156 707.480469 1457.410156 707.628906 1456.4375 C 710.011719 1440.933594 718.378906 1402.675781 744.335938 1386.792969 C 744.875 1386.460938 744.875 1385.667969 744.335938 1385.335938 Z M 688.1875 1441.375 C 687.1875 1435.648438 685.535156 1427.976562 682.890625 1419.78125 C 678.039062 1404.78125 668.800781 1385.003906 652.09375 1374.363281 C 668.800781 1363.722656 678.039062 1343.945312 682.890625 1328.945312 C 685.535156 1320.75 687.1875 1313.078125 688.1875 1307.351562 C 689.1875 1313.078125 690.839844 1320.75 693.488281 1328.945312 C 698.335938 1343.945312 707.574219 1363.722656 724.285156 1374.363281 C 707.574219 1385.003906 698.335938 1404.78125 693.488281 1419.78125 C 690.839844 1427.976562 689.1875 1435.648438 688.1875 1441.375 Z M 688.1875 1441.375 " fill-opacity="1" fill-rule="nonzero"/></g><g clip-path="url(#fa11d2b955)"><g clip-path="url(#69d567c849)"><g clip-path="url(#fee8c4d2fc)"><path fill="#d0ff96" d="M 953.820312 909.324219 L 945.476562 952.011719 L 975.910156 983.085938 L 932.734375 988.339844 L 912.589844 1026.886719 L 894.25 987.449219 L 851.363281 980.195312 L 883.203125 950.566406 L 876.847656 907.542969 L 914.863281 928.667969 Z M 953.820312 909.324219 L 945.476562 952.011719 L 975.910156 983.085938 L 932.734375 988.339844 L 912.589844 1026.886719 L 894.25 987.449219 L 851.363281 980.195312 L 883.203125 950.566406 L 876.847656 907.542969 L 914.863281 928.667969 Z M 953.820312 909.324219 " fill-opacity="1" fill-rule="nonzero"/></g></g></g><g clip-path="url(#ed4ec351be)"><g clip-path="url(#9da170b7c9)"><g clip-path="url(#31c4c3616b)"><path fill="#000000" d="M 976.847656 983.714844 C 976.898438 983.636719 976.945312 983.550781 976.976562 983.457031 C 977.117188 983.050781 977.019531 982.601562 976.71875 982.292969 L 946.699219 951.644531 L 954.929688 909.542969 C 955.011719 909.121094 954.847656 908.6875 954.507812 908.429688 C 954.164062 908.167969 953.703125 908.125 953.320312 908.3125 L 914.894531 927.390625 L 877.394531 906.554688 C 877.019531 906.347656 876.558594 906.367188 876.203125 906.613281 C 876.125 906.667969 876.054688 906.734375 875.992188 906.804688 L 875.988281 906.804688 L 874.332031 908.976562 L 874.335938 908.976562 C 874.167969 909.210938 874.089844 909.503906 874.132812 909.800781 L 880.324219 951.707031 L 850.59375 979.371094 C 850.546875 979.414062 850.507812 979.464844 850.46875 979.515625 L 850.464844 979.511719 L 848.890625 981.578125 C 848.886719 981.582031 848.886719 981.585938 848.882812 981.589844 L 848.84375 981.640625 L 848.847656 981.640625 C 848.648438 981.921875 848.585938 982.277344 848.683594 982.613281 C 848.808594 983.027344 849.15625 983.332031 849.578125 983.402344 L 891.878906 990.554688 L 909.96875 1029.457031 C 910.046875 1029.625 910.164062 1029.769531 910.308594 1029.878906 C 910.492188 1030.019531 910.722656 1030.101562 910.964844 1030.109375 C 911.351562 1030.117188 911.710938 1029.925781 911.925781 1029.609375 L 913.441406 1027.625 C 913.441406 1027.625 913.441406 1027.621094 913.445312 1027.621094 L 913.484375 1027.566406 L 913.480469 1027.566406 C 913.519531 1027.515625 913.558594 1027.464844 913.589844 1027.410156 L 932.402344 991.417969 L 974.449219 986.296875 C 974.746094 986.261719 975.007812 986.109375 975.191406 985.886719 Z M 932.601562 987.21875 C 932.230469 987.265625 931.90625 987.488281 931.734375 987.816406 L 912.648438 1024.335938 L 895.273438 986.972656 C 895.191406 986.804688 895.074219 986.660156 894.933594 986.550781 C 894.789062 986.441406 894.621094 986.367188 894.4375 986.335938 L 853.804688 979.464844 L 883.972656 951.394531 C 884.246094 951.140625 884.375 950.769531 884.320312 950.402344 L 878.296875 909.636719 L 914.316406 929.652344 C 914.640625 929.835938 915.035156 929.84375 915.367188 929.679688 L 952.273438 911.351562 L 944.371094 951.792969 C 944.296875 952.160156 944.410156 952.535156 944.671875 952.800781 L 973.503906 982.238281 Z M 932.601562 987.21875 " fill-opacity="1" fill-rule="nonzero"/></g></g></g></svg>