<svg xmlns="http://www.w3.org/2000/svg" xmlns:xlink="http://www.w3.org/1999/xlink" width="160" zoomAndPan="magnify" viewBox="0 0 120 136.499996" height="182" preserveAspectRatio="xMidYMid meet" version="1.0"><defs><filter x="0%" y="0%" width="100%" height="100%" id="7973d8f029"><feColorMatrix values="0 0 0 0 1 0 0 0 0 1 0 0 0 0 1 0 0 0 1 0" color-interpolation-filters="sRGB"/></filter><g/><mask id="fd4cd6a311"><g filter="url(#7973d8f029)"><rect x="-12" width="144" fill="#000000" y="-13.65" height="163.799995" fill-opacity="0.41"/></g></mask><clipPath id="5794e8dce7"><path d="M 0.75 0.769531 L 113.242188 0.769531 L 113.242188 104.359375 L 0.75 104.359375 Z M 0.75 0.769531 " clip-rule="nonzero"/></clipPath><clipPath id="0e4d294715"><path d="M 15.695312 0.769531 L 98.441406 0.769531 C 106.695312 0.769531 113.386719 7.460938 113.386719 15.714844 L 113.386719 89.414062 C 113.386719 97.667969 106.695312 104.359375 98.441406 104.359375 L 15.695312 104.359375 C 7.441406 104.359375 0.75 97.667969 0.75 89.414062 L 0.75 15.714844 C 0.75 7.460938 7.441406 0.769531 15.695312 0.769531 Z M 15.695312 0.769531 " clip-rule="nonzero"/></clipPath><linearGradient x1="0" gradientTransform="matrix(0.404647, 0, 0, 0.404647, 0.750332, 0.770649)" y1="0" x2="278" gradientUnits="userSpaceOnUse" y2="0" id="5f006a104c"><stop stop-opacity="1" stop-color="rgb(11.799622%, 85.899353%, 79.598999%)" offset="0"/><stop stop-opacity="1" stop-color="rgb(11.752319%, 85.742188%, 79.530334%)" offset="0.0078125"/><stop stop-opacity="1" stop-color="rgb(11.660767%, 85.430908%, 79.393005%)" offset="0.015625"/><stop stop-opacity="1" stop-color="rgb(11.569214%, 85.118103%, 79.255676%)" offset="0.0234375"/><stop stop-opacity="1" stop-color="rgb(11.476135%, 84.806824%, 79.118347%)" offset="0.03125"/><stop stop-opacity="1" stop-color="rgb(11.384583%, 84.494019%, 78.981018%)" offset="0.0390625"/><stop stop-opacity="1" stop-color="rgb(11.29303%, 84.182739%, 78.843689%)" offset="0.046875"/><stop stop-opacity="1" stop-color="rgb(11.199951%, 83.869934%, 78.70636%)" offset="0.0546875"/><stop stop-opacity="1" stop-color="rgb(11.108398%, 83.558655%, 78.569031%)" offset="0.0625"/><stop stop-opacity="1" stop-color="rgb(11.016846%, 83.24585%, 78.431702%)" offset="0.0703125"/><stop stop-opacity="1" stop-color="rgb(10.923767%, 82.933044%, 78.294373%)" offset="0.078125"/><stop stop-opacity="1" stop-color="rgb(10.832214%, 82.621765%, 78.157043%)" offset="0.0859375"/><stop stop-opacity="1" stop-color="rgb(10.740662%, 82.30896%, 78.019714%)" offset="0.09375"/><stop stop-opacity="1" stop-color="rgb(10.647583%, 81.997681%, 77.882385%)" offset="0.101562"/><stop stop-opacity="1" stop-color="rgb(10.55603%, 81.684875%, 77.745056%)" offset="0.109375"/><stop stop-opacity="1" stop-color="rgb(10.464478%, 81.373596%, 77.607727%)" offset="0.117188"/><stop stop-opacity="1" stop-color="rgb(10.371399%, 81.060791%, 77.470398%)" offset="0.125"/><stop stop-opacity="1" stop-color="rgb(10.279846%, 80.749512%, 77.333069%)" offset="0.132812"/><stop stop-opacity="1" stop-color="rgb(10.188293%, 80.436707%, 77.19574%)" offset="0.140625"/><stop stop-opacity="1" stop-color="rgb(10.095215%, 80.125427%, 77.058411%)" offset="0.148438"/><stop stop-opacity="1" stop-color="rgb(10.003662%, 79.812622%, 76.921082%)" offset="0.15625"/><stop stop-opacity="1" stop-color="rgb(9.912109%, 79.499817%, 76.783752%)" offset="0.164062"/><stop stop-opacity="1" stop-color="rgb(9.819031%, 79.188538%, 76.646423%)" offset="0.171875"/><stop stop-opacity="1" stop-color="rgb(9.727478%, 78.875732%, 76.509094%)" offset="0.179688"/><stop stop-opacity="1" stop-color="rgb(9.635925%, 78.564453%, 76.371765%)" offset="0.1875"/><stop stop-opacity="1" stop-color="rgb(9.542847%, 78.251648%, 76.234436%)" offset="0.195312"/><stop stop-opacity="1" stop-color="rgb(9.451294%, 77.940369%, 76.097107%)" offset="0.203125"/><stop stop-opacity="1" stop-color="rgb(9.359741%, 77.627563%, 75.959778%)" offset="0.210938"/><stop stop-opacity="1" stop-color="rgb(9.266663%, 77.316284%, 75.822449%)" offset="0.21875"/><stop stop-opacity="1" stop-color="rgb(9.17511%, 77.003479%, 75.68512%)" offset="0.226562"/><stop stop-opacity="1" stop-color="rgb(9.083557%, 76.6922%, 75.547791%)" offset="0.234375"/><stop stop-opacity="1" stop-color="rgb(8.990479%, 76.379395%, 75.410461%)" offset="0.242188"/><stop stop-opacity="1" stop-color="rgb(8.898926%, 76.066589%, 75.273132%)" offset="0.25"/><stop stop-opacity="1" stop-color="rgb(8.805847%, 75.75531%, 75.135803%)" offset="0.257812"/><stop stop-opacity="1" stop-color="rgb(8.714294%, 75.442505%, 74.998474%)" offset="0.265625"/><stop stop-opacity="1" stop-color="rgb(8.622742%, 75.131226%, 74.861145%)" offset="0.273438"/><stop stop-opacity="1" stop-color="rgb(8.529663%, 74.81842%, 74.723816%)" offset="0.28125"/><stop stop-opacity="1" stop-color="rgb(8.43811%, 74.507141%, 74.586487%)" offset="0.289062"/><stop stop-opacity="1" stop-color="rgb(8.346558%, 74.194336%, 74.449158%)" offset="0.296875"/><stop stop-opacity="1" stop-color="rgb(8.253479%, 73.883057%, 74.311829%)" offset="0.304688"/><stop stop-opacity="1" stop-color="rgb(8.161926%, 73.570251%, 74.1745%)" offset="0.3125"/><stop stop-opacity="1" stop-color="rgb(8.070374%, 73.257446%, 74.03717%)" offset="0.320312"/><stop stop-opacity="1" stop-color="rgb(7.977295%, 72.946167%, 73.899841%)" offset="0.328125"/><stop stop-opacity="1" stop-color="rgb(7.885742%, 72.633362%, 73.762512%)" offset="0.335938"/><stop stop-opacity="1" stop-color="rgb(7.794189%, 72.322083%, 73.625183%)" offset="0.34375"/><stop stop-opacity="1" stop-color="rgb(7.701111%, 72.009277%, 73.487854%)" offset="0.351562"/><stop stop-opacity="1" stop-color="rgb(7.609558%, 71.697998%, 73.350525%)" offset="0.359375"/><stop stop-opacity="1" stop-color="rgb(7.518005%, 71.385193%, 73.213196%)" offset="0.367188"/><stop stop-opacity="1" stop-color="rgb(7.424927%, 71.073914%, 73.075867%)" offset="0.375"/><stop stop-opacity="1" stop-color="rgb(7.333374%, 70.761108%, 72.938538%)" offset="0.382812"/><stop stop-opacity="1" stop-color="rgb(7.241821%, 70.449829%, 72.801208%)" offset="0.390625"/><stop stop-opacity="1" stop-color="rgb(7.148743%, 70.137024%, 72.663879%)" offset="0.398438"/><stop stop-opacity="1" stop-color="rgb(7.05719%, 69.824219%, 72.52655%)" offset="0.40625"/><stop stop-opacity="1" stop-color="rgb(6.965637%, 69.512939%, 72.389221%)" offset="0.414062"/><stop stop-opacity="1" stop-color="rgb(6.872559%, 69.200134%, 72.251892%)" offset="0.421875"/><stop stop-opacity="1" stop-color="rgb(6.781006%, 68.888855%, 72.114563%)" offset="0.429688"/><stop stop-opacity="1" stop-color="rgb(6.689453%, 68.57605%, 71.977234%)" offset="0.4375"/><stop stop-opacity="1" stop-color="rgb(6.596375%, 68.264771%, 71.839905%)" offset="0.445312"/><stop stop-opacity="1" stop-color="rgb(6.504822%, 67.951965%, 71.702576%)" offset="0.453125"/><stop stop-opacity="1" stop-color="rgb(6.413269%, 67.640686%, 71.565247%)" offset="0.460938"/><stop stop-opacity="1" stop-color="rgb(6.32019%, 67.327881%, 71.427917%)" offset="0.46875"/><stop stop-opacity="1" stop-color="rgb(6.228638%, 67.016602%, 71.290588%)" offset="0.476562"/><stop stop-opacity="1" stop-color="rgb(6.137085%, 66.703796%, 71.153259%)" offset="0.484375"/><stop stop-opacity="1" stop-color="rgb(6.044006%, 66.390991%, 71.01593%)" offset="0.492188"/><stop stop-opacity="1" stop-color="rgb(5.952454%, 66.079712%, 70.878601%)" offset="0.5"/><stop stop-opacity="1" stop-color="rgb(5.860901%, 65.766907%, 70.741272%)" offset="0.507812"/><stop stop-opacity="1" stop-color="rgb(5.767822%, 65.455627%, 70.603943%)" offset="0.515625"/><stop stop-opacity="1" stop-color="rgb(5.67627%, 65.142822%, 70.466614%)" offset="0.523438"/><stop stop-opacity="1" stop-color="rgb(5.584717%, 64.831543%, 70.329285%)" offset="0.53125"/><stop stop-opacity="1" stop-color="rgb(5.491638%, 64.518738%, 70.191956%)" offset="0.539062"/><stop stop-opacity="1" stop-color="rgb(5.400085%, 64.207458%, 70.054626%)" offset="0.546875"/><stop stop-opacity="1" stop-color="rgb(5.308533%, 63.894653%, 69.917297%)" offset="0.554687"/><stop stop-opacity="1" stop-color="rgb(5.215454%, 63.583374%, 69.779968%)" offset="0.5625"/><stop stop-opacity="1" stop-color="rgb(5.123901%, 63.270569%, 69.642639%)" offset="0.570312"/><stop stop-opacity="1" stop-color="rgb(5.030823%, 62.957764%, 69.50531%)" offset="0.578125"/><stop stop-opacity="1" stop-color="rgb(4.93927%, 62.646484%, 69.367981%)" offset="0.585938"/><stop stop-opacity="1" stop-color="rgb(4.847717%, 62.333679%, 69.230652%)" offset="0.59375"/><stop stop-opacity="1" stop-color="rgb(4.754639%, 62.0224%, 69.093323%)" offset="0.601562"/><stop stop-opacity="1" stop-color="rgb(4.663086%, 61.709595%, 68.955994%)" offset="0.609375"/><stop stop-opacity="1" stop-color="rgb(4.571533%, 61.398315%, 68.818665%)" offset="0.617188"/><stop stop-opacity="1" stop-color="rgb(4.478455%, 61.08551%, 68.681335%)" offset="0.625"/><stop stop-opacity="1" stop-color="rgb(4.386902%, 60.774231%, 68.544006%)" offset="0.632812"/><stop stop-opacity="1" stop-color="rgb(4.295349%, 60.461426%, 68.406677%)" offset="0.640625"/><stop stop-opacity="1" stop-color="rgb(4.202271%, 60.150146%, 68.269348%)" offset="0.648438"/><stop stop-opacity="1" stop-color="rgb(4.110718%, 59.837341%, 68.132019%)" offset="0.65625"/><stop stop-opacity="1" stop-color="rgb(4.019165%, 59.524536%, 67.99469%)" offset="0.664062"/><stop stop-opacity="1" stop-color="rgb(3.926086%, 59.213257%, 67.857361%)" offset="0.671875"/><stop stop-opacity="1" stop-color="rgb(3.834534%, 58.900452%, 67.720032%)" offset="0.679688"/><stop stop-opacity="1" stop-color="rgb(3.742981%, 58.589172%, 67.582703%)" offset="0.6875"/><stop stop-opacity="1" stop-color="rgb(3.649902%, 58.276367%, 67.445374%)" offset="0.695312"/><stop stop-opacity="1" stop-color="rgb(3.55835%, 57.965088%, 67.308044%)" offset="0.703125"/><stop stop-opacity="1" stop-color="rgb(3.466797%, 57.652283%, 67.170715%)" offset="0.710938"/><stop stop-opacity="1" stop-color="rgb(3.373718%, 57.341003%, 67.033386%)" offset="0.71875"/><stop stop-opacity="1" stop-color="rgb(3.282166%, 57.028198%, 66.896057%)" offset="0.726562"/><stop stop-opacity="1" stop-color="rgb(3.190613%, 56.715393%, 66.758728%)" offset="0.734375"/><stop stop-opacity="1" stop-color="rgb(3.097534%, 56.404114%, 66.621399%)" offset="0.742188"/><stop stop-opacity="1" stop-color="rgb(3.005981%, 56.091309%, 66.48407%)" offset="0.75"/><stop stop-opacity="1" stop-color="rgb(2.914429%, 55.780029%, 66.346741%)" offset="0.757812"/><stop stop-opacity="1" stop-color="rgb(2.82135%, 55.467224%, 66.209412%)" offset="0.765625"/><stop stop-opacity="1" stop-color="rgb(2.729797%, 55.155945%, 66.072083%)" offset="0.773438"/><stop stop-opacity="1" stop-color="rgb(2.638245%, 54.84314%, 65.934753%)" offset="0.78125"/><stop stop-opacity="1" stop-color="rgb(2.545166%, 54.53186%, 65.797424%)" offset="0.789062"/><stop stop-opacity="1" stop-color="rgb(2.453613%, 54.219055%, 65.660095%)" offset="0.796875"/><stop stop-opacity="1" stop-color="rgb(2.362061%, 53.907776%, 65.522766%)" offset="0.804688"/><stop stop-opacity="1" stop-color="rgb(2.268982%, 53.594971%, 65.385437%)" offset="0.8125"/><stop stop-opacity="1" stop-color="rgb(2.177429%, 53.282166%, 65.248108%)" offset="0.820312"/><stop stop-opacity="1" stop-color="rgb(2.085876%, 52.970886%, 65.110779%)" offset="0.828125"/><stop stop-opacity="1" stop-color="rgb(1.992798%, 52.658081%, 64.97345%)" offset="0.835938"/><stop stop-opacity="1" stop-color="rgb(1.901245%, 52.346802%, 64.836121%)" offset="0.84375"/><stop stop-opacity="1" stop-color="rgb(1.809692%, 52.033997%, 64.698792%)" offset="0.851562"/><stop stop-opacity="1" stop-color="rgb(1.716614%, 51.722717%, 64.561462%)" offset="0.859375"/><stop stop-opacity="1" stop-color="rgb(1.625061%, 51.409912%, 64.424133%)" offset="0.867188"/><stop stop-opacity="1" stop-color="rgb(1.533508%, 51.098633%, 64.286804%)" offset="0.875"/><stop stop-opacity="1" stop-color="rgb(1.44043%, 50.785828%, 64.149475%)" offset="0.882812"/><stop stop-opacity="1" stop-color="rgb(1.348877%, 50.474548%, 64.012146%)" offset="0.890625"/><stop stop-opacity="1" stop-color="rgb(1.255798%, 50.161743%, 63.874817%)" offset="0.898438"/><stop stop-opacity="1" stop-color="rgb(1.164246%, 49.848938%, 63.737488%)" offset="0.90625"/><stop stop-opacity="1" stop-color="rgb(1.072693%, 49.537659%, 63.600159%)" offset="0.914062"/><stop stop-opacity="1" stop-color="rgb(0.979614%, 49.224854%, 63.46283%)" offset="0.921875"/><stop stop-opacity="1" stop-color="rgb(0.888062%, 48.913574%, 63.3255%)" offset="0.929688"/><stop stop-opacity="1" stop-color="rgb(0.796509%, 48.600769%, 63.188171%)" offset="0.9375"/><stop stop-opacity="1" stop-color="rgb(0.70343%, 48.28949%, 63.050842%)" offset="0.945313"/><stop stop-opacity="1" stop-color="rgb(0.611877%, 47.976685%, 62.913513%)" offset="0.953125"/><stop stop-opacity="1" stop-color="rgb(0.520325%, 47.665405%, 62.776184%)" offset="0.960938"/><stop stop-opacity="1" stop-color="rgb(0.427246%, 47.3526%, 62.638855%)" offset="0.96875"/><stop stop-opacity="1" stop-color="rgb(0.335693%, 47.041321%, 62.501526%)" offset="0.976562"/><stop stop-opacity="1" stop-color="rgb(0.244141%, 46.728516%, 62.364197%)" offset="0.984375"/><stop stop-opacity="1" stop-color="rgb(0.151062%, 46.41571%, 62.226868%)" offset="0.992188"/><stop stop-opacity="1" stop-color="rgb(0.0595093%, 46.104431%, 62.089539%)" offset="1"/></linearGradient><clipPath id="aca9c77e6e"><rect x="0" width="114" y="0" height="105"/></clipPath><clipPath id="51d9920c34"><path d="M 4.195312 0.445312 L 115 0.445312 L 115 133.535156 L 4.195312 133.535156 Z M 4.195312 0.445312 " clip-rule="nonzero"/></clipPath><clipPath id="79e30a5928"><path d="M 6.230469 133.234375 L 112.980469 133.234375 C 114.050781 133.234375 114.898438 132.390625 114.898438 131.320312 L 114.898438 2.480469 C 114.898438 1.410156 114.050781 0.5625 112.980469 0.5625 L 6.230469 0.5625 C 5.160156 0.5625 4.3125 1.410156 4.3125 2.480469 L 4.3125 131.320312 C 4.3125 132.390625 5.160156 133.234375 6.230469 133.234375 Z M 6.230469 133.234375 " clip-rule="nonzero"/></clipPath><clipPath id="25cec703c5"><path d="M 3.75 0 L 117.320312 0 L 117.320312 135.75 L 3.75 135.75 Z M 3.75 0 " clip-rule="nonzero"/></clipPath><clipPath id="74ed2ae84c"><path d="M 115.402344 1.972656 C 115.179688 0.84375 114.164062 0 112.980469 0 L 6.230469 0 C 4.878906 0 3.75 1.128906 3.75 2.480469 L 3.75 131.320312 C 3.75 132.503906 4.539062 133.460938 5.667969 133.742188 C 5.890625 134.871094 6.90625 135.714844 8.089844 135.714844 L 114.839844 135.714844 C 116.191406 135.714844 117.320312 134.589844 117.320312 133.234375 L 117.320312 4.398438 C 117.320312 3.214844 116.53125 2.253906 115.402344 1.972656 Z M 4.3125 131.320312 L 4.3125 2.480469 C 4.3125 1.410156 5.160156 0.5625 6.230469 0.5625 L 112.980469 0.5625 C 114.050781 0.5625 114.898438 1.410156 114.898438 2.480469 L 114.898438 131.320312 C 114.898438 132.390625 114.050781 133.234375 112.980469 133.234375 L 6.230469 133.234375 C 5.160156 133.234375 4.3125 132.390625 4.3125 131.320312 Z M 4.3125 131.320312 " clip-rule="nonzero"/></clipPath><clipPath id="707df1c4eb"><path d="M 16.878906 69 L 21 69 L 21 73 L 16.878906 73 Z M 16.878906 69 " clip-rule="nonzero"/></clipPath><clipPath id="e5a4e7c663"><path d="M 100 69 L 104.308594 69 L 104.308594 73 L 100 73 Z M 100 69 " clip-rule="nonzero"/></clipPath><clipPath id="2c738c9d83"><path d="M 20 55 L 103 55 L 103 80.914062 L 20 80.914062 Z M 20 55 " clip-rule="nonzero"/></clipPath></defs><g mask="url(#fd4cd6a311)"><g transform="matrix(1, 0, 0, 1, 3, 0)"><g clip-path="url(#aca9c77e6e)"><g clip-path="url(#5794e8dce7)"><g clip-path="url(#0e4d294715)"><path fill="url(#5f006a104c)" d="M 0.75 0.769531 L 0.75 104.359375 L 113.242188 104.359375 L 113.242188 0.769531 Z M 0.75 0.769531 " fill-rule="nonzero"/></g></g></g></g></g><g clip-path="url(#51d9920c34)"><g clip-path="url(#79e30a5928)"><path fill="#d0ff96" d="M 3.75 0 L 117.320312 0 L 117.320312 135.75 L 3.75 135.75 Z M 3.75 0 " fill-opacity="1" fill-rule="nonzero"/></g></g><g clip-path="url(#25cec703c5)"><g clip-path="url(#74ed2ae84c)"><path fill="#231f20" d="M 3.75 0 L 117.320312 0 L 117.320312 135.75 L 3.75 135.75 Z M 3.75 0 " fill-opacity="1" fill-rule="nonzero"/></g></g><path fill="#000000" d="M 17.296875 70.785156 C 17.296875 70.03125 17.910156 69.417969 18.667969 69.417969 C 19.429688 69.417969 20.042969 70.03125 20.042969 70.785156 C 20.042969 71.542969 19.429688 72.15625 18.667969 72.15625 C 17.910156 72.15625 17.296875 71.542969 17.296875 70.785156 " fill-opacity="1" fill-rule="nonzero"/><g clip-path="url(#707df1c4eb)"><path fill="#000000" d="M 18.667969 69.765625 C 18.105469 69.765625 17.644531 70.222656 17.644531 70.785156 C 17.644531 71.351562 18.105469 71.808594 18.667969 71.808594 C 19.234375 71.808594 19.691406 71.351562 19.691406 70.785156 C 19.691406 70.222656 19.234375 69.765625 18.667969 69.765625 Z M 18.667969 72.507812 C 17.71875 72.507812 16.945312 71.734375 16.945312 70.785156 C 16.945312 69.839844 17.71875 69.066406 18.667969 69.066406 C 19.621094 69.066406 20.394531 69.839844 20.394531 70.785156 C 20.394531 71.734375 19.621094 72.507812 18.667969 72.507812 " fill-opacity="1" fill-rule="nonzero"/></g><path fill="#000000" d="M 101.144531 70.785156 C 101.144531 70.03125 101.757812 69.417969 102.515625 69.417969 C 103.277344 69.417969 103.890625 70.03125 103.890625 70.785156 C 103.890625 71.542969 103.277344 72.15625 102.515625 72.15625 C 101.757812 72.15625 101.144531 71.542969 101.144531 70.785156 " fill-opacity="1" fill-rule="nonzero"/><g clip-path="url(#e5a4e7c663)"><path fill="#000000" d="M 102.515625 69.765625 C 101.953125 69.765625 101.492188 70.222656 101.492188 70.785156 C 101.492188 71.351562 101.953125 71.808594 102.515625 71.808594 C 103.082031 71.808594 103.542969 71.351562 103.542969 70.785156 C 103.542969 70.222656 103.082031 69.765625 102.515625 69.765625 Z M 102.515625 72.507812 C 101.566406 72.507812 100.792969 71.734375 100.792969 70.785156 C 100.792969 69.839844 101.566406 69.066406 102.515625 69.066406 C 103.46875 69.066406 104.242188 69.839844 104.242188 70.785156 C 104.242188 71.734375 103.46875 72.507812 102.515625 72.507812 " fill-opacity="1" fill-rule="nonzero"/></g><g clip-path="url(#2c738c9d83)"><path fill="#000000" d="M 30.515625 80.917969 C 28.515625 80.917969 26.957031 80.753906 25.886719 80.429688 C 24.820312 80.109375 24.171875 79.609375 23.953125 78.945312 C 23.609375 77.910156 24.300781 76.617188 26.128906 74.882812 C 27.597656 73.484375 29.523438 72.070312 31.222656 70.816406 C 32.683594 69.742188 34.0625 68.726562 34.382812 68.246094 C 35.238281 66.96875 34.644531 64.949219 33.558594 63.863281 C 32.722656 63.027344 31.9375 62.667969 31.160156 62.765625 C 29.457031 62.972656 28.042969 65.328125 26.902344 67.21875 C 26.351562 68.132812 25.875 68.925781 25.429688 69.371094 C 24.386719 70.410156 23.28125 70.894531 21.957031 70.894531 C 21.695312 70.894531 20.839844 70.976562 20.632812 71.003906 C 20.597656 71.011719 20.566406 71.019531 20.53125 71.019531 L 20.488281 71.015625 C 20.308594 71 20.167969 70.847656 20.167969 70.667969 C 20.167969 70.597656 20.195312 70.355469 20.523438 70.3125 C 20.554688 70.308594 20.601562 70.300781 20.660156 70.296875 C 20.777344 70.285156 20.933594 70.269531 21.089844 70.253906 C 21.328125 70.230469 21.757812 70.195312 21.957031 70.195312 C 23.101562 70.195312 24.019531 69.789062 24.933594 68.875 C 25.320312 68.492188 25.796875 67.699219 26.300781 66.859375 C 27.519531 64.835938 29.03125 62.320312 31.074219 62.070312 C 32.066406 61.949219 33.066406 62.386719 34.054688 63.367188 C 35.332031 64.644531 36.046875 67.019531 34.964844 68.636719 C 34.578125 69.214844 33.28125 70.171875 31.640625 71.378906 C 29.957031 72.617188 28.050781 74.023438 26.613281 75.390625 C 25.046875 76.875 24.378906 77.996094 24.617188 78.730469 C 24.84375 79.410156 26.046875 80.21875 30.515625 80.21875 C 31.917969 80.21875 33.0625 80.046875 34.125 79.679688 C 35.75 79.121094 36.867188 77.65625 37.542969 75.210938 C 38.152344 73.003906 38.3125 70.386719 38.472656 67.855469 C 38.617188 65.542969 38.753906 63.359375 39.242188 61.894531 C 39.949219 59.777344 41.691406 58.53125 43.375 57.324219 C 43.488281 57.246094 43.597656 57.164062 43.710938 57.082031 C 45.257812 55.96875 49.042969 54.757812 51.6875 55.316406 C 52.808594 55.554688 53.617188 56.078125 54.082031 56.882812 C 55.902344 59.992188 53.933594 63.417969 52.027344 66.726562 C 49.78125 70.628906 47.664062 74.3125 51.460938 77.390625 C 52.980469 78.621094 55.386719 78.953125 57.894531 78.273438 C 60.4375 77.585938 62.441406 76.023438 63.128906 74.195312 C 63.863281 72.246094 62.722656 70.808594 61.515625 69.292969 C 59.882812 67.234375 58.03125 64.90625 61.207031 61.164062 L 61.285156 61.070312 C 62.1875 60.003906 62.207031 59.984375 62.933594 59.464844 C 63.140625 59.320312 63.394531 59.140625 63.746094 58.878906 C 64.535156 58.296875 65.511719 57.652344 66.773438 57.277344 C 68.296875 56.828125 70.363281 56.777344 71.917969 57.152344 C 74.40625 57.75 76.011719 58.898438 76.6875 60.570312 C 77.1875 61.800781 77.171875 63.308594 76.640625 65.050781 C 76.21875 66.441406 75.472656 67.976562 74.425781 69.617188 C 74.363281 69.714844 74.25 69.847656 74.035156 70.097656 C 73.527344 70.691406 72.175781 72.273438 72.335938 72.984375 C 72.355469 73.066406 72.402344 73.171875 72.597656 73.257812 C 75.054688 74.347656 77.828125 73.183594 79.257812 72.390625 C 81.457031 71.179688 83.390625 69.296875 84.300781 67.480469 C 84.605469 66.871094 84.152344 65.839844 83.714844 64.84375 C 83.171875 63.609375 82.609375 62.332031 83.269531 61.410156 C 83.890625 60.542969 85.472656 60.246094 88.242188 60.484375 C 90.140625 60.644531 91.308594 61.199219 91.816406 62.183594 C 92.75 63.988281 91.125 66.722656 89.558594 69.363281 C 88.363281 71.375 87.128906 73.449219 87.472656 74.53125 C 87.566406 74.816406 87.773438 75.027344 88.109375 75.175781 C 89.542969 75.816406 91.269531 75.636719 93.394531 74.621094 C 96.472656 73.152344 96.582031 71.746094 96.726562 69.800781 C 96.8125 68.667969 96.910156 67.386719 97.636719 65.933594 C 98.023438 65.164062 98.792969 64.660156 99.648438 64.613281 C 100.472656 64.570312 101.203125 64.949219 101.660156 65.652344 C 102.265625 66.597656 102.011719 67.742188 101.824219 68.578125 C 101.757812 68.871094 101.660156 69.308594 101.703125 69.4375 C 101.855469 69.535156 101.910156 69.738281 101.820312 69.902344 C 101.726562 70.070312 101.515625 70.132812 101.34375 70.039062 C 100.839844 69.761719 100.984375 69.113281 101.140625 68.425781 C 101.308594 67.671875 101.519531 66.730469 101.070312 66.03125 C 100.753906 65.542969 100.25 65.28125 99.6875 65.3125 C 99.082031 65.34375 98.539062 65.703125 98.265625 66.246094 C 97.597656 67.578125 97.511719 68.734375 97.425781 69.851562 C 97.351562 70.847656 97.28125 71.789062 96.789062 72.695312 C 96.246094 73.695312 95.265625 74.507812 93.699219 75.253906 C 91.375 76.359375 89.453125 76.542969 87.820312 75.8125 C 87.300781 75.582031 86.957031 75.21875 86.804688 74.742188 C 86.367188 73.363281 87.625 71.25 88.953125 69.007812 C 90.359375 66.644531 91.949219 63.964844 91.195312 62.503906 C 90.8125 61.761719 89.796875 61.316406 88.183594 61.179688 C 85.75 60.972656 84.289062 61.1875 83.839844 61.816406 C 83.410156 62.414062 83.890625 63.507812 84.355469 64.5625 C 84.859375 65.707031 85.378906 66.890625 84.925781 67.792969 C 83.957031 69.730469 81.914062 71.726562 79.597656 73.003906 C 76.929688 74.480469 74.339844 74.796875 72.3125 73.898438 C 71.863281 73.699219 71.707031 73.375 71.652344 73.136719 C 71.433594 72.167969 72.492188 70.824219 73.503906 69.644531 C 73.648438 69.476562 73.796875 69.300781 73.832031 69.242188 C 75.398438 66.789062 77.050781 63.339844 76.035156 60.832031 C 75.449219 59.382812 74.007812 58.375 71.75 57.828125 C 70.332031 57.488281 68.363281 57.539062 66.972656 57.949219 C 65.816406 58.289062 64.902344 58.894531 64.164062 59.441406 C 63.804688 59.707031 63.550781 59.890625 63.34375 60.035156 C 62.683594 60.503906 62.683594 60.503906 61.820312 61.523438 L 61.742188 61.613281 C 60.457031 63.128906 59.980469 64.429688 60.238281 65.707031 C 60.46875 66.847656 61.246094 67.824219 62.066406 68.855469 C 63.339844 70.460938 64.660156 72.121094 63.789062 74.441406 C 63.023438 76.476562 60.835938 78.203125 58.078125 78.949219 C 55.351562 79.6875 52.710938 79.304688 51.015625 77.933594 C 49.101562 76.378906 48.367188 74.535156 48.777344 72.292969 C 49.128906 70.359375 50.292969 68.335938 51.417969 66.378906 C 52.335938 64.785156 53.285156 63.136719 53.769531 61.578125 C 54.296875 59.859375 54.207031 58.480469 53.476562 57.234375 C 53.113281 56.609375 52.460938 56.195312 51.542969 56 C 49.121094 55.488281 45.53125 56.636719 44.125 57.648438 C 44.011719 57.730469 43.894531 57.8125 43.78125 57.894531 C 42.117188 59.085938 40.542969 60.210938 39.90625 62.117188 C 39.449219 63.492188 39.3125 65.632812 39.171875 67.898438 C 39.019531 70.34375 38.847656 73.117188 38.21875 75.398438 C 37.476562 78.082031 36.214844 79.699219 34.355469 80.339844 C 33.214844 80.734375 31.996094 80.917969 30.515625 80.917969 " fill-opacity="1" fill-rule="nonzero"/></g><g fill="#000000" fill-opacity="1"><g transform="translate(45.271612, 117.49751)"><g><path d="M 0.785156 0 L 5.992188 0 L 5.992188 -1.75 L 2.90625 -1.75 L 2.90625 -2.894531 L 5.589844 -2.894531 L 5.589844 -4.613281 L 2.90625 -4.613281 L 2.90625 -5.695312 L 5.875 -5.695312 L 5.875 -7.425781 L 0.785156 -7.425781 Z M 0.785156 0 "/></g></g></g><g fill="#000000" fill-opacity="1"><g transform="translate(51.741542, 117.49751)"><g><path d="M 0.0546875 0 L 2.324219 0 L 2.726562 -1.050781 L 5.261719 -1.050781 L 5.664062 0 L 7.945312 0 L 5.058594 -7.425781 L 2.9375 -7.425781 Z M 3.171875 -2.621094 L 4 -4.921875 L 4.828125 -2.621094 Z M 3.171875 -2.621094 "/></g></g></g><g fill="#000000" fill-opacity="1"><g transform="translate(59.738799, 117.49751)"><g><path d="M 3.449219 0.160156 C 5.292969 0.160156 6.386719 -0.710938 6.386719 -2.175781 C 6.386719 -3.40625 5.589844 -4.125 3.785156 -4.53125 C 2.832031 -4.742188 2.480469 -4.976562 2.480469 -5.355469 C 2.480469 -5.71875 2.800781 -5.941406 3.300781 -5.941406 C 3.894531 -5.941406 4.234375 -5.632812 4.234375 -5.070312 L 6.25 -5.070312 C 6.25 -6.597656 5.082031 -7.585938 3.257812 -7.585938 C 1.507812 -7.585938 0.425781 -6.714844 0.425781 -5.316406 C 0.425781 -4.0625 1.242188 -3.289062 2.917969 -2.96875 C 3.820312 -2.789062 4.253906 -2.515625 4.253906 -2.089844 C 4.253906 -1.71875 3.9375 -1.507812 3.414062 -1.507812 C 2.800781 -1.507812 2.441406 -1.835938 2.441406 -2.40625 L 0.371094 -2.40625 C 0.371094 -0.804688 1.515625 0.160156 3.449219 0.160156 Z M 3.449219 0.160156 "/></g></g></g><g fill="#000000" fill-opacity="1"><g transform="translate(66.516318, 117.49751)"><g><path d="M 2.757812 0 L 4.890625 0 L 4.890625 -2.589844 L 7.59375 -7.425781 L 5.167969 -7.425781 L 3.820312 -4.761719 L 3.246094 -5.886719 L 2.460938 -7.425781 L 0.0546875 -7.425781 L 2.757812 -2.578125 Z M 2.757812 0 "/></g></g></g></svg>