<svg xmlns="http://www.w3.org/2000/svg" xmlns:xlink="http://www.w3.org/1999/xlink" width="160" zoomAndPan="magnify" viewBox="0 0 120 136.499996" height="182" preserveAspectRatio="xMidYMid meet" version="1.0"><defs><filter x="0%" y="0%" width="100%" height="100%" id="82953071e7"><feColorMatrix values="0 0 0 0 1 0 0 0 0 1 0 0 0 0 1 0 0 0 1 0" color-interpolation-filters="sRGB"/></filter><g/><mask id="d89f982ff6"><g filter="url(#82953071e7)"><rect x="-12" width="144" fill="#000000" y="-13.65" height="163.799995" fill-opacity="0.41"/></g></mask><clipPath id="7b2c960b19"><path d="M 0.75 0.769531 L 113.242188 0.769531 L 113.242188 104.359375 L 0.75 104.359375 Z M 0.75 0.769531 " clip-rule="nonzero"/></clipPath><clipPath id="b41b4c8d3c"><path d="M 15.695312 0.769531 L 98.441406 0.769531 C 106.695312 0.769531 113.386719 7.460938 113.386719 15.714844 L 113.386719 89.414062 C 113.386719 97.667969 106.695312 104.359375 98.441406 104.359375 L 15.695312 104.359375 C 7.441406 104.359375 0.75 97.667969 0.75 89.414062 L 0.75 15.714844 C 0.75 7.460938 7.441406 0.769531 15.695312 0.769531 Z M 15.695312 0.769531 " clip-rule="nonzero"/></clipPath><linearGradient x1="0" gradientTransform="matrix(0.404647, 0, 0, 0.404647, 0.750332, 0.770649)" y1="0" x2="278" gradientUnits="userSpaceOnUse" y2="0" id="0e129a30b8"><stop stop-opacity="1" stop-color="rgb(11.799622%, 85.899353%, 79.598999%)" offset="0"/><stop stop-opacity="1" stop-color="rgb(11.752319%, 85.742188%, 79.530334%)" offset="0.0078125"/><stop stop-opacity="1" stop-color="rgb(11.660767%, 85.430908%, 79.393005%)" offset="0.015625"/><stop stop-opacity="1" stop-color="rgb(11.569214%, 85.118103%, 79.255676%)" offset="0.0234375"/><stop stop-opacity="1" stop-color="rgb(11.476135%, 84.806824%, 79.118347%)" offset="0.03125"/><stop stop-opacity="1" stop-color="rgb(11.384583%, 84.494019%, 78.981018%)" offset="0.0390625"/><stop stop-opacity="1" stop-color="rgb(11.29303%, 84.182739%, 78.843689%)" offset="0.046875"/><stop stop-opacity="1" stop-color="rgb(11.199951%, 83.869934%, 78.70636%)" offset="0.0546875"/><stop stop-opacity="1" stop-color="rgb(11.108398%, 83.558655%, 78.569031%)" offset="0.0625"/><stop stop-opacity="1" stop-color="rgb(11.016846%, 83.24585%, 78.431702%)" offset="0.0703125"/><stop stop-opacity="1" stop-color="rgb(10.923767%, 82.933044%, 78.294373%)" offset="0.078125"/><stop stop-opacity="1" stop-color="rgb(10.832214%, 82.621765%, 78.157043%)" offset="0.0859375"/><stop stop-opacity="1" stop-color="rgb(10.740662%, 82.30896%, 78.019714%)" offset="0.09375"/><stop stop-opacity="1" stop-color="rgb(10.647583%, 81.997681%, 77.882385%)" offset="0.101562"/><stop stop-opacity="1" stop-color="rgb(10.55603%, 81.684875%, 77.745056%)" offset="0.109375"/><stop stop-opacity="1" stop-color="rgb(10.464478%, 81.373596%, 77.607727%)" offset="0.117188"/><stop stop-opacity="1" stop-color="rgb(10.371399%, 81.060791%, 77.470398%)" offset="0.125"/><stop stop-opacity="1" stop-color="rgb(10.279846%, 80.749512%, 77.333069%)" offset="0.132812"/><stop stop-opacity="1" stop-color="rgb(10.188293%, 80.436707%, 77.19574%)" offset="0.140625"/><stop stop-opacity="1" stop-color="rgb(10.095215%, 80.125427%, 77.058411%)" offset="0.148438"/><stop stop-opacity="1" stop-color="rgb(10.003662%, 79.812622%, 76.921082%)" offset="0.15625"/><stop stop-opacity="1" stop-color="rgb(9.912109%, 79.499817%, 76.783752%)" offset="0.164062"/><stop stop-opacity="1" stop-color="rgb(9.819031%, 79.188538%, 76.646423%)" offset="0.171875"/><stop stop-opacity="1" stop-color="rgb(9.727478%, 78.875732%, 76.509094%)" offset="0.179688"/><stop stop-opacity="1" stop-color="rgb(9.635925%, 78.564453%, 76.371765%)" offset="0.1875"/><stop stop-opacity="1" stop-color="rgb(9.542847%, 78.251648%, 76.234436%)" offset="0.195312"/><stop stop-opacity="1" stop-color="rgb(9.451294%, 77.940369%, 76.097107%)" offset="0.203125"/><stop stop-opacity="1" stop-color="rgb(9.359741%, 77.627563%, 75.959778%)" offset="0.210938"/><stop stop-opacity="1" stop-color="rgb(9.266663%, 77.316284%, 75.822449%)" offset="0.21875"/><stop stop-opacity="1" stop-color="rgb(9.17511%, 77.003479%, 75.68512%)" offset="0.226562"/><stop stop-opacity="1" stop-color="rgb(9.083557%, 76.6922%, 75.547791%)" offset="0.234375"/><stop stop-opacity="1" stop-color="rgb(8.990479%, 76.379395%, 75.410461%)" offset="0.242188"/><stop stop-opacity="1" stop-color="rgb(8.898926%, 76.066589%, 75.273132%)" offset="0.25"/><stop stop-opacity="1" stop-color="rgb(8.805847%, 75.75531%, 75.135803%)" offset="0.257812"/><stop stop-opacity="1" stop-color="rgb(8.714294%, 75.442505%, 74.998474%)" offset="0.265625"/><stop stop-opacity="1" stop-color="rgb(8.622742%, 75.131226%, 74.861145%)" offset="0.273438"/><stop stop-opacity="1" stop-color="rgb(8.529663%, 74.81842%, 74.723816%)" offset="0.28125"/><stop stop-opacity="1" stop-color="rgb(8.43811%, 74.507141%, 74.586487%)" offset="0.289062"/><stop stop-opacity="1" stop-color="rgb(8.346558%, 74.194336%, 74.449158%)" offset="0.296875"/><stop stop-opacity="1" stop-color="rgb(8.253479%, 73.883057%, 74.311829%)" offset="0.304688"/><stop stop-opacity="1" stop-color="rgb(8.161926%, 73.570251%, 74.1745%)" offset="0.3125"/><stop stop-opacity="1" stop-color="rgb(8.070374%, 73.257446%, 74.03717%)" offset="0.320312"/><stop stop-opacity="1" stop-color="rgb(7.977295%, 72.946167%, 73.899841%)" offset="0.328125"/><stop stop-opacity="1" stop-color="rgb(7.885742%, 72.633362%, 73.762512%)" offset="0.335938"/><stop stop-opacity="1" stop-color="rgb(7.794189%, 72.322083%, 73.625183%)" offset="0.34375"/><stop stop-opacity="1" stop-color="rgb(7.701111%, 72.009277%, 73.487854%)" offset="0.351562"/><stop stop-opacity="1" stop-color="rgb(7.609558%, 71.697998%, 73.350525%)" offset="0.359375"/><stop stop-opacity="1" stop-color="rgb(7.518005%, 71.385193%, 73.213196%)" offset="0.367188"/><stop stop-opacity="1" stop-color="rgb(7.424927%, 71.073914%, 73.075867%)" offset="0.375"/><stop stop-opacity="1" stop-color="rgb(7.333374%, 70.761108%, 72.938538%)" offset="0.382812"/><stop stop-opacity="1" stop-color="rgb(7.241821%, 70.449829%, 72.801208%)" offset="0.390625"/><stop stop-opacity="1" stop-color="rgb(7.148743%, 70.137024%, 72.663879%)" offset="0.398438"/><stop stop-opacity="1" stop-color="rgb(7.05719%, 69.824219%, 72.52655%)" offset="0.40625"/><stop stop-opacity="1" stop-color="rgb(6.965637%, 69.512939%, 72.389221%)" offset="0.414062"/><stop stop-opacity="1" stop-color="rgb(6.872559%, 69.200134%, 72.251892%)" offset="0.421875"/><stop stop-opacity="1" stop-color="rgb(6.781006%, 68.888855%, 72.114563%)" offset="0.429688"/><stop stop-opacity="1" stop-color="rgb(6.689453%, 68.57605%, 71.977234%)" offset="0.4375"/><stop stop-opacity="1" stop-color="rgb(6.596375%, 68.264771%, 71.839905%)" offset="0.445312"/><stop stop-opacity="1" stop-color="rgb(6.504822%, 67.951965%, 71.702576%)" offset="0.453125"/><stop stop-opacity="1" stop-color="rgb(6.413269%, 67.640686%, 71.565247%)" offset="0.460938"/><stop stop-opacity="1" stop-color="rgb(6.32019%, 67.327881%, 71.427917%)" offset="0.46875"/><stop stop-opacity="1" stop-color="rgb(6.228638%, 67.016602%, 71.290588%)" offset="0.476562"/><stop stop-opacity="1" stop-color="rgb(6.137085%, 66.703796%, 71.153259%)" offset="0.484375"/><stop stop-opacity="1" stop-color="rgb(6.044006%, 66.390991%, 71.01593%)" offset="0.492188"/><stop stop-opacity="1" stop-color="rgb(5.952454%, 66.079712%, 70.878601%)" offset="0.5"/><stop stop-opacity="1" stop-color="rgb(5.860901%, 65.766907%, 70.741272%)" offset="0.507812"/><stop stop-opacity="1" stop-color="rgb(5.767822%, 65.455627%, 70.603943%)" offset="0.515625"/><stop stop-opacity="1" stop-color="rgb(5.67627%, 65.142822%, 70.466614%)" offset="0.523438"/><stop stop-opacity="1" stop-color="rgb(5.584717%, 64.831543%, 70.329285%)" offset="0.53125"/><stop stop-opacity="1" stop-color="rgb(5.491638%, 64.518738%, 70.191956%)" offset="0.539062"/><stop stop-opacity="1" stop-color="rgb(5.400085%, 64.207458%, 70.054626%)" offset="0.546875"/><stop stop-opacity="1" stop-color="rgb(5.308533%, 63.894653%, 69.917297%)" offset="0.554687"/><stop stop-opacity="1" stop-color="rgb(5.215454%, 63.583374%, 69.779968%)" offset="0.5625"/><stop stop-opacity="1" stop-color="rgb(5.123901%, 63.270569%, 69.642639%)" offset="0.570312"/><stop stop-opacity="1" stop-color="rgb(5.030823%, 62.957764%, 69.50531%)" offset="0.578125"/><stop stop-opacity="1" stop-color="rgb(4.93927%, 62.646484%, 69.367981%)" offset="0.585938"/><stop stop-opacity="1" stop-color="rgb(4.847717%, 62.333679%, 69.230652%)" offset="0.59375"/><stop stop-opacity="1" stop-color="rgb(4.754639%, 62.0224%, 69.093323%)" offset="0.601562"/><stop stop-opacity="1" stop-color="rgb(4.663086%, 61.709595%, 68.955994%)" offset="0.609375"/><stop stop-opacity="1" stop-color="rgb(4.571533%, 61.398315%, 68.818665%)" offset="0.617188"/><stop stop-opacity="1" stop-color="rgb(4.478455%, 61.08551%, 68.681335%)" offset="0.625"/><stop stop-opacity="1" stop-color="rgb(4.386902%, 60.774231%, 68.544006%)" offset="0.632812"/><stop stop-opacity="1" stop-color="rgb(4.295349%, 60.461426%, 68.406677%)" offset="0.640625"/><stop stop-opacity="1" stop-color="rgb(4.202271%, 60.150146%, 68.269348%)" offset="0.648438"/><stop stop-opacity="1" stop-color="rgb(4.110718%, 59.837341%, 68.132019%)" offset="0.65625"/><stop stop-opacity="1" stop-color="rgb(4.019165%, 59.524536%, 67.99469%)" offset="0.664062"/><stop stop-opacity="1" stop-color="rgb(3.926086%, 59.213257%, 67.857361%)" offset="0.671875"/><stop stop-opacity="1" stop-color="rgb(3.834534%, 58.900452%, 67.720032%)" offset="0.679688"/><stop stop-opacity="1" stop-color="rgb(3.742981%, 58.589172%, 67.582703%)" offset="0.6875"/><stop stop-opacity="1" stop-color="rgb(3.649902%, 58.276367%, 67.445374%)" offset="0.695312"/><stop stop-opacity="1" stop-color="rgb(3.55835%, 57.965088%, 67.308044%)" offset="0.703125"/><stop stop-opacity="1" stop-color="rgb(3.466797%, 57.652283%, 67.170715%)" offset="0.710938"/><stop stop-opacity="1" stop-color="rgb(3.373718%, 57.341003%, 67.033386%)" offset="0.71875"/><stop stop-opacity="1" stop-color="rgb(3.282166%, 57.028198%, 66.896057%)" offset="0.726562"/><stop stop-opacity="1" stop-color="rgb(3.190613%, 56.715393%, 66.758728%)" offset="0.734375"/><stop stop-opacity="1" stop-color="rgb(3.097534%, 56.404114%, 66.621399%)" offset="0.742188"/><stop stop-opacity="1" stop-color="rgb(3.005981%, 56.091309%, 66.48407%)" offset="0.75"/><stop stop-opacity="1" stop-color="rgb(2.914429%, 55.780029%, 66.346741%)" offset="0.757812"/><stop stop-opacity="1" stop-color="rgb(2.82135%, 55.467224%, 66.209412%)" offset="0.765625"/><stop stop-opacity="1" stop-color="rgb(2.729797%, 55.155945%, 66.072083%)" offset="0.773438"/><stop stop-opacity="1" stop-color="rgb(2.638245%, 54.84314%, 65.934753%)" offset="0.78125"/><stop stop-opacity="1" stop-color="rgb(2.545166%, 54.53186%, 65.797424%)" offset="0.789062"/><stop stop-opacity="1" stop-color="rgb(2.453613%, 54.219055%, 65.660095%)" offset="0.796875"/><stop stop-opacity="1" stop-color="rgb(2.362061%, 53.907776%, 65.522766%)" offset="0.804688"/><stop stop-opacity="1" stop-color="rgb(2.268982%, 53.594971%, 65.385437%)" offset="0.8125"/><stop stop-opacity="1" stop-color="rgb(2.177429%, 53.282166%, 65.248108%)" offset="0.820312"/><stop stop-opacity="1" stop-color="rgb(2.085876%, 52.970886%, 65.110779%)" offset="0.828125"/><stop stop-opacity="1" stop-color="rgb(1.992798%, 52.658081%, 64.97345%)" offset="0.835938"/><stop stop-opacity="1" stop-color="rgb(1.901245%, 52.346802%, 64.836121%)" offset="0.84375"/><stop stop-opacity="1" stop-color="rgb(1.809692%, 52.033997%, 64.698792%)" offset="0.851562"/><stop stop-opacity="1" stop-color="rgb(1.716614%, 51.722717%, 64.561462%)" offset="0.859375"/><stop stop-opacity="1" stop-color="rgb(1.625061%, 51.409912%, 64.424133%)" offset="0.867188"/><stop stop-opacity="1" stop-color="rgb(1.533508%, 51.098633%, 64.286804%)" offset="0.875"/><stop stop-opacity="1" stop-color="rgb(1.44043%, 50.785828%, 64.149475%)" offset="0.882812"/><stop stop-opacity="1" stop-color="rgb(1.348877%, 50.474548%, 64.012146%)" offset="0.890625"/><stop stop-opacity="1" stop-color="rgb(1.255798%, 50.161743%, 63.874817%)" offset="0.898438"/><stop stop-opacity="1" stop-color="rgb(1.164246%, 49.848938%, 63.737488%)" offset="0.90625"/><stop stop-opacity="1" stop-color="rgb(1.072693%, 49.537659%, 63.600159%)" offset="0.914062"/><stop stop-opacity="1" stop-color="rgb(0.979614%, 49.224854%, 63.46283%)" offset="0.921875"/><stop stop-opacity="1" stop-color="rgb(0.888062%, 48.913574%, 63.3255%)" offset="0.929688"/><stop stop-opacity="1" stop-color="rgb(0.796509%, 48.600769%, 63.188171%)" offset="0.9375"/><stop stop-opacity="1" stop-color="rgb(0.70343%, 48.28949%, 63.050842%)" offset="0.945313"/><stop stop-opacity="1" stop-color="rgb(0.611877%, 47.976685%, 62.913513%)" offset="0.953125"/><stop stop-opacity="1" stop-color="rgb(0.520325%, 47.665405%, 62.776184%)" offset="0.960938"/><stop stop-opacity="1" stop-color="rgb(0.427246%, 47.3526%, 62.638855%)" offset="0.96875"/><stop stop-opacity="1" stop-color="rgb(0.335693%, 47.041321%, 62.501526%)" offset="0.976562"/><stop stop-opacity="1" stop-color="rgb(0.244141%, 46.728516%, 62.364197%)" offset="0.984375"/><stop stop-opacity="1" stop-color="rgb(0.151062%, 46.41571%, 62.226868%)" offset="0.992188"/><stop stop-opacity="1" stop-color="rgb(0.0595093%, 46.104431%, 62.089539%)" offset="1"/></linearGradient><clipPath id="2fd600a08e"><rect x="0" width="114" y="0" height="105"/></clipPath><clipPath id="70275faba9"><path d="M 4.195312 0.445312 L 115 0.445312 L 115 133.535156 L 4.195312 133.535156 Z M 4.195312 0.445312 " clip-rule="nonzero"/></clipPath><clipPath id="cfe961ad5e"><path d="M 6.230469 133.234375 L 112.980469 133.234375 C 114.050781 133.234375 114.898438 132.390625 114.898438 131.320312 L 114.898438 2.480469 C 114.898438 1.410156 114.050781 0.5625 112.980469 0.5625 L 6.230469 0.5625 C 5.160156 0.5625 4.3125 1.410156 4.3125 2.480469 L 4.3125 131.320312 C 4.3125 132.390625 5.160156 133.234375 6.230469 133.234375 Z M 6.230469 133.234375 " clip-rule="nonzero"/></clipPath><clipPath id="060654acc7"><path d="M 3.75 0 L 117.320312 0 L 117.320312 135.75 L 3.75 135.75 Z M 3.75 0 " clip-rule="nonzero"/></clipPath><clipPath id="0027434c03"><path d="M 115.402344 1.972656 C 115.179688 0.84375 114.164062 0 112.980469 0 L 6.230469 0 C 4.878906 0 3.75 1.128906 3.75 2.480469 L 3.75 131.320312 C 3.75 132.503906 4.539062 133.460938 5.667969 133.742188 C 5.890625 134.871094 6.90625 135.714844 8.089844 135.714844 L 114.839844 135.714844 C 116.191406 135.714844 117.320312 134.589844 117.320312 133.234375 L 117.320312 4.398438 C 117.320312 3.214844 116.53125 2.253906 115.402344 1.972656 Z M 4.3125 131.320312 L 4.3125 2.480469 C 4.3125 1.410156 5.160156 0.5625 6.230469 0.5625 L 112.980469 0.5625 C 114.050781 0.5625 114.898438 1.410156 114.898438 2.480469 L 114.898438 131.320312 C 114.898438 132.390625 114.050781 133.234375 112.980469 133.234375 L 6.230469 133.234375 C 5.160156 133.234375 4.3125 132.390625 4.3125 131.320312 Z M 4.3125 131.320312 " clip-rule="nonzero"/></clipPath><clipPath id="65c810a798"><path d="M 16.609375 62 L 20 62 L 20 65 L 16.609375 65 Z M 16.609375 62 " clip-rule="nonzero"/></clipPath><clipPath id="22a4f892d9"><path d="M 16.609375 61 L 21 61 L 21 66 L 16.609375 66 Z M 16.609375 61 " clip-rule="nonzero"/></clipPath><clipPath id="8310abd49c"><path d="M 99 61 L 103.292969 61 L 103.292969 66 L 99 66 Z M 99 61 " clip-rule="nonzero"/></clipPath><clipPath id="586a47c452"><path d="M 18 47.675781 L 102 47.675781 L 102 77.566406 L 18 77.566406 Z M 18 47.675781 " clip-rule="nonzero"/></clipPath></defs><g mask="url(#d89f982ff6)"><g transform="matrix(1, 0, 0, 1, 3, 0)"><g clip-path="url(#2fd600a08e)"><g clip-path="url(#7b2c960b19)"><g clip-path="url(#b41b4c8d3c)"><path fill="url(#0e129a30b8)" d="M 0.75 0.769531 L 0.75 104.359375 L 113.242188 104.359375 L 113.242188 0.769531 Z M 0.75 0.769531 " fill-rule="nonzero"/></g></g></g></g></g><g clip-path="url(#70275faba9)"><g clip-path="url(#cfe961ad5e)"><path fill="#d0ff96" d="M 3.75 0 L 117.320312 0 L 117.320312 135.75 L 3.75 135.75 Z M 3.75 0 " fill-opacity="1" fill-rule="nonzero"/></g></g><g clip-path="url(#060654acc7)"><g clip-path="url(#0027434c03)"><path fill="#231f20" d="M 3.75 0 L 117.320312 0 L 117.320312 135.75 L 3.75 135.75 Z M 3.75 0 " fill-opacity="1" fill-rule="nonzero"/></g></g><g clip-path="url(#65c810a798)"><path fill="#000000" d="M 16.960938 63.464844 C 16.960938 62.707031 17.570312 62.089844 18.324219 62.089844 C 19.078125 62.089844 19.6875 62.707031 19.6875 63.464844 C 19.6875 64.222656 19.078125 64.839844 18.324219 64.839844 C 17.570312 64.839844 16.960938 64.222656 16.960938 63.464844 " fill-opacity="1" fill-rule="nonzero"/></g><g clip-path="url(#22a4f892d9)"><path fill="#000000" d="M 18.324219 62.441406 C 17.765625 62.441406 17.308594 62.902344 17.308594 63.464844 C 17.308594 64.027344 17.765625 64.484375 18.324219 64.484375 C 18.882812 64.484375 19.339844 64.027344 19.339844 63.464844 C 19.339844 62.902344 18.882812 62.441406 18.324219 62.441406 Z M 18.324219 65.191406 C 17.378906 65.191406 16.609375 64.417969 16.609375 63.464844 C 16.609375 62.511719 17.378906 61.738281 18.324219 61.738281 C 19.269531 61.738281 20.039062 62.511719 20.039062 63.464844 C 20.039062 64.417969 19.269531 65.191406 18.324219 65.191406 " fill-opacity="1" fill-rule="nonzero"/></g><path fill="#000000" d="M 100.214844 63.464844 C 100.214844 62.707031 100.824219 62.089844 101.578125 62.089844 C 102.332031 62.089844 102.941406 62.707031 102.941406 63.464844 C 102.941406 64.222656 102.332031 64.839844 101.578125 64.839844 C 100.824219 64.839844 100.214844 64.222656 100.214844 63.464844 " fill-opacity="1" fill-rule="nonzero"/><g clip-path="url(#8310abd49c)"><path fill="#000000" d="M 101.578125 62.441406 C 101.019531 62.441406 100.5625 62.902344 100.5625 63.464844 C 100.5625 64.027344 101.019531 64.484375 101.578125 64.484375 C 102.136719 64.484375 102.59375 64.027344 102.59375 63.464844 C 102.59375 62.902344 102.136719 62.441406 101.578125 62.441406 Z M 101.578125 65.191406 C 100.632812 65.191406 99.863281 64.417969 99.863281 63.464844 C 99.863281 62.511719 100.632812 61.738281 101.578125 61.738281 C 102.523438 61.738281 103.292969 62.511719 103.292969 63.464844 C 103.292969 64.417969 102.523438 65.191406 101.578125 65.191406 " fill-opacity="1" fill-rule="nonzero"/></g><g clip-path="url(#586a47c452)"><path fill="#000000" d="M 60.332031 51.523438 C 60.492188 51.53125 60.65625 51.539062 60.816406 51.546875 C 60.898438 51.535156 60.980469 51.523438 61.0625 51.511719 C 61.339844 51.46875 61.621094 51.433594 61.902344 51.402344 C 61.582031 51.226562 61.242188 51.066406 60.882812 50.921875 C 60.6875 51.117188 60.503906 51.316406 60.332031 51.523438 Z M 54.171875 50.601562 C 54.5 50.742188 54.816406 50.894531 55.117188 51.066406 C 55.453125 51.253906 55.773438 51.460938 56.074219 51.6875 C 56.441406 51.640625 56.816406 51.601562 57.195312 51.570312 C 57.9375 51.511719 58.691406 51.488281 59.449219 51.496094 C 59.660156 51.210938 59.894531 50.9375 60.148438 50.667969 C 58.152344 50.066406 55.988281 50.078125 54.171875 50.601562 Z M 66.371094 52.3125 C 66.636719 52.3125 66.898438 52.316406 67.160156 52.320312 C 66.25 52.144531 65.308594 52.042969 64.367188 52.015625 C 64.816406 52.105469 65.261719 52.207031 65.699219 52.316406 C 65.925781 52.3125 66.148438 52.3125 66.371094 52.3125 Z M 56.820312 52.308594 C 56.933594 52.414062 57.042969 52.519531 57.148438 52.632812 C 57.480469 52.480469 57.828125 52.34375 58.183594 52.214844 C 57.871094 52.230469 57.558594 52.246094 57.25 52.273438 C 57.105469 52.285156 56.964844 52.296875 56.820312 52.308594 Z M 70.246094 52.484375 C 70.394531 52.5 70.542969 52.511719 70.691406 52.527344 C 71.027344 52.5625 71.359375 52.601562 71.6875 52.640625 C 71.308594 51.441406 70.316406 50.335938 68.738281 49.371094 C 66.0625 47.734375 63.574219 48.816406 61.957031 50.007812 C 61.785156 50.136719 61.617188 50.265625 61.457031 50.402344 C 62.046875 50.65625 62.589844 50.964844 63.074219 51.320312 C 65.492188 51.222656 67.941406 51.59375 70.019531 52.394531 C 70.09375 52.425781 70.171875 52.453125 70.246094 52.484375 Z M 54.742188 52.75 C 55.261719 52.75 55.785156 52.761719 56.316406 52.785156 C 56.179688 52.65625 56.039062 52.535156 55.894531 52.421875 C 55.273438 52.507812 54.675781 52.621094 54.097656 52.753906 C 54.3125 52.75 54.527344 52.75 54.742188 52.75 Z M 59.613281 52.523438 C 59.539062 52.648438 59.46875 52.773438 59.402344 52.902344 C 60.402344 52.722656 61.457031 52.582031 62.554688 52.484375 C 62.632812 52.476562 62.714844 52.46875 62.796875 52.460938 C 62.152344 52.371094 61.503906 52.300781 60.855469 52.257812 C 60.441406 52.328125 60.027344 52.417969 59.613281 52.523438 Z M 58.316406 52.925781 C 58.402344 52.933594 58.492188 52.945312 58.582031 52.953125 C 58.605469 52.90625 58.628906 52.855469 58.652344 52.808594 C 58.539062 52.847656 58.425781 52.886719 58.316406 52.925781 Z M 53.164062 50.964844 C 52.40625 51.292969 51.742188 51.730469 51.222656 52.257812 C 50.988281 52.496094 50.785156 52.75 50.617188 53.019531 C 50.808594 52.996094 51 52.96875 51.195312 52.949219 C 52.378906 52.457031 53.679688 52.085938 55.070312 51.839844 C 54.449219 51.457031 53.804688 51.175781 53.164062 50.964844 Z M 68.089844 53.046875 C 68.652344 53.25 69.207031 53.472656 69.742188 53.710938 C 69.867188 53.769531 69.992188 53.828125 70.117188 53.886719 C 70.292969 53.824219 70.46875 53.765625 70.652344 53.710938 C 70.769531 53.675781 70.890625 53.640625 71.007812 53.609375 C 70.703125 53.453125 70.382812 53.304688 70.054688 53.167969 C 69.40625 53.113281 68.75 53.070312 68.089844 53.046875 Z M 58.132812 53.875 C 58.15625 53.90625 58.175781 53.941406 58.199219 53.972656 C 58.210938 53.933594 58.222656 53.890625 58.238281 53.851562 C 58.203125 53.859375 58.167969 53.867188 58.132812 53.875 Z M 61.285156 53.328125 C 62.367188 53.515625 63.4375 53.746094 64.480469 54.015625 C 64.320312 53.691406 64.125 53.378906 63.898438 53.085938 C 63.472656 53.113281 63.042969 53.144531 62.617188 53.183594 C 62.164062 53.226562 61.71875 53.273438 61.285156 53.328125 Z M 71.023438 54.339844 C 71.269531 54.46875 71.507812 54.601562 71.742188 54.738281 C 71.792969 54.539062 71.824219 54.339844 71.84375 54.144531 C 71.566406 54.199219 71.292969 54.265625 71.023438 54.339844 Z M 65.34375 54.253906 C 65.980469 54.433594 66.605469 54.628906 67.214844 54.839844 C 67.417969 54.910156 67.617188 54.984375 67.816406 55.054688 C 68.253906 54.753906 68.722656 54.484375 69.21875 54.25 C 68.078125 53.753906 66.863281 53.339844 65.609375 53.019531 C 65.320312 53.023438 65.027344 53.035156 64.738281 53.046875 C 64.988281 53.425781 65.191406 53.828125 65.34375 54.253906 Z M 68.625 55.367188 C 69.457031 55.699219 70.246094 56.058594 70.980469 56.4375 C 71.195312 56.105469 71.375 55.765625 71.515625 55.425781 C 71.058594 55.152344 70.582031 54.894531 70.082031 54.648438 C 69.574219 54.847656 69.085938 55.085938 68.625 55.367188 Z M 72.363281 55.121094 C 73.132812 55.613281 73.839844 56.144531 74.480469 56.714844 C 73.984375 55.878906 73.308594 55.15625 72.496094 54.542969 C 72.472656 54.695312 72.4375 54.851562 72.394531 55.003906 C 72.386719 55.042969 72.375 55.082031 72.363281 55.121094 Z M 50.09375 54.257812 C 49.902344 55.050781 49.921875 55.925781 50.160156 56.863281 C 51.214844 55.804688 52.757812 54.890625 54.675781 54.167969 C 54.722656 54.128906 54.769531 54.085938 54.816406 54.050781 C 55.074219 53.839844 55.347656 53.640625 55.636719 53.453125 C 54.199219 53.414062 52.789062 53.460938 51.441406 53.609375 C 50.972656 53.808594 50.523438 54.023438 50.09375 54.257812 Z M 65.578125 55.0625 C 65.582031 55.09375 65.589844 55.125 65.597656 55.15625 C 65.738281 55.867188 65.773438 56.554688 65.703125 57.207031 C 66.105469 56.601562 66.589844 56.054688 67.148438 55.574219 C 66.636719 55.394531 66.113281 55.222656 65.578125 55.0625 Z M 49.402344 50.394531 C 47.164062 50.394531 44.84375 50.925781 42.847656 51.90625 C 40.800781 52.90625 39.324219 54.265625 38.695312 55.734375 C 38.394531 56.433594 38.292969 57.148438 38.386719 57.863281 C 39.59375 57.332031 40.789062 57.078125 41.785156 57.117188 C 42.554688 56.171875 43.585938 55.363281 44.859375 54.707031 C 46.230469 54.003906 47.886719 53.484375 49.742188 53.160156 C 50.015625 52.585938 50.371094 52.125 50.726562 51.761719 C 51.128906 51.351562 51.605469 50.992188 52.144531 50.683594 C 51.195312 50.472656 50.296875 50.402344 49.566406 50.394531 C 49.511719 50.394531 49.457031 50.394531 49.402344 50.394531 Z M 61.945312 58.703125 C 62.828125 58.703125 63.679688 58.765625 64.476562 58.894531 C 65.03125 57.832031 65.175781 56.628906 64.910156 55.292969 C 64.878906 55.136719 64.84375 54.988281 64.800781 54.839844 C 62.953125 54.332031 61 53.945312 59.039062 53.707031 C 58.894531 54.09375 58.785156 54.488281 58.707031 54.890625 C 58.804688 55.089844 58.894531 55.292969 58.976562 55.5 C 59.433594 56.636719 59.691406 57.746094 59.75 58.828125 C 60.496094 58.742188 61.230469 58.703125 61.945312 58.703125 Z M 58.578125 56.441406 C 58.589844 57.242188 58.71875 58.074219 58.96875 58.929688 C 58.992188 58.925781 59.019531 58.921875 59.046875 58.917969 C 59.011719 58.109375 58.855469 57.285156 58.578125 56.441406 Z M 71.601562 56.769531 C 72.300781 57.160156 72.949219 57.570312 73.527344 57.992188 C 74.253906 58.523438 74.875 59.074219 75.394531 59.644531 C 75.367188 59.242188 75.300781 58.839844 75.195312 58.433594 C 74.351562 57.46875 73.320312 56.585938 72.117188 55.800781 C 71.976562 56.125 71.804688 56.449219 71.601562 56.769531 Z M 65.507812 59.101562 C 66.121094 59.25 66.691406 59.441406 67.210938 59.675781 C 67.277344 59.707031 67.347656 59.738281 67.410156 59.769531 C 68.691406 58.957031 69.785156 58.019531 70.566406 57.019531 C 69.742188 56.601562 68.851562 56.210938 67.917969 55.855469 C 66.871094 56.660156 66.03125 57.734375 65.507812 59.101562 Z M 42.609375 57.230469 C 42.71875 57.257812 42.824219 57.292969 42.921875 57.328125 C 43.554688 57.5625 44.515625 58.1875 44.421875 59.796875 C 44.730469 58.863281 45.160156 57.992188 45.707031 57.195312 C 46.476562 56.074219 47.484375 55.089844 48.699219 54.273438 C 48.855469 54.167969 49.011719 54.066406 49.175781 53.96875 C 47.710938 54.277344 46.363281 54.726562 45.179688 55.335938 C 44.132812 55.871094 43.277344 56.503906 42.609375 57.230469 Z M 50.398438 57.636719 C 50.824219 58.824219 51.445312 59.730469 52.164062 60.421875 C 52.128906 60.144531 52.113281 59.859375 52.113281 59.570312 C 52.113281 58.042969 52.574219 56.640625 53.472656 55.441406 C 52.285156 56.019531 51.3125 56.683594 50.59375 57.421875 C 50.527344 57.492188 50.460938 57.5625 50.398438 57.636719 Z M 76.09375 60.5 C 76.289062 60.515625 76.480469 60.539062 76.675781 60.570312 C 76.5 60.238281 76.304688 59.910156 76.089844 59.59375 C 76.109375 59.894531 76.109375 60.199219 76.09375 60.5 Z M 55.0625 54.765625 C 53.707031 55.941406 52.808594 57.527344 52.808594 59.570312 C 52.808594 60.042969 52.863281 60.492188 52.960938 60.914062 C 54.371094 60.082031 56.214844 59.421875 58.269531 59.042969 C 57.863281 57.617188 57.765625 56.253906 57.96875 54.980469 C 57.796875 54.644531 57.609375 54.335938 57.410156 54.046875 C 56.574219 54.257812 55.792969 54.5 55.0625 54.765625 Z M 65.277344 59.773438 C 65.148438 60.21875 65.0625 60.640625 65.019531 61.039062 C 65.59375 60.789062 66.148438 60.511719 66.675781 60.210938 C 66.246094 60.039062 65.78125 59.890625 65.277344 59.773438 Z M 38.546875 58.5625 C 38.792969 59.351562 39.28125 60.128906 40.003906 60.886719 C 40.058594 60.945312 40.117188 61.003906 40.179688 61.0625 C 40.300781 59.875 40.667969 58.789062 41.273438 57.828125 C 40.457031 57.878906 39.503906 58.128906 38.558594 58.558594 Z M 64.453125 60.191406 C 63.929688 60.84375 63.246094 61.4375 62.410156 61.964844 C 63.050781 61.792969 63.679688 61.582031 64.292969 61.34375 C 64.316406 60.964844 64.367188 60.582031 64.453125 60.191406 Z M 59.640625 60.710938 C 59.878906 61.214844 60.148438 61.710938 60.445312 62.199219 C 60.75 62.066406 61.042969 61.925781 61.320312 61.78125 C 62.53125 61.144531 63.445312 60.402344 64.066406 59.550781 C 62.746094 59.371094 61.269531 59.363281 59.757812 59.535156 C 59.746094 59.929688 59.707031 60.324219 59.640625 60.710938 Z M 53.496094 61.414062 C 54.132812 61.78125 54.804688 62.035156 55.46875 62.210938 C 56.449219 62.042969 57.484375 62.011719 58.523438 62.113281 C 58.691406 61.683594 58.820312 61.242188 58.910156 60.792969 C 58.8125 60.570312 58.71875 60.347656 58.632812 60.125 C 58.582031 59.992188 58.53125 59.855469 58.484375 59.722656 C 56.554688 60.066406 54.820312 60.664062 53.496094 61.414062 Z M 59.242188 62.203125 C 59.386719 62.226562 59.53125 62.25 59.675781 62.277344 C 59.578125 62.109375 59.480469 61.9375 59.390625 61.765625 C 59.371094 61.820312 59.355469 61.875 59.335938 61.929688 C 59.304688 62.023438 59.273438 62.113281 59.242188 62.203125 Z M 40.839844 61.574219 C 41.246094 61.84375 41.722656 62.09375 42.257812 62.320312 C 43.023438 61.785156 43.476562 61.125 43.644531 60.320312 C 43.894531 59.105469 43.574219 58.320312 42.683594 57.992188 C 42.507812 57.925781 42.3125 57.878906 42.101562 57.851562 C 41.324219 58.917969 40.90625 60.164062 40.839844 61.574219 Z M 53.410156 62.175781 C 53.496094 62.355469 53.589844 62.527344 53.691406 62.695312 C 53.847656 62.636719 54.003906 62.578125 54.167969 62.527344 C 53.90625 62.421875 53.652344 62.304688 53.410156 62.175781 Z M 43.027344 62.617188 C 43.300781 62.714844 43.585938 62.804688 43.882812 62.890625 C 43.886719 62.386719 43.9375 61.871094 44.027344 61.351562 C 43.792969 61.835938 43.453125 62.253906 43.027344 62.617188 Z M 40.851562 62.402344 C 40.863281 62.605469 40.890625 62.808594 40.921875 63.015625 C 41.09375 62.949219 41.257812 62.878906 41.410156 62.804688 C 41.445312 62.789062 41.480469 62.773438 41.515625 62.753906 C 41.28125 62.644531 41.058594 62.527344 40.851562 62.402344 Z M 54.09375 63.292969 C 54.1875 63.421875 54.285156 63.542969 54.386719 63.664062 C 55.363281 63.5625 56.300781 63.410156 57.191406 63.214844 C 56.566406 63.164062 55.972656 63.070312 55.410156 62.929688 C 54.953125 63.019531 54.511719 63.140625 54.09375 63.292969 Z M 44.582031 63.078125 C 45.988281 63.429688 47.609375 63.671875 49.351562 63.773438 C 49.171875 63.441406 49.011719 63.097656 48.875 62.734375 C 48.460938 61.628906 48.367188 60.5625 48.59375 59.5625 C 48.761719 58.832031 49.101562 58.136719 49.609375 57.488281 L 49.601562 57.460938 C 49.277344 56.421875 49.207031 55.515625 49.292969 54.738281 C 46.859375 56.324219 45.261719 58.589844 44.738281 61.359375 C 44.625 61.964844 44.574219 62.539062 44.582031 63.078125 Z M 53.429688 63.578125 C 53.332031 63.625 53.238281 63.675781 53.144531 63.726562 C 53.117188 63.742188 53.089844 63.757812 53.0625 63.773438 C 53.222656 63.761719 53.386719 63.753906 53.546875 63.738281 C 53.507812 63.6875 53.46875 63.632812 53.429688 63.578125 Z M 50.1875 63.8125 C 50.214844 63.8125 50.242188 63.8125 50.269531 63.8125 C 50.433594 63.324219 50.714844 62.847656 51.117188 62.386719 C 51.421875 62.042969 51.789062 61.714844 52.21875 61.402344 C 51.203125 60.601562 50.425781 59.558594 49.898438 58.285156 C 49.078125 59.542969 48.953125 60.953125 49.527344 62.484375 C 49.707031 62.957031 49.925781 63.402344 50.1875 63.8125 Z M 51.015625 63.828125 C 51.261719 63.828125 51.511719 63.828125 51.757812 63.824219 C 52.074219 63.558594 52.425781 63.320312 52.808594 63.109375 C 52.886719 63.066406 52.964844 63.023438 53.042969 62.984375 C 52.859375 62.667969 52.703125 62.34375 52.570312 62.011719 C 52.210938 62.28125 51.898438 62.5625 51.644531 62.855469 C 51.363281 63.171875 51.152344 63.496094 51.015625 63.828125 Z M 61.738281 62.855469 C 62.507812 63.144531 63.242188 63.511719 63.90625 63.953125 C 64.128906 63.847656 64.355469 63.75 64.585938 63.667969 C 64.578125 63.648438 64.570312 63.628906 64.566406 63.609375 C 64.414062 63.117188 64.324219 62.613281 64.292969 62.09375 C 63.453125 62.410156 62.59375 62.664062 61.738281 62.855469 Z M 67 63.214844 C 68.039062 63.214844 68.964844 63.480469 69.742188 63.988281 C 69.652344 62.519531 68.882812 61.375 67.441406 60.578125 C 67.375 60.621094 67.304688 60.660156 67.234375 60.703125 C 66.511719 61.121094 65.757812 61.496094 64.980469 61.820312 C 64.988281 62.421875 65.089844 62.96875 65.25 63.457031 C 65.808594 63.304688 66.371094 63.222656 66.910156 63.214844 C 66.941406 63.214844 66.972656 63.214844 67 63.214844 Z M 37.90625 58.882812 C 36.53125 59.628906 35.4375 60.640625 34.847656 61.726562 C 34.4375 62.484375 34.285156 63.242188 34.390625 63.992188 C 35.15625 63.976562 35.902344 63.941406 36.613281 63.878906 C 38.035156 63.761719 39.253906 63.546875 40.25 63.246094 C 40.171875 62.808594 40.132812 62.375 40.132812 61.953125 L 40.132812 61.933594 C 39.894531 61.753906 39.679688 61.566406 39.496094 61.375 C 38.667969 60.503906 38.171875 59.664062 37.90625 58.882812 Z M 70.445312 64.554688 C 70.492188 64.597656 70.535156 64.640625 70.574219 64.6875 C 70.566406 64.617188 70.558594 64.550781 70.550781 64.480469 C 70.363281 62.679688 71.34375 61.367188 73.304688 60.792969 C 73.925781 60.609375 74.558594 60.507812 75.191406 60.480469 C 74.570312 59.726562 73.824219 59.082031 73.117188 58.5625 C 72.535156 58.140625 71.894531 57.734375 71.195312 57.351562 C 71 57.605469 70.789062 57.859375 70.554688 58.113281 C 69.875 58.84375 69.054688 59.527344 68.109375 60.15625 C 68.792969 60.589844 69.332031 61.109375 69.722656 61.714844 C 70.25 62.53125 70.492188 63.484375 70.445312 64.554688 Z M 50.808594 64.648438 C 50.835938 64.675781 50.859375 64.703125 50.882812 64.730469 C 50.933594 64.664062 50.988281 64.597656 51.046875 64.53125 C 50.96875 64.53125 50.894531 64.53125 50.820312 64.53125 C 50.816406 64.570312 50.8125 64.609375 50.808594 64.648438 Z M 77.550781 60.761719 C 77.605469 60.777344 77.660156 60.792969 77.714844 60.8125 C 79.1875 61.265625 80.441406 62.15625 81.34375 63.382812 C 81.675781 63.835938 81.9375 64.296875 82.132812 64.757812 C 83.4375 64.5 84.722656 64.246094 85.980469 64.007812 C 85.984375 63.988281 85.992188 63.964844 85.996094 63.945312 C 86.09375 62.699219 85.917969 61.566406 85.542969 60.550781 C 84.230469 57.582031 80.917969 55.824219 78.109375 54.828125 C 77.125 54.480469 76.074219 54.179688 74.976562 53.929688 C 74.289062 53.894531 73.601562 53.914062 72.925781 53.984375 C 73.167969 54.164062 73.394531 54.355469 73.609375 54.554688 C 74.65625 55.515625 75.382812 56.644531 75.773438 57.910156 C 75.789062 57.964844 75.804688 58.019531 75.824219 58.078125 C 76.542969 58.921875 77.121094 59.820312 77.550781 60.761719 Z M 61.273438 63.425781 C 61.632812 63.914062 62.023438 64.386719 62.433594 64.839844 C 62.464844 64.816406 62.496094 64.792969 62.527344 64.769531 C 62.742188 64.613281 62.964844 64.464844 63.195312 64.332031 C 62.597656 63.96875 61.949219 63.664062 61.273438 63.425781 Z M 64.566406 64.433594 C 64.679688 64.523438 64.792969 64.621094 64.902344 64.71875 C 65.003906 64.804688 65.101562 64.898438 65.195312 64.988281 C 65.0625 64.773438 64.945312 64.550781 64.839844 64.324219 C 64.75 64.359375 64.65625 64.394531 64.566406 64.433594 Z M 54.988281 64.304688 C 55.394531 64.695312 55.828125 65.046875 56.269531 65.359375 C 56.773438 64.882812 57.210938 64.378906 57.582031 63.851562 C 57.046875 63.976562 56.492188 64.082031 55.917969 64.175781 C 55.613281 64.222656 55.304688 64.265625 54.988281 64.304688 Z M 77.898438 61.628906 C 78.390625 63.023438 78.519531 64.273438 78.277344 65.347656 C 78.261719 65.414062 78.246094 65.480469 78.226562 65.546875 C 78.957031 65.398438 79.6875 65.253906 80.414062 65.105469 C 80.753906 65.039062 81.09375 64.96875 81.433594 64.898438 C 81.265625 64.535156 81.046875 64.167969 80.777344 63.800781 C 80.042969 62.800781 79.039062 62.058594 77.898438 61.628906 Z M 76.578125 61.273438 C 77.214844 62.4375 77.441406 63.648438 77.25 64.878906 C 77.203125 65.1875 77.144531 65.488281 77.074219 65.773438 C 77.199219 65.75 77.320312 65.726562 77.445312 65.703125 C 77.84375 64.667969 77.773438 63.359375 77.226562 61.824219 C 77.171875 61.671875 77.113281 61.519531 77.050781 61.367188 C 76.894531 61.332031 76.738281 61.296875 76.578125 61.273438 Z M 75.3125 61.1875 C 74.710938 61.199219 74.101562 61.292969 73.5 61.46875 C 71.875 61.945312 71.097656 62.960938 71.246094 64.410156 C 71.304688 65.003906 71.519531 65.648438 71.859375 66.300781 C 72.746094 65.605469 73.484375 64.851562 74.058594 64.046875 C 74.71875 63.121094 75.136719 62.167969 75.3125 61.1875 Z M 75.941406 61.574219 C 75.722656 62.570312 75.28125 63.539062 74.625 64.457031 C 74.082031 65.222656 73.394531 65.949219 72.582031 66.621094 C 73.816406 66.402344 75.066406 66.167969 76.316406 65.921875 C 76.414062 65.5625 76.496094 65.175781 76.558594 64.769531 C 76.746094 63.589844 76.464844 62.515625 75.941406 61.574219 Z M 76.863281 66.53125 C 76.84375 66.605469 76.816406 66.679688 76.792969 66.75 C 76.863281 66.671875 76.929688 66.589844 76.996094 66.507812 C 76.953125 66.515625 76.90625 66.523438 76.863281 66.53125 Z M 51.382812 65.230469 C 52.152344 65.933594 53.113281 66.492188 54.257812 66.914062 C 54.628906 66.679688 54.984375 66.429688 55.324219 66.167969 C 55.464844 66.058594 55.601562 65.949219 55.730469 65.839844 C 55.109375 65.386719 54.5625 64.90625 54.097656 64.398438 C 53.417969 64.464844 52.726562 64.503906 52.027344 64.523438 C 51.800781 64.730469 51.582031 64.964844 51.382812 65.230469 Z M 70.339844 65.488281 C 70.246094 66.035156 70.101562 66.5625 69.902344 67.066406 C 70.289062 67.003906 70.675781 66.945312 71.066406 66.878906 C 71.097656 66.855469 71.132812 66.832031 71.167969 66.808594 C 70.96875 66.410156 70.722656 66.007812 70.429688 65.605469 C 70.402344 65.566406 70.371094 65.527344 70.339844 65.488281 Z M 65.515625 64.121094 C 66.015625 65.160156 66.777344 65.902344 67.394531 66.378906 C 67.8125 66.699219 68.28125 66.988281 68.78125 67.234375 C 68.886719 67.21875 68.988281 67.203125 69.09375 67.1875 C 69.398438 66.527344 69.613281 65.785156 69.714844 64.945312 C 69.71875 64.914062 69.71875 64.882812 69.722656 64.851562 C 68.5625 63.894531 67.011719 63.742188 65.515625 64.121094 Z M 56.867188 65.757812 C 57.167969 65.949219 57.46875 66.121094 57.761719 66.28125 C 58.53125 66.695312 59.375 67.070312 60.277344 67.40625 C 60.628906 66.648438 61.179688 65.921875 61.886719 65.289062 C 61.265625 64.597656 60.703125 63.871094 60.207031 63.125 C 60.117188 63.136719 60.03125 63.148438 59.945312 63.15625 C 59.507812 63.316406 59.054688 63.464844 58.578125 63.597656 C 58.128906 64.363281 57.558594 65.085938 56.867188 65.757812 Z M 82.367188 65.429688 C 82.550781 66.105469 82.589844 66.785156 82.476562 67.457031 C 82.972656 67.222656 83.421875 66.972656 83.820312 66.707031 C 84.675781 66.128906 85.292969 65.488281 85.671875 64.785156 C 84.585938 64.988281 83.484375 65.207031 82.367188 65.429688 Z M 66.285156 66.347656 C 66.511719 66.714844 66.691406 67.09375 66.832031 67.488281 C 67.09375 67.457031 67.355469 67.425781 67.617188 67.390625 C 67.394531 67.25 67.175781 67.097656 66.96875 66.9375 C 66.726562 66.75 66.5 66.554688 66.285156 66.347656 Z M 62.917969 65.355469 C 63.742188 66.207031 64.644531 66.972656 65.574219 67.625 C 65.753906 67.609375 65.9375 67.589844 66.121094 67.570312 C 65.734375 66.589844 65.089844 65.820312 64.441406 65.246094 C 64.253906 65.078125 64.054688 64.917969 63.847656 64.769531 C 63.53125 64.9375 63.226562 65.128906 62.9375 65.339844 Z M 55.113281 67.191406 C 56.367188 67.550781 57.816406 67.769531 59.46875 67.847656 C 58.746094 67.558594 58.0625 67.242188 57.433594 66.902344 C 57.042969 66.691406 56.679688 66.476562 56.332031 66.25 C 56.144531 66.414062 55.953125 66.570312 55.75 66.726562 C 55.546875 66.886719 55.332031 67.039062 55.113281 67.191406 Z M 60.945312 67.644531 C 61.179688 67.722656 61.417969 67.800781 61.65625 67.875 C 62.582031 67.855469 63.535156 67.804688 64.515625 67.722656 L 64.5 67.710938 C 63.742188 67.125 63.027344 66.484375 62.367188 65.800781 C 61.769531 66.335938 61.269531 66.964844 60.945312 67.644531 Z M 50.996094 65.839844 C 51.070312 66.039062 51.171875 66.242188 51.292969 66.445312 C 51.613281 66.976562 52.011719 67.457031 52.484375 67.882812 C 52.824219 67.722656 53.15625 67.554688 53.484375 67.371094 C 53.460938 67.363281 53.441406 67.355469 53.417969 67.347656 C 52.488281 66.945312 51.679688 66.441406 50.996094 65.835938 Z M 70.722656 67.929688 C 71.023438 68.003906 71.332031 68.0625 71.636719 68.105469 C 71.59375 67.914062 71.535156 67.71875 71.46875 67.527344 C 71.421875 67.535156 71.375 67.542969 71.328125 67.550781 C 71.128906 67.679688 70.929688 67.808594 70.722656 67.929688 Z M 72.507812 67.347656 C 72.710938 67.628906 72.9375 67.90625 73.179688 68.179688 C 74.105469 68.136719 74.953125 67.9375 75.648438 67.59375 C 75.804688 67.3125 75.945312 67.011719 76.070312 66.6875 C 74.878906 66.917969 73.6875 67.140625 72.507812 67.347656 Z M 50.628906 66.695312 C 50.441406 67.277344 50.332031 67.945312 50.335938 68.71875 C 50.828125 68.5625 51.308594 68.386719 51.78125 68.191406 C 51.359375 67.773438 50.996094 67.3125 50.695312 66.8125 C 50.671875 66.773438 50.648438 66.734375 50.628906 66.695312 Z M 67.101562 68.578125 C 67.214844 68.640625 67.324219 68.699219 67.4375 68.757812 C 67.769531 68.628906 68.101562 68.488281 68.425781 68.34375 C 68.511719 68.21875 68.59375 68.09375 68.675781 67.964844 L 68.664062 67.960938 C 68.113281 68.039062 67.566406 68.109375 67.027344 68.175781 C 67.054688 68.308594 67.082031 68.445312 67.101562 68.578125 Z M 63.929688 68.472656 C 64.683594 68.640625 65.457031 68.785156 66.253906 68.90625 C 65.964844 68.734375 65.671875 68.550781 65.382812 68.351562 C 64.894531 68.398438 64.410156 68.441406 63.929688 68.472656 Z M 76.15625 68.121094 C 75.957031 68.453125 75.734375 68.75 75.488281 69.019531 C 75.4375 69.074219 75.382812 69.132812 75.332031 69.183594 C 77.757812 68.957031 79.9375 68.480469 81.683594 67.796875 C 81.898438 67.058594 81.898438 66.316406 81.683594 65.570312 C 81.304688 65.644531 80.929688 65.71875 80.550781 65.796875 C 79.679688 65.972656 78.804688 66.148438 77.929688 66.320312 C 77.644531 66.894531 77.226562 67.382812 76.683594 67.785156 C 76.515625 67.90625 76.339844 68.019531 76.15625 68.121094 Z M 73.816406 68.835938 C 73.875 68.894531 73.9375 68.953125 74 69.007812 C 74.066406 69.074219 74.136719 69.136719 74.207031 69.199219 C 74.449219 69.035156 74.675781 68.847656 74.882812 68.632812 C 74.542969 68.726562 74.1875 68.792969 73.816406 68.835938 Z M 44.621094 63.8125 C 44.882812 66.308594 46.316406 68.046875 47.640625 69.144531 C 47.714844 69.207031 47.789062 69.265625 47.867188 69.324219 C 48.460938 69.21875 49.058594 69.085938 49.640625 68.921875 C 49.605469 67.757812 49.808594 66.707031 50.238281 65.789062 C 50.152344 65.488281 50.105469 65.191406 50.097656 64.894531 C 49.996094 64.765625 49.898438 64.636719 49.804688 64.5 C 49.675781 64.496094 49.550781 64.488281 49.425781 64.484375 C 47.714844 64.386719 46.078125 64.160156 44.621094 63.8125 Z M 72.460938 68.886719 C 72.464844 68.910156 72.464844 68.9375 72.464844 68.960938 C 72.472656 69.085938 72.472656 69.210938 72.472656 69.332031 C 72.75 69.332031 73.023438 69.324219 73.296875 69.316406 C 73.15625 69.175781 73.015625 69.035156 72.882812 68.894531 C 72.742188 68.894531 72.605469 68.890625 72.460938 68.886719 Z M 68.648438 69.191406 C 69.597656 69.273438 70.558594 69.320312 71.53125 69.332031 C 71.609375 69.332031 71.691406 69.335938 71.769531 69.335938 C 71.773438 69.167969 71.765625 69 71.753906 68.828125 C 71.105469 68.753906 70.46875 68.617188 69.855469 68.425781 C 69.535156 68.59375 69.207031 68.757812 68.867188 68.914062 C 68.796875 69.007812 68.726562 69.097656 68.648438 69.191406 Z M 34.566406 64.695312 C 34.902344 65.632812 35.644531 66.546875 36.78125 67.414062 C 38.589844 68.792969 41.113281 69.511719 43.828125 69.613281 C 42.953125 68.675781 42.210938 67.710938 41.636719 66.75 C 41.0625 65.792969 40.652344 64.851562 40.40625 63.933594 C 38.765625 64.425781 36.742188 64.640625 34.566406 64.695312 Z M 41.074219 63.710938 C 41.582031 65.632812 42.875 67.683594 44.8125 69.625 C 45.515625 69.613281 46.230469 69.558594 46.941406 69.46875 C 45.800781 68.464844 44.96875 67.320312 44.460938 66.050781 C 44.148438 65.277344 43.964844 64.46875 43.902344 63.628906 C 43.769531 63.589844 43.640625 63.550781 43.511719 63.515625 C 43.097656 63.390625 42.707031 63.253906 42.335938 63.109375 C 41.957031 63.339844 41.535156 63.539062 41.074219 63.710938 Z M 60.621094 68.585938 C 60.511719 69.113281 60.511719 69.65625 60.664062 70.195312 C 62.1875 70.132812 63.761719 69.882812 65.296875 69.464844 C 63.992188 69.234375 62.738281 68.9375 61.5625 68.582031 C 61.378906 68.585938 61.199219 68.585938 61.015625 68.585938 C 60.882812 68.585938 60.753906 68.585938 60.621094 68.585938 Z M 53.085938 68.367188 C 54.472656 69.367188 56.347656 69.988281 58.570312 70.160156 C 59.019531 70.195312 59.476562 70.210938 59.941406 70.210938 C 59.816406 69.679688 59.804688 69.128906 59.90625 68.570312 C 57.714844 68.503906 55.875 68.214844 54.328125 67.695312 C 53.929688 67.933594 53.515625 68.15625 53.085938 68.367188 Z M 48.648438 69.886719 C 49.023438 70.128906 49.417969 70.359375 49.828125 70.570312 C 49.800781 70.425781 49.773438 70.277344 49.753906 70.128906 C 49.726562 69.960938 49.707031 69.796875 49.6875 69.632812 C 49.347656 69.726562 49 69.8125 48.648438 69.886719 Z M 75.109375 69.914062 C 76.21875 70.703125 77.40625 71.253906 78.546875 71.496094 C 79.800781 70.667969 80.769531 69.707031 81.316406 68.6875 C 80.515625 68.964844 79.632812 69.207031 78.679688 69.40625 C 77.566406 69.636719 76.363281 69.808594 75.109375 69.914062 Z M 79.578125 71.632812 C 81.617188 71.734375 84.226562 70.808594 85.585938 66.105469 C 85.210938 66.53125 84.75 66.925781 84.207031 67.292969 C 83.636719 67.675781 82.980469 68.023438 82.242188 68.332031 C 82.207031 68.429688 82.167969 68.527344 82.125 68.625 C 81.652344 69.707031 80.785156 70.726562 79.578125 71.632812 Z M 60.9375 70.886719 C 61.015625 71.042969 61.113281 71.195312 61.21875 71.347656 C 61.417969 71.625 61.644531 71.886719 61.902344 72.128906 C 62.738281 71.953125 63.546875 71.714844 64.300781 71.40625 C 64.984375 71.132812 65.710938 70.769531 66.40625 70.289062 C 66.429688 70.140625 66.445312 69.996094 66.457031 69.851562 C 64.652344 70.433594 62.761719 70.789062 60.9375 70.886719 Z M 50.640625 70.957031 C 53.738281 72.320312 57.609375 72.816406 61.066406 72.28125 C 60.917969 72.113281 60.78125 71.9375 60.652344 71.757812 C 60.457031 71.484375 60.296875 71.203125 60.171875 70.914062 C 59.609375 70.921875 59.058594 70.90625 58.515625 70.863281 C 56.777344 70.726562 55.238281 70.335938 53.9375 69.699219 C 53.355469 69.410156 52.828125 69.078125 52.359375 68.703125 C 51.71875 68.980469 51.054688 69.226562 50.371094 69.4375 C 50.390625 69.625 50.414062 69.820312 50.445312 70.023438 C 50.492188 70.34375 50.558594 70.65625 50.640625 70.957031 Z M 62.597656 72.695312 C 63.246094 73.152344 64.019531 73.515625 64.886719 73.78125 C 65.3125 73.246094 65.6875 72.601562 65.988281 71.832031 C 66.0625 71.640625 66.128906 71.449219 66.183594 71.265625 C 65.683594 71.5625 65.144531 71.828125 64.5625 72.0625 C 63.941406 72.3125 63.28125 72.523438 62.597656 72.695312 Z M 72.292969 70.59375 C 72.140625 71.179688 71.882812 71.753906 71.53125 72.308594 C 71.078125 73.011719 70.476562 73.671875 69.742188 74.269531 C 70 74.253906 70.261719 74.234375 70.523438 74.207031 C 73.1875 73.929688 75.722656 73.125 77.714844 72.003906 C 76.496094 71.632812 75.265625 70.960938 74.140625 70.058594 C 73.59375 70.34375 72.980469 70.523438 72.3125 70.59375 Z M 65.621094 73.976562 C 66.507812 74.179688 67.480469 74.289062 68.515625 74.300781 C 69.535156 73.617188 70.371094 72.816406 70.941406 71.925781 C 71.210938 71.503906 71.417969 71.070312 71.554688 70.628906 C 70.484375 70.613281 69.320312 70.34375 68.117188 69.847656 C 68.09375 69.847656 68.074219 69.84375 68.050781 69.839844 C 67.742188 70.144531 67.40625 70.429688 67.042969 70.699219 C 66.957031 71.15625 66.820312 71.621094 66.636719 72.089844 C 66.363281 72.792969 66.023438 73.421875 65.621094 73.976562 Z M 45.527344 70.308594 C 45.65625 70.421875 45.78125 70.535156 45.914062 70.648438 C 47.652344 72.167969 49.667969 73.472656 51.726562 74.441406 C 50.972656 73.605469 50.410156 72.609375 50.058594 71.476562 C 49.195312 71.070312 48.394531 70.597656 47.683594 70.070312 C 47.105469 70.164062 46.523438 70.234375 45.9375 70.28125 C 45.800781 70.289062 45.664062 70.300781 45.527344 70.308594 Z M 53.933594 75.347656 C 54.804688 75.648438 55.667969 75.882812 56.507812 76.042969 C 58.632812 76.449219 62.0625 76.625 64.367188 74.363281 C 63.3125 74.007812 62.417969 73.515625 61.691406 72.894531 C 59.75 73.261719 57.636719 73.3125 55.511719 73.03125 C 53.882812 72.816406 52.339844 72.417969 50.941406 71.859375 C 51.535156 73.324219 52.550781 74.507812 53.933594 75.347656 Z M 65.125 74.585938 C 64.410156 75.375 63.535156 75.976562 62.507812 76.386719 C 62.164062 76.519531 61.808594 76.632812 61.4375 76.726562 C 63.570312 76.515625 65.671875 75.890625 67.421875 74.960938 C 66.609375 74.894531 65.839844 74.773438 65.125 74.585938 Z M 59.835938 77.503906 C 58.789062 77.503906 57.769531 77.40625 56.816406 77.199219 C 55.605469 76.941406 54.535156 76.527344 53.609375 75.976562 C 50.757812 74.96875 47.851562 73.277344 45.453125 71.179688 C 45.136719 70.90625 44.832031 70.625 44.539062 70.339844 C 43.214844 70.34375 41.941406 70.210938 40.746094 69.9375 C 39.03125 69.546875 37.554688 68.886719 36.359375 67.976562 C 34.875 66.84375 34.136719 65.722656 33.835938 64.707031 C 30.675781 64.734375 27.257812 64.457031 24.257812 64.210938 C 22.085938 64.035156 20.210938 63.882812 18.859375 63.882812 C 18.667969 63.882812 18.511719 63.726562 18.511719 63.53125 C 18.511719 63.335938 18.667969 63.179688 18.859375 63.179688 C 20.238281 63.179688 22.125 63.332031 24.3125 63.507812 C 27.175781 63.742188 30.5625 64.019531 33.691406 64 C 33.566406 62.925781 33.894531 62.011719 34.234375 61.390625 C 34.910156 60.144531 36.164062 59 37.722656 58.183594 C 37.527344 57.113281 37.742188 56.179688 38.054688 55.453125 C 39.453125 52.199219 44.414062 49.691406 49.398438 49.691406 C 49.457031 49.691406 49.515625 49.691406 49.574219 49.691406 C 50.828125 49.707031 52.027344 49.886719 53.121094 50.21875 C 53.726562 49.980469 54.390625 49.796875 55.101562 49.675781 C 56.828125 49.378906 58.695312 49.496094 60.355469 49.996094 C 60.476562 50.03125 60.597656 50.074219 60.71875 50.113281 C 60.976562 49.882812 61.25 49.65625 61.542969 49.441406 C 62.75 48.550781 63.992188 48.023438 65.230469 47.878906 C 66.574219 47.722656 67.878906 48.019531 69.101562 48.769531 C 70.535156 49.644531 71.539062 50.644531 72.082031 51.742188 C 72.246094 52.070312 72.367188 52.40625 72.445312 52.746094 C 73.347656 52.878906 74.222656 53.039062 75.0625 53.226562 C 76.347656 53.296875 77.648438 53.535156 78.894531 53.941406 C 81.527344 54.796875 83.730469 56.324219 85.097656 58.246094 C 85.542969 58.867188 85.894531 59.527344 86.15625 60.214844 C 86.496094 60.960938 86.707031 61.75 86.785156 62.574219 C 86.828125 63.019531 86.808594 63.453125 86.726562 63.871094 C 93.003906 62.722656 98.503906 62.09375 101.710938 63.402344 C 101.886719 63.476562 101.972656 63.679688 101.902344 63.859375 C 101.828125 64.042969 101.625 64.128906 101.445312 64.054688 C 98.363281 62.792969 92.886719 63.449219 86.625 64.605469 C 86.570312 65.03125 86.484375 65.460938 86.367188 65.898438 C 85.753906 68.238281 84.78125 69.972656 83.476562 71.054688 C 82.3125 72.019531 80.921875 72.449219 79.351562 72.324219 C 79.132812 72.308594 78.914062 72.28125 78.695312 72.242188 C 78.363281 72.449219 78.011719 72.648438 77.640625 72.84375 C 75.578125 73.917969 73.074219 74.652344 70.59375 74.90625 C 69.960938 74.972656 69.339844 75.003906 68.730469 75.007812 C 67.726562 75.65625 66.554688 76.210938 65.246094 76.636719 C 63.492188 77.210938 61.625 77.503906 59.835938 77.503906 " fill-opacity="1" fill-rule="nonzero"/></g><g fill="#000000" fill-opacity="1"><g transform="translate(43.683679, 117.49751)"><g><path d="M 5.21875 0 L 7.363281 0 L 7.363281 -7.425781 L 5.21875 -7.425781 L 5.21875 -4.761719 L 2.929688 -4.761719 L 2.929688 -7.425781 L 0.785156 -7.425781 L 0.785156 0 L 2.929688 0 L 2.929688 -2.789062 L 5.21875 -2.789062 Z M 5.21875 0 "/></g></g></g><g fill="#000000" fill-opacity="1"><g transform="translate(51.829426, 117.49751)"><g><path d="M 0.0546875 0 L 2.324219 0 L 2.726562 -1.050781 L 5.261719 -1.050781 L 5.664062 0 L 7.945312 0 L 5.058594 -7.425781 L 2.9375 -7.425781 Z M 3.171875 -2.621094 L 4 -4.921875 L 4.828125 -2.621094 Z M 3.171875 -2.621094 "/></g></g></g><g fill="#000000" fill-opacity="1"><g transform="translate(59.826684, 117.49751)"><g><path d="M 0.785156 0 L 2.929688 0 L 2.929688 -2.109375 L 3.734375 -2.109375 L 4.792969 0 L 7.222656 0 L 5.855469 -2.503906 C 6.640625 -2.9375 7.085938 -3.722656 7.085938 -4.761719 C 7.085938 -6.40625 5.972656 -7.425781 4.167969 -7.425781 L 0.785156 -7.425781 Z M 2.886719 -3.820312 L 2.886719 -5.675781 L 3.882812 -5.675781 C 4.5625 -5.675781 4.933594 -5.347656 4.933594 -4.753906 C 4.933594 -4.160156 4.5625 -3.820312 3.882812 -3.820312 Z M 2.886719 -3.820312 "/></g></g></g><g fill="#000000" fill-opacity="1"><g transform="translate(67.463322, 117.49751)"><g><path d="M 0.785156 0 L 3.9375 0 C 6.332031 0 7.925781 -1.472656 7.925781 -3.710938 C 7.925781 -5.941406 6.332031 -7.425781 3.9375 -7.425781 L 0.785156 -7.425781 Z M 2.929688 -1.921875 L 2.929688 -5.503906 L 3.871094 -5.503906 C 5.007812 -5.503906 5.738281 -4.804688 5.738281 -3.710938 C 5.738281 -2.621094 5.007812 -1.921875 3.871094 -1.921875 Z M 2.929688 -1.921875 "/></g></g></g></svg>