<svg xmlns="http://www.w3.org/2000/svg" xmlns:xlink="http://www.w3.org/1999/xlink" width="160" zoomAndPan="magnify" viewBox="0 0 120 136.499996" height="182" preserveAspectRatio="xMidYMid meet" version="1.0"><defs><filter x="0%" y="0%" width="100%" height="100%" id="f531ca5784"><feColorMatrix values="0 0 0 0 1 0 0 0 0 1 0 0 0 0 1 0 0 0 1 0" color-interpolation-filters="sRGB"/></filter><g/><mask id="d73700ab3c"><g filter="url(#f531ca5784)"><rect x="-12" width="144" fill="#000000" y="-13.65" height="163.799995" fill-opacity="0.41"/></g></mask><clipPath id="78c78d4c9d"><path d="M 0.75 0.769531 L 113.242188 0.769531 L 113.242188 104.359375 L 0.75 104.359375 Z M 0.75 0.769531 " clip-rule="nonzero"/></clipPath><clipPath id="500bc607d2"><path d="M 15.695312 0.769531 L 98.441406 0.769531 C 106.695312 0.769531 113.386719 7.460938 113.386719 15.714844 L 113.386719 89.414062 C 113.386719 97.667969 106.695312 104.359375 98.441406 104.359375 L 15.695312 104.359375 C 7.441406 104.359375 0.75 97.667969 0.75 89.414062 L 0.75 15.714844 C 0.75 7.460938 7.441406 0.769531 15.695312 0.769531 Z M 15.695312 0.769531 " clip-rule="nonzero"/></clipPath><linearGradient x1="0" gradientTransform="matrix(0.404647, 0, 0, 0.404647, 0.750332, 0.770649)" y1="0" x2="278" gradientUnits="userSpaceOnUse" y2="0" id="c76ff07302"><stop stop-opacity="1" stop-color="rgb(11.799622%, 85.899353%, 79.598999%)" offset="0"/><stop stop-opacity="1" stop-color="rgb(11.752319%, 85.742188%, 79.530334%)" offset="0.0078125"/><stop stop-opacity="1" stop-color="rgb(11.660767%, 85.430908%, 79.393005%)" offset="0.015625"/><stop stop-opacity="1" stop-color="rgb(11.569214%, 85.118103%, 79.255676%)" offset="0.0234375"/><stop stop-opacity="1" stop-color="rgb(11.476135%, 84.806824%, 79.118347%)" offset="0.03125"/><stop stop-opacity="1" stop-color="rgb(11.384583%, 84.494019%, 78.981018%)" offset="0.0390625"/><stop stop-opacity="1" stop-color="rgb(11.29303%, 84.182739%, 78.843689%)" offset="0.046875"/><stop stop-opacity="1" stop-color="rgb(11.199951%, 83.869934%, 78.70636%)" offset="0.0546875"/><stop stop-opacity="1" stop-color="rgb(11.108398%, 83.558655%, 78.569031%)" offset="0.0625"/><stop stop-opacity="1" stop-color="rgb(11.016846%, 83.24585%, 78.431702%)" offset="0.0703125"/><stop stop-opacity="1" stop-color="rgb(10.923767%, 82.933044%, 78.294373%)" offset="0.078125"/><stop stop-opacity="1" stop-color="rgb(10.832214%, 82.621765%, 78.157043%)" offset="0.0859375"/><stop stop-opacity="1" stop-color="rgb(10.740662%, 82.30896%, 78.019714%)" offset="0.09375"/><stop stop-opacity="1" stop-color="rgb(10.647583%, 81.997681%, 77.882385%)" offset="0.101562"/><stop stop-opacity="1" stop-color="rgb(10.55603%, 81.684875%, 77.745056%)" offset="0.109375"/><stop stop-opacity="1" stop-color="rgb(10.464478%, 81.373596%, 77.607727%)" offset="0.117188"/><stop stop-opacity="1" stop-color="rgb(10.371399%, 81.060791%, 77.470398%)" offset="0.125"/><stop stop-opacity="1" stop-color="rgb(10.279846%, 80.749512%, 77.333069%)" offset="0.132812"/><stop stop-opacity="1" stop-color="rgb(10.188293%, 80.436707%, 77.19574%)" offset="0.140625"/><stop stop-opacity="1" stop-color="rgb(10.095215%, 80.125427%, 77.058411%)" offset="0.148438"/><stop stop-opacity="1" stop-color="rgb(10.003662%, 79.812622%, 76.921082%)" offset="0.15625"/><stop stop-opacity="1" stop-color="rgb(9.912109%, 79.499817%, 76.783752%)" offset="0.164062"/><stop stop-opacity="1" stop-color="rgb(9.819031%, 79.188538%, 76.646423%)" offset="0.171875"/><stop stop-opacity="1" stop-color="rgb(9.727478%, 78.875732%, 76.509094%)" offset="0.179688"/><stop stop-opacity="1" stop-color="rgb(9.635925%, 78.564453%, 76.371765%)" offset="0.1875"/><stop stop-opacity="1" stop-color="rgb(9.542847%, 78.251648%, 76.234436%)" offset="0.195312"/><stop stop-opacity="1" stop-color="rgb(9.451294%, 77.940369%, 76.097107%)" offset="0.203125"/><stop stop-opacity="1" stop-color="rgb(9.359741%, 77.627563%, 75.959778%)" offset="0.210938"/><stop stop-opacity="1" stop-color="rgb(9.266663%, 77.316284%, 75.822449%)" offset="0.21875"/><stop stop-opacity="1" stop-color="rgb(9.17511%, 77.003479%, 75.68512%)" offset="0.226562"/><stop stop-opacity="1" stop-color="rgb(9.083557%, 76.6922%, 75.547791%)" offset="0.234375"/><stop stop-opacity="1" stop-color="rgb(8.990479%, 76.379395%, 75.410461%)" offset="0.242188"/><stop stop-opacity="1" stop-color="rgb(8.898926%, 76.066589%, 75.273132%)" offset="0.25"/><stop stop-opacity="1" stop-color="rgb(8.805847%, 75.75531%, 75.135803%)" offset="0.257812"/><stop stop-opacity="1" stop-color="rgb(8.714294%, 75.442505%, 74.998474%)" offset="0.265625"/><stop stop-opacity="1" stop-color="rgb(8.622742%, 75.131226%, 74.861145%)" offset="0.273438"/><stop stop-opacity="1" stop-color="rgb(8.529663%, 74.81842%, 74.723816%)" offset="0.28125"/><stop stop-opacity="1" stop-color="rgb(8.43811%, 74.507141%, 74.586487%)" offset="0.289062"/><stop stop-opacity="1" stop-color="rgb(8.346558%, 74.194336%, 74.449158%)" offset="0.296875"/><stop stop-opacity="1" stop-color="rgb(8.253479%, 73.883057%, 74.311829%)" offset="0.304688"/><stop stop-opacity="1" stop-color="rgb(8.161926%, 73.570251%, 74.1745%)" offset="0.3125"/><stop stop-opacity="1" stop-color="rgb(8.070374%, 73.257446%, 74.03717%)" offset="0.320312"/><stop stop-opacity="1" stop-color="rgb(7.977295%, 72.946167%, 73.899841%)" offset="0.328125"/><stop stop-opacity="1" stop-color="rgb(7.885742%, 72.633362%, 73.762512%)" offset="0.335938"/><stop stop-opacity="1" stop-color="rgb(7.794189%, 72.322083%, 73.625183%)" offset="0.34375"/><stop stop-opacity="1" stop-color="rgb(7.701111%, 72.009277%, 73.487854%)" offset="0.351562"/><stop stop-opacity="1" stop-color="rgb(7.609558%, 71.697998%, 73.350525%)" offset="0.359375"/><stop stop-opacity="1" stop-color="rgb(7.518005%, 71.385193%, 73.213196%)" offset="0.367188"/><stop stop-opacity="1" stop-color="rgb(7.424927%, 71.073914%, 73.075867%)" offset="0.375"/><stop stop-opacity="1" stop-color="rgb(7.333374%, 70.761108%, 72.938538%)" offset="0.382812"/><stop stop-opacity="1" stop-color="rgb(7.241821%, 70.449829%, 72.801208%)" offset="0.390625"/><stop stop-opacity="1" stop-color="rgb(7.148743%, 70.137024%, 72.663879%)" offset="0.398438"/><stop stop-opacity="1" stop-color="rgb(7.05719%, 69.824219%, 72.52655%)" offset="0.40625"/><stop stop-opacity="1" stop-color="rgb(6.965637%, 69.512939%, 72.389221%)" offset="0.414062"/><stop stop-opacity="1" stop-color="rgb(6.872559%, 69.200134%, 72.251892%)" offset="0.421875"/><stop stop-opacity="1" stop-color="rgb(6.781006%, 68.888855%, 72.114563%)" offset="0.429688"/><stop stop-opacity="1" stop-color="rgb(6.689453%, 68.57605%, 71.977234%)" offset="0.4375"/><stop stop-opacity="1" stop-color="rgb(6.596375%, 68.264771%, 71.839905%)" offset="0.445312"/><stop stop-opacity="1" stop-color="rgb(6.504822%, 67.951965%, 71.702576%)" offset="0.453125"/><stop stop-opacity="1" stop-color="rgb(6.413269%, 67.640686%, 71.565247%)" offset="0.460938"/><stop stop-opacity="1" stop-color="rgb(6.32019%, 67.327881%, 71.427917%)" offset="0.46875"/><stop stop-opacity="1" stop-color="rgb(6.228638%, 67.016602%, 71.290588%)" offset="0.476562"/><stop stop-opacity="1" stop-color="rgb(6.137085%, 66.703796%, 71.153259%)" offset="0.484375"/><stop stop-opacity="1" stop-color="rgb(6.044006%, 66.390991%, 71.01593%)" offset="0.492188"/><stop stop-opacity="1" stop-color="rgb(5.952454%, 66.079712%, 70.878601%)" offset="0.5"/><stop stop-opacity="1" stop-color="rgb(5.860901%, 65.766907%, 70.741272%)" offset="0.507812"/><stop stop-opacity="1" stop-color="rgb(5.767822%, 65.455627%, 70.603943%)" offset="0.515625"/><stop stop-opacity="1" stop-color="rgb(5.67627%, 65.142822%, 70.466614%)" offset="0.523438"/><stop stop-opacity="1" stop-color="rgb(5.584717%, 64.831543%, 70.329285%)" offset="0.53125"/><stop stop-opacity="1" stop-color="rgb(5.491638%, 64.518738%, 70.191956%)" offset="0.539062"/><stop stop-opacity="1" stop-color="rgb(5.400085%, 64.207458%, 70.054626%)" offset="0.546875"/><stop stop-opacity="1" stop-color="rgb(5.308533%, 63.894653%, 69.917297%)" offset="0.554687"/><stop stop-opacity="1" stop-color="rgb(5.215454%, 63.583374%, 69.779968%)" offset="0.5625"/><stop stop-opacity="1" stop-color="rgb(5.123901%, 63.270569%, 69.642639%)" offset="0.570312"/><stop stop-opacity="1" stop-color="rgb(5.030823%, 62.957764%, 69.50531%)" offset="0.578125"/><stop stop-opacity="1" stop-color="rgb(4.93927%, 62.646484%, 69.367981%)" offset="0.585938"/><stop stop-opacity="1" stop-color="rgb(4.847717%, 62.333679%, 69.230652%)" offset="0.59375"/><stop stop-opacity="1" stop-color="rgb(4.754639%, 62.0224%, 69.093323%)" offset="0.601562"/><stop stop-opacity="1" stop-color="rgb(4.663086%, 61.709595%, 68.955994%)" offset="0.609375"/><stop stop-opacity="1" stop-color="rgb(4.571533%, 61.398315%, 68.818665%)" offset="0.617188"/><stop stop-opacity="1" stop-color="rgb(4.478455%, 61.08551%, 68.681335%)" offset="0.625"/><stop stop-opacity="1" stop-color="rgb(4.386902%, 60.774231%, 68.544006%)" offset="0.632812"/><stop stop-opacity="1" stop-color="rgb(4.295349%, 60.461426%, 68.406677%)" offset="0.640625"/><stop stop-opacity="1" stop-color="rgb(4.202271%, 60.150146%, 68.269348%)" offset="0.648438"/><stop stop-opacity="1" stop-color="rgb(4.110718%, 59.837341%, 68.132019%)" offset="0.65625"/><stop stop-opacity="1" stop-color="rgb(4.019165%, 59.524536%, 67.99469%)" offset="0.664062"/><stop stop-opacity="1" stop-color="rgb(3.926086%, 59.213257%, 67.857361%)" offset="0.671875"/><stop stop-opacity="1" stop-color="rgb(3.834534%, 58.900452%, 67.720032%)" offset="0.679688"/><stop stop-opacity="1" stop-color="rgb(3.742981%, 58.589172%, 67.582703%)" offset="0.6875"/><stop stop-opacity="1" stop-color="rgb(3.649902%, 58.276367%, 67.445374%)" offset="0.695312"/><stop stop-opacity="1" stop-color="rgb(3.55835%, 57.965088%, 67.308044%)" offset="0.703125"/><stop stop-opacity="1" stop-color="rgb(3.466797%, 57.652283%, 67.170715%)" offset="0.710938"/><stop stop-opacity="1" stop-color="rgb(3.373718%, 57.341003%, 67.033386%)" offset="0.71875"/><stop stop-opacity="1" stop-color="rgb(3.282166%, 57.028198%, 66.896057%)" offset="0.726562"/><stop stop-opacity="1" stop-color="rgb(3.190613%, 56.715393%, 66.758728%)" offset="0.734375"/><stop stop-opacity="1" stop-color="rgb(3.097534%, 56.404114%, 66.621399%)" offset="0.742188"/><stop stop-opacity="1" stop-color="rgb(3.005981%, 56.091309%, 66.48407%)" offset="0.75"/><stop stop-opacity="1" stop-color="rgb(2.914429%, 55.780029%, 66.346741%)" offset="0.757812"/><stop stop-opacity="1" stop-color="rgb(2.82135%, 55.467224%, 66.209412%)" offset="0.765625"/><stop stop-opacity="1" stop-color="rgb(2.729797%, 55.155945%, 66.072083%)" offset="0.773438"/><stop stop-opacity="1" stop-color="rgb(2.638245%, 54.84314%, 65.934753%)" offset="0.78125"/><stop stop-opacity="1" stop-color="rgb(2.545166%, 54.53186%, 65.797424%)" offset="0.789062"/><stop stop-opacity="1" stop-color="rgb(2.453613%, 54.219055%, 65.660095%)" offset="0.796875"/><stop stop-opacity="1" stop-color="rgb(2.362061%, 53.907776%, 65.522766%)" offset="0.804688"/><stop stop-opacity="1" stop-color="rgb(2.268982%, 53.594971%, 65.385437%)" offset="0.8125"/><stop stop-opacity="1" stop-color="rgb(2.177429%, 53.282166%, 65.248108%)" offset="0.820312"/><stop stop-opacity="1" stop-color="rgb(2.085876%, 52.970886%, 65.110779%)" offset="0.828125"/><stop stop-opacity="1" stop-color="rgb(1.992798%, 52.658081%, 64.97345%)" offset="0.835938"/><stop stop-opacity="1" stop-color="rgb(1.901245%, 52.346802%, 64.836121%)" offset="0.84375"/><stop stop-opacity="1" stop-color="rgb(1.809692%, 52.033997%, 64.698792%)" offset="0.851562"/><stop stop-opacity="1" stop-color="rgb(1.716614%, 51.722717%, 64.561462%)" offset="0.859375"/><stop stop-opacity="1" stop-color="rgb(1.625061%, 51.409912%, 64.424133%)" offset="0.867188"/><stop stop-opacity="1" stop-color="rgb(1.533508%, 51.098633%, 64.286804%)" offset="0.875"/><stop stop-opacity="1" stop-color="rgb(1.44043%, 50.785828%, 64.149475%)" offset="0.882812"/><stop stop-opacity="1" stop-color="rgb(1.348877%, 50.474548%, 64.012146%)" offset="0.890625"/><stop stop-opacity="1" stop-color="rgb(1.255798%, 50.161743%, 63.874817%)" offset="0.898438"/><stop stop-opacity="1" stop-color="rgb(1.164246%, 49.848938%, 63.737488%)" offset="0.90625"/><stop stop-opacity="1" stop-color="rgb(1.072693%, 49.537659%, 63.600159%)" offset="0.914062"/><stop stop-opacity="1" stop-color="rgb(0.979614%, 49.224854%, 63.46283%)" offset="0.921875"/><stop stop-opacity="1" stop-color="rgb(0.888062%, 48.913574%, 63.3255%)" offset="0.929688"/><stop stop-opacity="1" stop-color="rgb(0.796509%, 48.600769%, 63.188171%)" offset="0.9375"/><stop stop-opacity="1" stop-color="rgb(0.70343%, 48.28949%, 63.050842%)" offset="0.945313"/><stop stop-opacity="1" stop-color="rgb(0.611877%, 47.976685%, 62.913513%)" offset="0.953125"/><stop stop-opacity="1" stop-color="rgb(0.520325%, 47.665405%, 62.776184%)" offset="0.960938"/><stop stop-opacity="1" stop-color="rgb(0.427246%, 47.3526%, 62.638855%)" offset="0.96875"/><stop stop-opacity="1" stop-color="rgb(0.335693%, 47.041321%, 62.501526%)" offset="0.976562"/><stop stop-opacity="1" stop-color="rgb(0.244141%, 46.728516%, 62.364197%)" offset="0.984375"/><stop stop-opacity="1" stop-color="rgb(0.151062%, 46.41571%, 62.226868%)" offset="0.992188"/><stop stop-opacity="1" stop-color="rgb(0.0595093%, 46.104431%, 62.089539%)" offset="1"/></linearGradient><clipPath id="354108c39b"><rect x="0" width="114" y="0" height="105"/></clipPath><clipPath id="6e4345117e"><path d="M 4.195312 0.445312 L 115 0.445312 L 115 133.535156 L 4.195312 133.535156 Z M 4.195312 0.445312 " clip-rule="nonzero"/></clipPath><clipPath id="cd88ffc632"><path d="M 6.230469 133.234375 L 112.980469 133.234375 C 114.050781 133.234375 114.898438 132.390625 114.898438 131.320312 L 114.898438 2.480469 C 114.898438 1.410156 114.050781 0.5625 112.980469 0.5625 L 6.230469 0.5625 C 5.160156 0.5625 4.3125 1.410156 4.3125 2.480469 L 4.3125 131.320312 C 4.3125 132.390625 5.160156 133.234375 6.230469 133.234375 Z M 6.230469 133.234375 " clip-rule="nonzero"/></clipPath><clipPath id="0cd209e4fb"><path d="M 3.75 0 L 117.320312 0 L 117.320312 135.75 L 3.75 135.75 Z M 3.75 0 " clip-rule="nonzero"/></clipPath><clipPath id="de3bd5dc95"><path d="M 115.402344 1.972656 C 115.179688 0.84375 114.164062 0 112.980469 0 L 6.230469 0 C 4.878906 0 3.75 1.128906 3.75 2.480469 L 3.75 131.320312 C 3.75 132.503906 4.539062 133.460938 5.667969 133.742188 C 5.890625 134.871094 6.90625 135.714844 8.089844 135.714844 L 114.839844 135.714844 C 116.191406 135.714844 117.320312 134.589844 117.320312 133.234375 L 117.320312 4.398438 C 117.320312 3.214844 116.53125 2.253906 115.402344 1.972656 Z M 4.3125 131.320312 L 4.3125 2.480469 C 4.3125 1.410156 5.160156 0.5625 6.230469 0.5625 L 112.980469 0.5625 C 114.050781 0.5625 114.898438 1.410156 114.898438 2.480469 L 114.898438 131.320312 C 114.898438 132.390625 114.050781 133.234375 112.980469 133.234375 L 6.230469 133.234375 C 5.160156 133.234375 4.3125 132.390625 4.3125 131.320312 Z M 4.3125 131.320312 " clip-rule="nonzero"/></clipPath><clipPath id="c773e83045"><path d="M 17.019531 65 L 21 65 L 21 69 L 17.019531 69 Z M 17.019531 65 " clip-rule="nonzero"/></clipPath><clipPath id="9de200cc50"><path d="M 98 65 L 102.207031 65 L 102.207031 69 L 98 69 Z M 98 65 " clip-rule="nonzero"/></clipPath><clipPath id="b04c8afdca"><path d="M 18 57 L 101 57 L 101 79.601562 L 18 79.601562 Z M 18 57 " clip-rule="nonzero"/></clipPath></defs><g mask="url(#d73700ab3c)"><g transform="matrix(1, 0, 0, 1, 3, 0)"><g clip-path="url(#354108c39b)"><g clip-path="url(#78c78d4c9d)"><g clip-path="url(#500bc607d2)"><path fill="url(#c76ff07302)" d="M 0.75 0.769531 L 0.75 104.359375 L 113.242188 104.359375 L 113.242188 0.769531 Z M 0.75 0.769531 " fill-rule="nonzero"/></g></g></g></g></g><g clip-path="url(#6e4345117e)"><g clip-path="url(#cd88ffc632)"><path fill="#d0ff96" d="M 3.75 0 L 117.320312 0 L 117.320312 135.75 L 3.75 135.75 Z M 3.75 0 " fill-opacity="1" fill-rule="nonzero"/></g></g><g clip-path="url(#0cd209e4fb)"><g clip-path="url(#de3bd5dc95)"><path fill="#231f20" d="M 3.75 0 L 117.320312 0 L 117.320312 135.75 L 3.75 135.75 Z M 3.75 0 " fill-opacity="1" fill-rule="nonzero"/></g></g><g clip-path="url(#c773e83045)"><path fill="#000000" d="M 17.363281 66.894531 C 17.363281 66.144531 17.960938 65.53125 18.703125 65.53125 C 19.445312 65.53125 20.042969 66.144531 20.042969 66.894531 C 20.042969 67.648438 19.445312 68.261719 18.703125 68.261719 C 17.960938 68.261719 17.363281 67.648438 17.363281 66.894531 " fill-opacity="1" fill-rule="nonzero"/><path fill="#000000" d="M 18.703125 65.882812 C 18.152344 65.882812 17.703125 66.335938 17.703125 66.894531 C 17.703125 67.457031 18.152344 67.914062 18.703125 67.914062 C 19.253906 67.914062 19.703125 67.457031 19.703125 66.894531 C 19.703125 66.335938 19.253906 65.882812 18.703125 65.882812 Z M 18.703125 68.609375 C 17.773438 68.609375 17.019531 67.839844 17.019531 66.894531 C 17.019531 65.953125 17.773438 65.183594 18.703125 65.183594 C 19.632812 65.183594 20.386719 65.953125 20.386719 66.894531 C 20.386719 67.839844 19.632812 68.609375 18.703125 68.609375 " fill-opacity="1" fill-rule="nonzero"/></g><path fill="#000000" d="M 99.183594 66.894531 C 99.183594 66.144531 99.785156 65.53125 100.523438 65.53125 C 101.265625 65.53125 101.867188 66.144531 101.867188 66.894531 C 101.867188 67.648438 101.265625 68.261719 100.523438 68.261719 C 99.785156 68.261719 99.183594 67.648438 99.183594 66.894531 " fill-opacity="1" fill-rule="nonzero"/><g clip-path="url(#9de200cc50)"><path fill="#000000" d="M 100.523438 65.882812 C 99.972656 65.882812 99.527344 66.335938 99.527344 66.894531 C 99.527344 67.457031 99.972656 67.914062 100.523438 67.914062 C 101.074219 67.914062 101.523438 67.457031 101.523438 66.894531 C 101.523438 66.335938 101.074219 65.882812 100.523438 65.882812 Z M 100.523438 68.609375 C 99.597656 68.609375 98.839844 67.839844 98.839844 66.894531 C 98.839844 65.953125 99.597656 65.183594 100.523438 65.183594 C 101.453125 65.183594 102.207031 65.953125 102.207031 66.894531 C 102.207031 67.839844 101.453125 68.609375 100.523438 68.609375 " fill-opacity="1" fill-rule="nonzero"/></g><g clip-path="url(#b04c8afdca)"><path fill="#000000" d="M 54.433594 59.835938 C 54.417969 59.835938 54.398438 59.835938 54.382812 59.835938 C 53.691406 59.855469 53.214844 60.28125 52.957031 61.101562 C 52.570312 62.347656 53.191406 63.707031 54.851562 65.261719 C 55.65625 66.015625 56.644531 66.757812 57.703125 67.488281 C 58.867188 65.800781 58.550781 64.132812 58.195312 63.183594 C 57.511719 61.351562 55.800781 59.835938 54.433594 59.835938 Z M 69.027344 64.460938 C 68.894531 64.96875 68.835938 65.453125 68.84375 65.910156 C 68.867188 66.941406 69.253906 67.816406 69.992188 68.503906 C 70.925781 69.375 72.417969 69.910156 74.078125 69.976562 C 75.648438 70.039062 77.113281 69.667969 78 68.988281 C 78.882812 68.3125 79.066406 67.4375 78.550781 66.390625 C 77.457031 64.160156 74.507812 63.992188 72.382812 64.0625 C 71.179688 64.097656 70.0625 64.238281 69.027344 64.460938 Z M 46.367188 64.027344 C 45.671875 64.027344 45.054688 64.273438 44.851562 64.890625 C 44.0625 67.296875 44.425781 69.109375 45.90625 70.132812 C 46.257812 70.375 46.671875 70.574219 47.136719 70.722656 C 47.988281 69.539062 48.65625 68.019531 49.152344 66.144531 C 49.382812 65.28125 48.453125 64.511719 47.414062 64.191406 C 47.074219 64.089844 46.710938 64.027344 46.367188 64.027344 Z M 60.367188 70.0625 C 59.894531 70.773438 59.527344 71.5 59.253906 72.210938 C 58.335938 74.621094 58.503906 76.9375 59.6875 78.105469 C 60.65625 79.0625 62.234375 79.140625 64.132812 78.328125 C 65.839844 77.59375 66.738281 76.808594 66.804688 75.984375 C 66.941406 74.269531 63.601562 72.132812 60.367188 70.0625 Z M 61.746094 79.582031 C 60.734375 79.582031 59.867188 79.253906 59.210938 78.605469 C 57.828125 77.242188 57.597656 74.632812 58.617188 71.960938 C 58.902344 71.207031 59.292969 70.441406 59.789062 69.691406 C 59.136719 69.277344 58.480469 68.855469 57.847656 68.425781 C 57.609375 68.699219 57.34375 68.964844 57.046875 69.214844 C 55.65625 70.402344 53.511719 71.308594 51.308594 71.632812 C 49.878906 71.84375 48.53125 71.796875 47.390625 71.515625 C 46.589844 72.511719 45.644531 73.273438 44.566406 73.785156 C 42.324219 74.847656 39.484375 74.871094 35.894531 73.851562 C 32.8125 72.972656 29.605469 71.457031 26.777344 70.121094 C 23.566406 68.601562 20.792969 67.289062 19.011719 67.246094 C 18.824219 67.238281 18.671875 67.082031 18.679688 66.886719 C 18.683594 66.695312 18.839844 66.542969 19.027344 66.546875 C 20.949219 66.597656 23.785156 67.9375 27.066406 69.488281 C 29.871094 70.816406 33.050781 72.320312 36.078125 73.179688 C 39.507812 74.152344 42.1875 74.144531 44.277344 73.15625 C 45.1875 72.722656 45.988281 72.105469 46.683594 71.300781 C 46.253906 71.140625 45.863281 70.941406 45.519531 70.707031 C 44.6875 70.128906 44.136719 69.34375 43.894531 68.371094 C 43.636719 67.324219 43.738281 66.082031 44.203125 64.671875 C 44.648438 63.304688 46.28125 63.121094 47.613281 63.527344 C 48.921875 63.929688 50.171875 64.976562 49.816406 66.324219 C 49.332031 68.148438 48.667969 69.6875 47.839844 70.90625 C 48.828125 71.109375 49.984375 71.125 51.210938 70.945312 C 53.292969 70.636719 55.308594 69.789062 56.609375 68.683594 C 56.859375 68.46875 57.082031 68.25 57.273438 68.035156 C 56.207031 67.296875 55.210938 66.542969 54.390625 65.773438 C 52.511719 64.015625 51.832031 62.421875 52.304688 60.894531 C 52.648438 59.789062 53.378906 59.167969 54.359375 59.140625 C 56.03125 59.089844 58.035156 60.792969 58.835938 62.9375 C 59.226562 63.980469 59.308594 65.066406 59.074219 66.078125 C 58.925781 66.710938 58.65625 67.3125 58.269531 67.875 C 58.898438 68.296875 59.542969 68.714844 60.1875 69.125 C 61.890625 66.839844 64.621094 64.792969 68.484375 63.871094 C 68.738281 63.058594 69.144531 62.199219 69.699219 61.296875 C 70.554688 59.90625 72.230469 58.164062 74.128906 57.84375 C 82.359375 56.449219 85.0625 60.246094 87.449219 63.597656 C 88.695312 65.355469 89.875 67.011719 91.738281 67.765625 C 93.839844 68.613281 96.589844 68.234375 100.390625 66.578125 C 100.5625 66.5 100.765625 66.582031 100.839844 66.757812 C 100.914062 66.9375 100.832031 67.140625 100.660156 67.214844 C 96.683594 68.953125 93.769531 69.332031 91.484375 68.410156 C 89.4375 67.582031 88.203125 65.847656 86.894531 64.007812 C 84.515625 60.664062 82.054688 57.207031 74.242188 58.53125 C 72.671875 58.792969 71.121094 60.296875 70.277344 61.667969 C 69.839844 62.378906 69.503906 63.058594 69.265625 63.703125 C 70.230469 63.515625 71.261719 63.402344 72.363281 63.367188 C 73.910156 63.316406 75.105469 63.429688 76.125 63.722656 C 77.578125 64.144531 78.601562 64.933594 79.164062 66.078125 C 79.507812 66.777344 79.601562 67.445312 79.445312 68.0625 C 79.300781 68.628906 78.953125 69.128906 78.410156 69.542969 C 77.40625 70.316406 75.773438 70.738281 74.050781 70.671875 C 72.230469 70.601562 70.582031 69.996094 69.527344 69.015625 C 68.648438 68.195312 68.1875 67.15625 68.160156 65.925781 C 68.152344 65.511719 68.191406 65.082031 68.285156 64.636719 C 64.808594 65.550781 62.335938 67.417969 60.769531 69.5 C 62.527344 70.621094 64.183594 71.683594 65.425781 72.730469 C 66.914062 73.988281 67.566406 75.039062 67.488281 76.042969 C 67.398438 77.160156 66.386719 78.117188 64.398438 78.96875 C 63.441406 79.378906 62.546875 79.582031 61.746094 79.582031 " fill-opacity="1" fill-rule="nonzero"/></g><g fill="#000000" fill-opacity="1"><g transform="translate(36.453912, 117.49751)"><g><path d="M 0.785156 0 L 2.90625 0 L 2.90625 -3.765625 L 4.339844 -1.761719 L 5.726562 -1.761719 L 7.148438 -3.753906 L 7.148438 0 L 9.273438 0 L 9.273438 -7.425781 L 7.53125 -7.425781 L 5.027344 -3.894531 L 2.535156 -7.425781 L 0.785156 -7.425781 Z M 0.785156 0 "/></g></g></g><g fill="#000000" fill-opacity="1"><g transform="translate(46.508819, 117.49751)"><g><path d="M 0.785156 0 L 5.992188 0 L 5.992188 -1.75 L 2.90625 -1.75 L 2.90625 -2.894531 L 5.589844 -2.894531 L 5.589844 -4.613281 L 2.90625 -4.613281 L 2.90625 -5.695312 L 5.875 -5.695312 L 5.875 -7.425781 L 0.785156 -7.425781 Z M 0.785156 0 "/></g></g></g><g fill="#000000" fill-opacity="1"><g transform="translate(52.978749, 117.49751)"><g><path d="M 0.785156 0 L 3.9375 0 C 6.332031 0 7.925781 -1.472656 7.925781 -3.710938 C 7.925781 -5.941406 6.332031 -7.425781 3.9375 -7.425781 L 0.785156 -7.425781 Z M 2.929688 -1.921875 L 2.929688 -5.503906 L 3.871094 -5.503906 C 5.007812 -5.503906 5.738281 -4.804688 5.738281 -3.710938 C 5.738281 -2.621094 5.007812 -1.921875 3.871094 -1.921875 Z M 2.929688 -1.921875 "/></g></g></g><g fill="#000000" fill-opacity="1"><g transform="translate(61.262382, 117.49751)"><g><path d="M 0.785156 0 L 2.929688 0 L 2.929688 -7.425781 L 0.785156 -7.425781 Z M 0.785156 0 "/></g></g></g><g fill="#000000" fill-opacity="1"><g transform="translate(64.974637, 117.49751)"><g><path d="M 3.976562 0.160156 C 5.984375 0.160156 7.222656 -1.0625 7.222656 -3.054688 L 7.222656 -7.425781 L 5.09375 -7.425781 L 5.09375 -3.191406 C 5.09375 -2.3125 4.71875 -1.847656 3.976562 -1.847656 C 3.234375 -1.847656 2.863281 -2.3125 2.863281 -3.191406 L 2.863281 -7.425781 L 0.722656 -7.425781 L 0.722656 -3.054688 C 0.722656 -1.0625 1.972656 0.160156 3.976562 0.160156 Z M 3.976562 0.160156 "/></g></g></g><g fill="#000000" fill-opacity="1"><g transform="translate(72.929468, 117.49751)"><g><path d="M 0.785156 0 L 2.90625 0 L 2.90625 -3.765625 L 4.339844 -1.761719 L 5.726562 -1.761719 L 7.148438 -3.753906 L 7.148438 0 L 9.273438 0 L 9.273438 -7.425781 L 7.53125 -7.425781 L 5.027344 -3.894531 L 2.535156 -7.425781 L 0.785156 -7.425781 Z M 0.785156 0 "/></g></g></g></svg>