<svg xmlns="http://www.w3.org/2000/svg" xmlns:xlink="http://www.w3.org/1999/xlink" width="384" zoomAndPan="magnify" viewBox="0 0 288 336.749987" height="449" preserveAspectRatio="xMidYMid meet" version="1.0"><defs><filter x="0%" y="0%" width="100%" height="100%" id="3f1dc644d6"><feColorMatrix values="0 0 0 0 1 0 0 0 0 1 0 0 0 0 1 0 0 0 1 0" color-interpolation-filters="sRGB"/></filter><g/><mask id="80dbeaf7d0"><g filter="url(#3f1dc644d6)"><rect x="-28.8" width="345.6" fill="#000000" y="-33.674999" height="404.099984" fill-opacity="0.41"/></g></mask><clipPath id="099e437190"><path d="M 0.402344 0.933594 L 283 0.933594 L 283 260.664062 L 0.402344 260.664062 Z M 0.402344 0.933594 " clip-rule="nonzero"/></clipPath><clipPath id="591172b306"><path d="M 38.625 0.933594 L 244.597656 0.933594 C 254.734375 0.933594 264.457031 4.960938 271.625 12.128906 C 278.792969 19.296875 282.820312 29.015625 282.820312 39.152344 L 282.820312 222.441406 C 282.820312 232.578125 278.792969 242.300781 271.625 249.46875 C 264.457031 256.636719 254.734375 260.664062 244.597656 260.664062 L 38.625 260.664062 C 28.488281 260.664062 18.765625 256.636719 11.597656 249.46875 C 4.429688 242.300781 0.402344 232.578125 0.402344 222.441406 L 0.402344 39.152344 C 0.402344 29.015625 4.429688 19.296875 11.597656 12.128906 C 18.765625 4.960938 28.488281 0.933594 38.625 0.933594 Z M 38.625 0.933594 " clip-rule="nonzero"/></clipPath><clipPath id="731eab242e"><rect x="0" width="284" y="0" height="261"/></clipPath><clipPath id="58a21e3364"><path d="M 3.515625 1.113281 L 281.597656 1.113281 L 281.597656 330 L 3.515625 330 Z M 3.515625 1.113281 " clip-rule="nonzero"/></clipPath><clipPath id="d9909827cf"><path d="M 8.621094 329.566406 L 276.273438 329.566406 C 278.960938 329.566406 281.082031 327.445312 281.082031 324.761719 L 281.082031 6.21875 C 281.082031 3.535156 278.960938 1.414062 276.273438 1.414062 L 8.621094 1.414062 C 5.9375 1.414062 3.816406 3.535156 3.816406 6.21875 L 3.816406 324.761719 C 3.816406 327.445312 5.9375 329.566406 8.621094 329.566406 Z M 8.621094 329.566406 " clip-rule="nonzero"/></clipPath><clipPath id="a8ff635037"><path d="M 2.402344 0 L 287.15625 0 L 287.15625 335.921875 L 2.402344 335.921875 Z M 2.402344 0 " clip-rule="nonzero"/></clipPath><clipPath id="3ff6cd3cc7"><path d="M 282.351562 4.945312 C 281.785156 2.121094 279.242188 0 276.273438 0 L 8.621094 0 C 5.230469 0 2.402344 2.828125 2.402344 6.21875 L 2.402344 324.761719 C 2.402344 327.726562 4.382812 330.128906 7.210938 330.835938 C 7.773438 333.664062 10.320312 335.785156 13.285156 335.785156 L 280.9375 335.785156 C 284.332031 335.785156 287.15625 332.957031 287.15625 329.566406 L 287.15625 11.023438 C 287.15625 8.054688 285.179688 5.652344 282.351562 4.945312 Z M 3.816406 324.761719 L 3.816406 6.21875 C 3.816406 3.535156 5.9375 1.414062 8.621094 1.414062 L 276.273438 1.414062 C 278.960938 1.414062 281.082031 3.535156 281.082031 6.21875 L 281.082031 324.761719 C 281.082031 327.445312 278.960938 329.566406 276.273438 329.566406 L 8.621094 329.566406 C 5.9375 329.566406 3.816406 327.445312 3.816406 324.761719 Z M 3.816406 324.761719 " clip-rule="nonzero"/></clipPath><clipPath id="d8f412db81"><path d="M 160 34.550781 L 237.511719 34.550781 L 237.511719 119 L 160 119 Z M 160 34.550781 " clip-rule="nonzero"/></clipPath><clipPath id="d6a0ced756"><path d="M 48 172 L 100 172 L 100 227.160156 L 48 227.160156 Z M 48 172 " clip-rule="nonzero"/></clipPath></defs><g mask="url(#80dbeaf7d0)"><g transform="matrix(1, 0, 0, 1, 2, 1)"><g clip-path="url(#731eab242e)"><g clip-path="url(#099e437190)"><g clip-path="url(#591172b306)"><path fill="#cb6ce6" d="M 0.402344 0.933594 L 282.453125 0.933594 L 282.453125 260.664062 L 0.402344 260.664062 Z M 0.402344 0.933594 " fill-opacity="1" fill-rule="nonzero"/></g></g></g></g></g><g clip-path="url(#58a21e3364)"><g clip-path="url(#d9909827cf)"><path fill="#ff9003" d="M 2.402344 0 L 287.15625 0 L 287.15625 335.921875 L 2.402344 335.921875 Z M 2.402344 0 " fill-opacity="1" fill-rule="nonzero"/></g></g><g clip-path="url(#a8ff635037)"><g clip-path="url(#3ff6cd3cc7)"><path fill="#231f20" d="M 2.402344 0 L 287.15625 0 L 287.15625 335.921875 L 2.402344 335.921875 Z M 2.402344 0 " fill-opacity="1" fill-rule="nonzero"/></g></g><g clip-path="url(#d8f412db81)"><path fill="#000000" d="M 236.117188 35.335938 C 235.457031 34.851562 234.582031 34.703125 233.769531 34.941406 L 184.96875 50.132812 C 183.855469 50.464844 183.101562 51.492188 183.101562 52.667969 L 183.101562 93.328125 C 180.691406 91.398438 177.710938 90.191406 174.394531 90.191406 C 166.683594 90.191406 160.417969 96.460938 160.417969 104.179688 C 160.417969 111.894531 166.683594 118.164062 174.394531 118.164062 C 182.105469 118.164062 188.375 111.894531 188.375 104.179688 L 188.375 72.742188 L 231.929688 59.175781 L 231.929688 78.105469 C 229.523438 76.175781 226.539062 74.972656 223.226562 74.972656 C 215.515625 74.972656 209.25 81.242188 209.25 88.957031 C 209.25 96.675781 215.515625 102.945312 223.226562 102.945312 C 230.9375 102.945312 237.203125 96.675781 237.203125 88.957031 L 237.203125 37.445312 C 237.203125 36.601562 236.8125 35.816406 236.117188 35.335938 Z M 174.394531 112.890625 C 169.605469 112.890625 165.691406 108.972656 165.691406 104.179688 C 165.691406 99.386719 169.605469 95.46875 174.394531 95.46875 C 179.183594 95.46875 183.101562 99.386719 183.101562 104.179688 C 183.101562 108.972656 179.214844 112.890625 174.394531 112.890625 Z M 188.375 67.226562 L 188.375 54.597656 L 231.929688 41.03125 L 231.929688 53.660156 Z M 223.226562 97.667969 C 218.4375 97.667969 214.519531 93.75 214.519531 88.957031 C 214.519531 84.164062 218.4375 80.246094 223.226562 80.246094 C 228.015625 80.246094 231.929688 84.164062 231.929688 88.957031 C 231.929688 93.75 228.015625 97.667969 223.226562 97.667969 Z M 223.226562 97.667969 " fill-opacity="1" fill-rule="nonzero"/></g><g clip-path="url(#d6a0ced756)"><path fill="#000000" d="M 95.773438 172.8125 L 64.988281 182.398438 C 63.871094 182.730469 63.121094 183.753906 63.121094 184.929688 L 63.121094 208.773438 C 61.765625 208.046875 60.226562 207.625 58.601562 207.625 C 53.210938 207.625 48.8125 212.027344 48.8125 217.421875 C 48.8125 222.816406 53.210938 227.21875 58.601562 227.21875 C 63.992188 227.21875 68.390625 222.816406 68.390625 217.421875 L 68.390625 198.34375 L 93.90625 190.386719 L 93.90625 199.1875 C 92.550781 198.464844 91.015625 198.042969 89.386719 198.042969 C 83.996094 198.042969 79.597656 202.441406 79.597656 207.835938 C 79.597656 213.234375 83.996094 217.632812 89.386719 217.632812 C 94.78125 217.632812 99.175781 213.234375 99.175781 207.835938 L 99.175781 175.3125 C 99.175781 174.46875 98.785156 173.6875 98.09375 173.175781 C 97.429688 172.722656 96.558594 172.570312 95.773438 172.8125 Z M 58.601562 221.914062 C 56.101562 221.914062 54.082031 219.894531 54.082031 217.390625 C 54.082031 214.890625 56.101562 212.871094 58.601562 212.871094 C 61.101562 212.871094 63.121094 214.890625 63.121094 217.390625 C 63.121094 219.894531 61.101562 221.914062 58.601562 221.914062 Z M 68.390625 192.765625 L 68.390625 186.828125 L 93.90625 178.871094 L 93.90625 184.777344 Z M 89.386719 212.328125 C 86.886719 212.328125 84.867188 210.308594 84.867188 207.808594 C 84.867188 205.304688 86.886719 203.285156 89.386719 203.285156 C 91.886719 203.285156 93.90625 205.304688 93.90625 207.808594 C 93.90625 210.308594 91.886719 212.328125 89.386719 212.328125 Z M 89.386719 212.328125 " fill-opacity="1" fill-rule="nonzero"/></g><path fill="#000000" d="M 213.828125 165.15625 C 214.070312 165.214844 214.277344 165.246094 214.519531 165.246094 C 215.695312 165.246094 216.75 164.464844 217.050781 163.289062 C 220.394531 150.777344 212.953125 137.847656 200.453125 134.503906 C 199.035156 134.140625 197.589844 134.953125 197.230469 136.371094 C 196.835938 137.789062 197.679688 139.234375 199.097656 139.597656 C 208.796875 142.1875 214.582031 152.226562 211.988281 161.929688 C 211.597656 163.316406 212.441406 164.765625 213.828125 165.15625 Z M 213.828125 165.15625 " fill-opacity="1" fill-rule="nonzero"/><path fill="#000000" d="M 113.246094 141.101562 C 115.144531 141.101562 116.378906 141.042969 116.648438 141.011719 C 117.34375 140.984375 117.972656 140.679688 118.425781 140.167969 C 119.78125 138.660156 151.652344 103.246094 135.929688 70.117188 C 129.992188 57.609375 114.992188 52.273438 102.492188 58.210938 C 94.175781 62.160156 88.933594 70.210938 88.304688 79.039062 C 81.042969 73.945312 71.492188 72.980469 63.121094 76.929688 C 57.09375 79.792969 52.515625 84.859375 50.257812 91.1875 C 47.996094 97.519531 48.328125 104.328125 51.222656 110.386719 C 64.746094 138.84375 101.707031 141.101562 113.246094 141.101562 Z M 55.257812 92.996094 C 57.035156 87.992188 60.648438 84.015625 65.410156 81.753906 C 73.691406 77.804688 83.511719 80.035156 89.328125 87.179688 C 90.082031 88.113281 91.40625 88.414062 92.519531 87.902344 C 93.605469 87.390625 94.207031 86.183594 93.964844 84.980469 C 92.097656 75.964844 96.527344 66.921875 104.78125 63.003906 C 109.570312 60.714844 114.960938 60.441406 119.933594 62.222656 C 124.902344 64 128.910156 67.617188 131.199219 72.410156 C 144.183594 99.71875 119.84375 130.433594 115.292969 135.796875 C 108.273438 136.007812 69.023438 135.464844 56.039062 108.15625 C 53.722656 103.394531 53.480469 98 55.257812 92.996094 Z M 55.257812 92.996094 " fill-opacity="1" fill-rule="nonzero"/><path fill="#000000" d="M 203.585938 122.835938 C 190.179688 119.25 176.261719 123.742188 167.496094 133.929688 C 165.359375 122.65625 157.917969 112.980469 147.222656 108.1875 C 145.898438 107.585938 144.332031 108.1875 143.730469 109.515625 C 143.128906 110.839844 143.730469 112.40625 145.054688 113.011719 C 156.140625 117.984375 163.128906 129.105469 162.828125 141.375 C 162.796875 142.578125 163.613281 143.664062 164.785156 143.996094 C 165.960938 144.328125 167.195312 143.785156 167.769531 142.730469 C 174.515625 130.402344 188.675781 124.3125 202.199219 127.960938 C 209.972656 130.039062 216.507812 135.074219 220.546875 142.066406 C 224.613281 149.089844 225.695312 157.257812 223.585938 165.066406 C 211.71875 209.375 152.707031 220.195312 144 221.550781 C 138.007812 216.730469 102.492188 186.464844 101.496094 149.453125 C 101.46875 148.003906 100.292969 146.800781 98.785156 146.890625 C 97.339844 146.921875 96.195312 148.15625 96.226562 149.601562 C 97.371094 192.375 139.84375 225.078125 141.652344 226.433594 C 142.101562 226.796875 142.675781 226.976562 143.25 226.976562 C 143.367188 226.976562 143.460938 226.976562 143.578125 226.949219 C 146.5 226.585938 215.003906 217.511719 228.707031 166.390625 C 231.179688 157.230469 229.914062 147.613281 225.152344 139.386719 C 220.363281 131.1875 212.710938 125.277344 203.585938 122.835938 Z M 203.585938 122.835938 " fill-opacity="1" fill-rule="nonzero"/><g fill="#000000" fill-opacity="1"><g transform="translate(19.609165, 274.030553)"><g><path d="M 1.96875 0 L 15.027344 0 L 15.027344 -4.386719 L 7.289062 -4.386719 L 7.289062 -7.261719 L 14.015625 -7.261719 L 14.015625 -11.570312 L 7.289062 -11.570312 L 7.289062 -14.28125 L 14.734375 -14.28125 L 14.734375 -18.617188 L 1.96875 -18.617188 Z M 1.96875 0 "/></g></g></g><g fill="#000000" fill-opacity="1"><g transform="translate(35.831195, 274.030553)"><g><path d="M 1.96875 0 L 7.289062 0 L 7.289062 -9.496094 L 14.363281 0 L 18.726562 0 L 18.726562 -18.617188 L 13.433594 -18.617188 L 13.433594 -9.175781 L 6.355469 -18.617188 L 1.96875 -18.617188 Z M 1.96875 0 "/></g></g></g><g fill="#000000" fill-opacity="1"><g transform="translate(56.54753, 274.030553)"><g><path d="M 6.410156 0 L 11.757812 0 L 11.757812 -13.644531 L 17.421875 -13.644531 L 17.421875 -18.617188 L 0.746094 -18.617188 L 0.746094 -13.644531 L 6.410156 -13.644531 Z M 6.410156 0 "/></g></g></g><g fill="#000000" fill-opacity="1"><g transform="translate(74.710889, 274.030553)"><g><path d="M 1.96875 0 L 15.027344 0 L 15.027344 -4.386719 L 7.289062 -4.386719 L 7.289062 -7.261719 L 14.015625 -7.261719 L 14.015625 -11.570312 L 7.289062 -11.570312 L 7.289062 -14.28125 L 14.734375 -14.28125 L 14.734375 -18.617188 L 1.96875 -18.617188 Z M 1.96875 0 "/></g></g></g><g fill="#000000" fill-opacity="1"><g transform="translate(90.932919, 274.030553)"><g><path d="M 1.96875 0 L 7.339844 0 L 7.339844 -5.292969 L 9.363281 -5.292969 L 12.023438 0 L 18.113281 0 L 14.683594 -6.277344 C 16.648438 -7.367188 17.765625 -9.335938 17.765625 -11.941406 C 17.765625 -16.066406 14.972656 -18.617188 10.453125 -18.617188 L 1.96875 -18.617188 Z M 7.234375 -9.574219 L 7.234375 -14.230469 L 9.734375 -14.230469 C 11.4375 -14.230469 12.367188 -13.40625 12.367188 -11.914062 C 12.367188 -10.425781 11.4375 -9.574219 9.734375 -9.574219 Z M 7.234375 -9.574219 "/></g></g></g><g fill="#000000" fill-opacity="1"><g transform="translate(110.080232, 274.030553)"><g><path d="M 6.410156 0 L 11.757812 0 L 11.757812 -13.644531 L 17.421875 -13.644531 L 17.421875 -18.617188 L 0.746094 -18.617188 L 0.746094 -13.644531 L 6.410156 -13.644531 Z M 6.410156 0 "/></g></g></g><g fill="#000000" fill-opacity="1"><g transform="translate(128.243592, 274.030553)"><g><path d="M 0.132812 0 L 5.824219 0 L 6.835938 -2.632812 L 13.191406 -2.632812 L 14.203125 0 L 19.921875 0 L 12.6875 -18.617188 L 7.367188 -18.617188 Z M 7.953125 -6.570312 L 10.027344 -12.339844 L 12.101562 -6.570312 Z M 7.953125 -6.570312 "/></g></g></g><g fill="#000000" fill-opacity="1"><g transform="translate(148.295084, 274.030553)"><g><path d="M 1.96875 0 L 7.339844 0 L 7.339844 -18.617188 L 1.96875 -18.617188 Z M 1.96875 0 "/></g></g></g><g fill="#000000" fill-opacity="1"><g transform="translate(157.602806, 274.030553)"><g><path d="M 1.96875 0 L 7.289062 0 L 7.289062 -9.496094 L 14.363281 0 L 18.726562 0 L 18.726562 -18.617188 L 13.433594 -18.617188 L 13.433594 -9.175781 L 6.355469 -18.617188 L 1.96875 -18.617188 Z M 1.96875 0 "/></g></g></g><g fill="#000000" fill-opacity="1"><g transform="translate(178.31914, 274.030553)"><g><path d="M 1.96875 0 L 7.289062 0 L 7.289062 -9.441406 L 10.878906 -4.414062 L 14.363281 -4.414062 L 17.925781 -9.414062 L 17.925781 0 L 23.246094 0 L 23.246094 -18.617188 L 18.882812 -18.617188 L 12.605469 -9.761719 L 6.355469 -18.617188 L 1.96875 -18.617188 Z M 1.96875 0 "/></g></g></g><g fill="#000000" fill-opacity="1"><g transform="translate(203.52977, 274.030553)"><g><path d="M 1.96875 0 L 15.027344 0 L 15.027344 -4.386719 L 7.289062 -4.386719 L 7.289062 -7.261719 L 14.015625 -7.261719 L 14.015625 -11.570312 L 7.289062 -11.570312 L 7.289062 -14.28125 L 14.734375 -14.28125 L 14.734375 -18.617188 L 1.96875 -18.617188 Z M 1.96875 0 "/></g></g></g><g fill="#000000" fill-opacity="1"><g transform="translate(219.751811, 274.030553)"><g><path d="M 1.96875 0 L 7.289062 0 L 7.289062 -9.496094 L 14.363281 0 L 18.726562 0 L 18.726562 -18.617188 L 13.433594 -18.617188 L 13.433594 -9.175781 L 6.355469 -18.617188 L 1.96875 -18.617188 Z M 1.96875 0 "/></g></g></g><g fill="#000000" fill-opacity="1"><g transform="translate(240.468134, 274.030553)"><g><path d="M 6.410156 0 L 11.757812 0 L 11.757812 -13.644531 L 17.421875 -13.644531 L 17.421875 -18.617188 L 0.746094 -18.617188 L 0.746094 -13.644531 L 6.410156 -13.644531 Z M 6.410156 0 "/></g></g></g><g fill="#000000" fill-opacity="1"><g transform="translate(258.631483, 274.030553)"><g><path d="M 3.617188 0.347656 C 5.265625 0.347656 6.4375 -0.824219 6.4375 -2.421875 C 6.4375 -4.015625 5.265625 -5.1875 3.617188 -5.1875 C 1.941406 -5.1875 0.769531 -4.015625 0.769531 -2.421875 C 0.769531 -0.824219 1.941406 0.347656 3.617188 0.347656 Z M 0.769531 -11.730469 C 0.769531 -10.132812 1.941406 -8.964844 3.617188 -8.964844 C 5.265625 -8.964844 6.4375 -10.132812 6.4375 -11.730469 C 6.4375 -13.324219 5.265625 -14.496094 3.617188 -14.496094 C 1.941406 -14.496094 0.769531 -13.324219 0.769531 -11.730469 Z M 0.769531 -11.730469 "/></g></g></g><g fill="#000000" fill-opacity="1"><g transform="translate(96.33345, 310.753288)"><g><path d="M 1.96875 0 L 7.289062 0 L 7.289062 -9.441406 L 10.878906 -4.414062 L 14.363281 -4.414062 L 17.925781 -9.414062 L 17.925781 0 L 23.246094 0 L 23.246094 -18.617188 L 18.882812 -18.617188 L 12.605469 -9.761719 L 6.355469 -18.617188 L 1.96875 -18.617188 Z M 1.96875 0 "/></g></g></g><g fill="#000000" fill-opacity="1"><g transform="translate(121.544079, 310.753288)"><g><path d="M 9.972656 0.398438 C 15 0.398438 18.113281 -2.660156 18.113281 -7.660156 L 18.113281 -18.617188 L 12.765625 -18.617188 L 12.765625 -8.007812 C 12.765625 -5.796875 11.835938 -4.628906 9.972656 -4.628906 C 8.113281 -4.628906 7.179688 -5.796875 7.179688 -8.007812 L 7.179688 -18.617188 L 1.808594 -18.617188 L 1.808594 -7.660156 C 1.808594 -2.660156 4.945312 0.398438 9.972656 0.398438 Z M 9.972656 0.398438 "/></g></g></g><g fill="#000000" fill-opacity="1"><g transform="translate(141.489197, 310.753288)"><g><path d="M 8.644531 0.398438 C 13.273438 0.398438 16.011719 -1.78125 16.011719 -5.453125 C 16.011719 -8.539062 14.015625 -10.347656 9.496094 -11.355469 C 7.101562 -11.890625 6.222656 -12.472656 6.222656 -13.433594 C 6.222656 -14.335938 7.023438 -14.894531 8.273438 -14.894531 C 9.761719 -14.894531 10.613281 -14.125 10.613281 -12.714844 L 15.667969 -12.714844 C 15.667969 -16.542969 12.742188 -19.015625 8.164062 -19.015625 C 3.777344 -19.015625 1.0625 -16.835938 1.0625 -13.324219 C 1.0625 -10.1875 3.113281 -8.246094 7.3125 -7.449219 C 9.574219 -6.996094 10.664062 -6.304688 10.664062 -5.238281 C 10.664062 -4.308594 9.867188 -3.777344 8.566406 -3.777344 C 7.023438 -3.777344 6.117188 -4.601562 6.117188 -6.039062 L 0.929688 -6.039062 C 0.929688 -2.019531 3.804688 0.398438 8.644531 0.398438 Z M 8.644531 0.398438 "/></g></g></g><g fill="#000000" fill-opacity="1"><g transform="translate(158.482443, 310.753288)"><g><path d="M 1.96875 0 L 7.339844 0 L 7.339844 -18.617188 L 1.96875 -18.617188 Z M 1.96875 0 "/></g></g></g><g fill="#000000" fill-opacity="1"><g transform="translate(167.790164, 310.753288)"><g><path d="M 10.664062 0.398438 C 15.800781 0.398438 19.683594 -2.714844 20.480469 -7.449219 L 15.027344 -7.449219 C 14.363281 -5.691406 12.792969 -4.574219 10.773438 -4.574219 C 8.164062 -4.574219 6.355469 -6.515625 6.355469 -9.308594 C 6.355469 -12.128906 8.191406 -14.042969 10.824219 -14.042969 C 12.765625 -14.042969 14.390625 -12.953125 14.949219 -11.277344 L 20.375 -11.277344 C 19.417969 -15.984375 15.585938 -19.015625 10.613281 -19.015625 C 4.867188 -19.015625 0.90625 -15.054688 0.90625 -9.308594 C 0.90625 -3.5625 4.867188 0.398438 10.664062 0.398438 Z M 10.664062 0.398438 "/></g></g></g></svg>